<?xml version="1.0" encoding="utf-8" standalone="no"?>
<!DOCTYPE svg PUBLIC "-//W3C//DTD SVG 1.1//EN"
  "http://www.w3.org/Graphics/SVG/1.1/DTD/svg11.dtd">
<svg xmlns:xlink="http://www.w3.org/1999/xlink" width="860.392875pt" height="535.792969pt" viewBox="0 0 860.392875 535.792969" xmlns="http://www.w3.org/2000/svg" version="1.1">
 <metadata>
  <rdf:RDF xmlns:dc="http://purl.org/dc/elements/1.1/" xmlns:cc="http://creativecommons.org/ns#" xmlns:rdf="http://www.w3.org/1999/02/22-rdf-syntax-ns#">
   <cc:Work>
    <dc:type rdf:resource="http://purl.org/dc/dcmitype/StillImage"/>
    <dc:date>2026-02-26T22:09:47.724751</dc:date>
    <dc:format>image/svg+xml</dc:format>
    <dc:creator>
     <cc:Agent>
      <dc:title>Matplotlib v3.9.3, https://matplotlib.org/</dc:title>
     </cc:Agent>
    </dc:creator>
   </cc:Work>
  </rdf:RDF>
 </metadata>
 <defs>
  <style type="text/css">*{stroke-linejoin: round; stroke-linecap: butt}</style>
 </defs>
 <g id="figure_1">
  <g id="patch_1">
   <path d="M 0 535.792969 
L 860.392875 535.792969 
L 860.392875 0 
L 0 0 
L 0 535.792969 
z
" style="fill: none; opacity: 0"/>
  </g>
  <g id="axes_1">
   <g id="patch_2">
    <path d="M 84.37 463.785156 
L 749.322 463.785156 
L 749.322 16.505156 
L 84.37 16.505156 
L 84.37 463.785156 
z
" style="fill: none"/>
   </g>
   <g id="PolyCollection_1">
    <defs>
     <path id="m9f85345fc3" d="M 118.688738 -424.161028 
L 110.501444 -424.161028 
L 110.437135 -425.017028 
L 110.375372 -425.873029 
L 110.315359 -426.72903 
L 110.25619 -427.58503 
L 110.196858 -428.441031 
L 110.136263 -429.297031 
L 110.073223 -430.153032 
L 110.006485 -431.009033 
L 109.934745 -431.865033 
L 109.856658 -432.721034 
L 109.770853 -433.577034 
L 109.675958 -434.433035 
L 109.570611 -435.289036 
L 109.453479 -436.145036 
L 109.323279 -437.001037 
L 109.178793 -437.857038 
L 109.018888 -438.713038 
L 108.842529 -439.569039 
L 108.648797 -440.425039 
L 108.436904 -441.28104 
L 108.206202 -442.137041 
L 107.956201 -442.993041 
L 107.686569 -443.849042 
L 107.39715 -444.705042 
L 107.087961 -445.561043 
L 106.759201 -446.417044 
L 106.411249 -447.273044 
L 106.044669 -448.129045 
L 105.6602 -448.985045 
L 105.258758 -449.841046 
L 104.841427 -450.697047 
L 104.40945 -451.553047 
L 103.964223 -452.409048 
L 103.507281 -453.265048 
L 103.040284 -454.121049 
L 102.565008 -454.97705 
L 102.083327 -455.83305 
L 101.597197 -456.689051 
L 101.108643 -457.545052 
L 100.619736 -458.401052 
L 100.132583 -459.257053 
L 99.649304 -460.113053 
L 99.172015 -460.969054 
L 98.702814 -461.825055 
L 98.24376 -462.681055 
L 97.796858 -463.537056 
L 97.364041 -464.393056 
L 96.947158 -465.249057 
L 96.547954 -466.105058 
L 96.168061 -466.961058 
L 95.808983 -467.817059 
L 95.472085 -468.673059 
L 95.158584 -469.52906 
L 94.86954 -470.385061 
L 94.60585 -471.241061 
L 94.36824 -472.097062 
L 94.157268 -472.953062 
L 93.973319 -473.809063 
L 93.816605 -474.665064 
L 93.687169 -475.521064 
L 93.584893 -476.377065 
L 93.509501 -477.233066 
L 93.460566 -478.089066 
L 93.437527 -478.945067 
L 93.439696 -479.801067 
L 93.466272 -480.657068 
L 93.516359 -481.513069 
L 93.588976 -482.369069 
L 93.68308 -483.22507 
L 93.79758 -484.08107 
L 93.931354 -484.937071 
L 94.083265 -485.793072 
L 94.252181 -486.649072 
L 94.436989 -487.505073 
L 94.636609 -488.361073 
L 94.850006 -489.217074 
L 95.076208 -490.073075 
L 95.314309 -490.929075 
L 95.563478 -491.785076 
L 95.822971 -492.641076 
L 96.092124 -493.497077 
L 96.370364 -494.353078 
L 96.657201 -495.209078 
L 96.952228 -496.065079 
L 97.255115 -496.921079 
L 97.565599 -497.77708 
L 97.88348 -498.633081 
L 98.208605 -499.489081 
L 98.54086 -500.345082 
L 98.880153 -501.201083 
L 99.226408 -502.057083 
L 99.579543 -502.913084 
L 99.939464 -503.769084 
L 100.30605 -504.625085 
L 100.679139 -505.481086 
L 101.05852 -506.337086 
L 101.443923 -507.193087 
L 101.835013 -508.049087 
L 102.231381 -508.905088 
L 126.958801 -508.905088 
L 126.958801 -508.905088 
L 127.355169 -508.049087 
L 127.746258 -507.193087 
L 128.131662 -506.337086 
L 128.511043 -505.481086 
L 128.884132 -504.625085 
L 129.250717 -503.769084 
L 129.610639 -502.913084 
L 129.963774 -502.057083 
L 130.310029 -501.201083 
L 130.649322 -500.345082 
L 130.981576 -499.489081 
L 131.306702 -498.633081 
L 131.624583 -497.77708 
L 131.935067 -496.921079 
L 132.237954 -496.065079 
L 132.532981 -495.209078 
L 132.819818 -494.353078 
L 133.098058 -493.497077 
L 133.367211 -492.641076 
L 133.626703 -491.785076 
L 133.875873 -490.929075 
L 134.113974 -490.073075 
L 134.340176 -489.217074 
L 134.553573 -488.361073 
L 134.753193 -487.505073 
L 134.938001 -486.649072 
L 135.106917 -485.793072 
L 135.258828 -484.937071 
L 135.392602 -484.08107 
L 135.507102 -483.22507 
L 135.601206 -482.369069 
L 135.673823 -481.513069 
L 135.723909 -480.657068 
L 135.750486 -479.801067 
L 135.752655 -478.945067 
L 135.729616 -478.089066 
L 135.680681 -477.233066 
L 135.605288 -476.377065 
L 135.503013 -475.521064 
L 135.373577 -474.665064 
L 135.216863 -473.809063 
L 135.032913 -472.953062 
L 134.821942 -472.097062 
L 134.584332 -471.241061 
L 134.320641 -470.385061 
L 134.031597 -469.52906 
L 133.718097 -468.673059 
L 133.381199 -467.817059 
L 133.022121 -466.961058 
L 132.642228 -466.105058 
L 132.243024 -465.249057 
L 131.826141 -464.393056 
L 131.393324 -463.537056 
L 130.946422 -462.681055 
L 130.487368 -461.825055 
L 130.018167 -460.969054 
L 129.540878 -460.113053 
L 129.057599 -459.257053 
L 128.570445 -458.401052 
L 128.081539 -457.545052 
L 127.592984 -456.689051 
L 127.106855 -455.83305 
L 126.625174 -454.97705 
L 126.149898 -454.121049 
L 125.682901 -453.265048 
L 125.225958 -452.409048 
L 124.780731 -451.553047 
L 124.348755 -450.697047 
L 123.931424 -449.841046 
L 123.529982 -448.985045 
L 123.145513 -448.129045 
L 122.778932 -447.273044 
L 122.430981 -446.417044 
L 122.102221 -445.561043 
L 121.793032 -444.705042 
L 121.503613 -443.849042 
L 121.233981 -442.993041 
L 120.983979 -442.137041 
L 120.753278 -441.28104 
L 120.541385 -440.425039 
L 120.347653 -439.569039 
L 120.171294 -438.713038 
L 120.011388 -437.857038 
L 119.866903 -437.001037 
L 119.736703 -436.145036 
L 119.619571 -435.289036 
L 119.514223 -434.433035 
L 119.419329 -433.577034 
L 119.333524 -432.721034 
L 119.255436 -431.865033 
L 119.183696 -431.009033 
L 119.116959 -430.153032 
L 119.053919 -429.297031 
L 118.993324 -428.441031 
L 118.933992 -427.58503 
L 118.874823 -426.72903 
L 118.81481 -425.873029 
L 118.753047 -425.017028 
L 118.688738 -424.161028 
z
" style="stroke: #ffffff; stroke-opacity: 0.6; stroke-width: 1.5"/>
    </defs>
    <g clip-path="url(#pff088b0ce7)">
     <use xlink:href="#m9f85345fc3" x="0" y="535.792969" style="fill: #888888; fill-opacity: 0.6; stroke: #ffffff; stroke-opacity: 0.6; stroke-width: 1.5"/>
    </g>
   </g>
   <g id="PolyCollection_2">
    <defs>
     <path id="m61d622f942" d="M 181.440758 -395.034561 
L 168.649787 -395.034561 
L 168.591567 -395.643112 
L 168.544184 -396.251662 
L 168.50745 -396.860213 
L 168.481063 -397.468764 
L 168.464603 -398.077315 
L 168.457534 -398.685866 
L 168.459205 -399.294417 
L 168.468855 -399.902968 
L 168.485615 -400.511519 
L 168.508514 -401.12007 
L 168.536489 -401.728621 
L 168.568387 -402.337171 
L 168.602981 -402.945722 
L 168.638972 -403.554273 
L 168.675005 -404.162824 
L 168.709678 -404.771375 
L 168.741555 -405.379926 
L 168.769175 -405.988477 
L 168.791069 -406.597028 
L 168.805769 -407.205579 
L 168.811823 -407.81413 
L 168.807806 -408.42268 
L 168.792333 -409.031231 
L 168.764072 -409.639782 
L 168.721757 -410.248333 
L 168.664196 -410.856884 
L 168.590283 -411.465435 
L 168.499012 -412.073986 
L 168.389479 -412.682537 
L 168.260898 -413.291088 
L 168.112605 -413.899639 
L 167.944065 -414.508189 
L 167.754879 -415.11674 
L 167.544787 -415.725291 
L 167.313674 -416.333842 
L 167.061572 -416.942393 
L 166.788663 -417.550944 
L 166.495277 -418.159495 
L 166.181895 -418.768046 
L 165.849145 -419.376597 
L 165.497802 -419.985148 
L 165.128783 -420.593698 
L 164.743144 -421.202249 
L 164.342073 -421.8108 
L 163.926887 -422.419351 
L 163.499022 -423.027902 
L 163.060026 -423.636453 
L 162.611551 -424.245004 
L 162.155343 -424.853555 
L 161.693232 -425.462106 
L 161.227121 -426.070657 
L 160.758977 -426.679207 
L 160.290815 -427.287758 
L 159.82469 -427.896309 
L 159.362683 -428.50486 
L 158.906886 -429.113411 
L 158.459394 -429.721962 
L 158.022287 -430.330513 
L 157.597621 -430.939064 
L 157.187411 -431.547615 
L 156.793624 -432.156166 
L 156.41816 -432.764716 
L 156.062846 -433.373267 
L 155.729422 -433.981818 
L 155.419528 -434.590369 
L 155.134697 -435.19892 
L 154.876344 -435.807471 
L 154.645759 -436.416022 
L 154.444095 -437.024573 
L 154.272367 -437.633124 
L 154.131441 -438.241675 
L 154.022031 -438.850225 
L 153.944698 -439.458776 
L 153.899844 -440.067327 
L 153.887709 -440.675878 
L 153.908377 -441.284429 
L 153.961771 -441.89298 
L 154.047657 -442.501531 
L 154.165648 -443.110082 
L 154.315206 -443.718633 
L 154.49565 -444.327184 
L 154.706159 -444.935734 
L 154.945781 -445.544285 
L 155.213439 -446.152836 
L 155.507943 -446.761387 
L 155.827995 -447.369938 
L 156.172201 -447.978489 
L 156.539083 -448.58704 
L 156.927085 -449.195591 
L 157.33459 -449.804142 
L 157.759924 -450.412693 
L 158.201374 -451.021243 
L 158.657196 -451.629794 
L 159.125626 -452.238345 
L 159.604892 -452.846896 
L 160.093224 -453.455447 
L 160.588866 -454.063998 
L 161.090083 -454.672549 
L 161.595172 -455.2811 
L 188.495374 -455.2811 
L 188.495374 -455.2811 
L 189.000463 -454.672549 
L 189.50168 -454.063998 
L 189.997321 -453.455447 
L 190.485654 -452.846896 
L 190.96492 -452.238345 
L 191.43335 -451.629794 
L 191.889172 -451.021243 
L 192.330622 -450.412693 
L 192.755956 -449.804142 
L 193.16346 -449.195591 
L 193.551462 -448.58704 
L 193.918344 -447.978489 
L 194.26255 -447.369938 
L 194.582602 -446.761387 
L 194.877106 -446.152836 
L 195.144764 -445.544285 
L 195.384386 -444.935734 
L 195.594895 -444.327184 
L 195.775339 -443.718633 
L 195.924898 -443.110082 
L 196.042889 -442.501531 
L 196.128775 -441.89298 
L 196.182168 -441.284429 
L 196.202836 -440.675878 
L 196.190702 -440.067327 
L 196.145847 -439.458776 
L 196.068514 -438.850225 
L 195.959105 -438.241675 
L 195.818179 -437.633124 
L 195.64645 -437.024573 
L 195.444787 -436.416022 
L 195.214201 -435.807471 
L 194.955849 -435.19892 
L 194.671018 -434.590369 
L 194.361123 -433.981818 
L 194.027699 -433.373267 
L 193.672385 -432.764716 
L 193.296922 -432.156166 
L 192.903135 -431.547615 
L 192.492925 -430.939064 
L 192.068258 -430.330513 
L 191.631152 -429.721962 
L 191.183659 -429.113411 
L 190.727863 -428.50486 
L 190.265855 -427.896309 
L 189.799731 -427.287758 
L 189.331569 -426.679207 
L 188.863424 -426.070657 
L 188.397314 -425.462106 
L 187.935202 -424.853555 
L 187.478994 -424.245004 
L 187.030519 -423.636453 
L 186.591523 -423.027902 
L 186.163658 -422.419351 
L 185.748472 -421.8108 
L 185.347402 -421.202249 
L 184.961763 -420.593698 
L 184.592744 -419.985148 
L 184.241401 -419.376597 
L 183.908651 -418.768046 
L 183.595268 -418.159495 
L 183.301883 -417.550944 
L 183.028973 -416.942393 
L 182.776872 -416.333842 
L 182.545759 -415.725291 
L 182.335667 -415.11674 
L 182.14648 -414.508189 
L 181.97794 -413.899639 
L 181.829647 -413.291088 
L 181.701067 -412.682537 
L 181.591534 -412.073986 
L 181.500262 -411.465435 
L 181.42635 -410.856884 
L 181.368788 -410.248333 
L 181.326473 -409.639782 
L 181.298213 -409.031231 
L 181.28274 -408.42268 
L 181.278722 -407.81413 
L 181.284776 -407.205579 
L 181.299476 -406.597028 
L 181.32137 -405.988477 
L 181.348991 -405.379926 
L 181.380868 -404.771375 
L 181.415541 -404.162824 
L 181.451574 -403.554273 
L 181.487565 -402.945722 
L 181.522158 -402.337171 
L 181.554057 -401.728621 
L 181.582031 -401.12007 
L 181.604931 -400.511519 
L 181.62169 -399.902968 
L 181.63134 -399.294417 
L 181.633011 -398.685866 
L 181.625943 -398.077315 
L 181.609483 -397.468764 
L 181.583096 -396.860213 
L 181.546362 -396.251662 
L 181.498978 -395.643112 
L 181.440758 -395.034561 
z
" style="stroke: #ffffff; stroke-opacity: 0.6; stroke-width: 1.5"/>
    </defs>
    <g clip-path="url(#pff088b0ce7)">
     <use xlink:href="#m61d622f942" x="0" y="535.792969" style="fill: #888888; fill-opacity: 0.6; stroke: #ffffff; stroke-opacity: 0.6; stroke-width: 1.5"/>
    </g>
   </g>
   <g id="PolyCollection_3">
    <defs>
     <path id="mb59bdd4eaf" d="M 250.979485 -359.968702 
L 220.011424 -359.968702 
L 219.567878 -360.449373 
L 219.134671 -360.930044 
L 218.713147 -361.410714 
L 218.304629 -361.891385 
L 217.910408 -362.372056 
L 217.531737 -362.852726 
L 217.169826 -363.333397 
L 216.825826 -363.814068 
L 216.50083 -364.294738 
L 216.195855 -364.775409 
L 215.911843 -365.25608 
L 215.649645 -365.736751 
L 215.410017 -366.217421 
L 215.193614 -366.698092 
L 215.000979 -367.178763 
L 214.832539 -367.659433 
L 214.688597 -368.140104 
L 214.56933 -368.620775 
L 214.474783 -369.101445 
L 214.404868 -369.582116 
L 214.359358 -370.062787 
L 214.337891 -370.543458 
L 214.339967 -371.024128 
L 214.364955 -371.504799 
L 214.412089 -371.98547 
L 214.480481 -372.46614 
L 214.569121 -372.946811 
L 214.676892 -373.427482 
L 214.802569 -373.908152 
L 214.94484 -374.388823 
L 215.102312 -374.869494 
L 215.273525 -375.350165 
L 215.456964 -375.830835 
L 215.65108 -376.311506 
L 215.854296 -376.792177 
L 216.065031 -377.272847 
L 216.281708 -377.753518 
L 216.502776 -378.234189 
L 216.726725 -378.71486 
L 216.952094 -379.19553 
L 217.177494 -379.676201 
L 217.401617 -380.156872 
L 217.623249 -380.637542 
L 217.841281 -381.118213 
L 218.054716 -381.598884 
L 218.262683 -382.079554 
L 218.464439 -382.560225 
L 218.659374 -383.040896 
L 218.847013 -383.521567 
L 219.02702 -384.002237 
L 219.199196 -384.482908 
L 219.363475 -384.963579 
L 219.519921 -385.444249 
L 219.668721 -385.92492 
L 219.81018 -386.405591 
L 219.944711 -386.886261 
L 220.072825 -387.366932 
L 220.195119 -387.847603 
L 220.312269 -388.328274 
L 220.425012 -388.808944 
L 220.534139 -389.289615 
L 220.640478 -389.770286 
L 220.744882 -390.250956 
L 220.848221 -390.731627 
L 220.951363 -391.212298 
L 221.055168 -391.692968 
L 221.160473 -392.173639 
L 221.268086 -392.65431 
L 221.378774 -393.134981 
L 221.493257 -393.615651 
L 221.612197 -394.096322 
L 221.736198 -394.576993 
L 221.865798 -395.057663 
L 222.001465 -395.538334 
L 222.143596 -396.019005 
L 222.292515 -396.499676 
L 222.448475 -396.980346 
L 222.611654 -397.461017 
L 222.782162 -397.941688 
L 222.960038 -398.422358 
L 223.14526 -398.903029 
L 223.337741 -399.3837 
L 223.537338 -399.86437 
L 223.743856 -400.345041 
L 223.95705 -400.825712 
L 224.176634 -401.306383 
L 224.402283 -401.787053 
L 224.633637 -402.267724 
L 224.870309 -402.748395 
L 225.111887 -403.229065 
L 225.35794 -403.709736 
L 225.608021 -404.190407 
L 225.861671 -404.671077 
L 226.118423 -405.151748 
L 226.377802 -405.632419 
L 226.639334 -406.11309 
L 226.902542 -406.59376 
L 227.166954 -407.074431 
L 227.432097 -407.555102 
L 243.558812 -407.555102 
L 243.558812 -407.555102 
L 243.823955 -407.074431 
L 244.088367 -406.59376 
L 244.351575 -406.11309 
L 244.613107 -405.632419 
L 244.872487 -405.151748 
L 245.129238 -404.671077 
L 245.382888 -404.190407 
L 245.632969 -403.709736 
L 245.879022 -403.229065 
L 246.1206 -402.748395 
L 246.357272 -402.267724 
L 246.588626 -401.787053 
L 246.814275 -401.306383 
L 247.033859 -400.825712 
L 247.247053 -400.345041 
L 247.453571 -399.86437 
L 247.653168 -399.3837 
L 247.845649 -398.903029 
L 248.030871 -398.422358 
L 248.208747 -397.941688 
L 248.379255 -397.461017 
L 248.542434 -396.980346 
L 248.698394 -396.499676 
L 248.847313 -396.019005 
L 248.989444 -395.538334 
L 249.125111 -395.057663 
L 249.254711 -394.576993 
L 249.378712 -394.096322 
L 249.497653 -393.615651 
L 249.612135 -393.134981 
L 249.722823 -392.65431 
L 249.830436 -392.173639 
L 249.935741 -391.692968 
L 250.039546 -391.212298 
L 250.142688 -390.731627 
L 250.246027 -390.250956 
L 250.350431 -389.770286 
L 250.45677 -389.289615 
L 250.565897 -388.808944 
L 250.67864 -388.328274 
L 250.79579 -387.847603 
L 250.918084 -387.366932 
L 251.046198 -386.886261 
L 251.180729 -386.405591 
L 251.322188 -385.92492 
L 251.470988 -385.444249 
L 251.627434 -384.963579 
L 251.791713 -384.482908 
L 251.963889 -384.002237 
L 252.143896 -383.521567 
L 252.331535 -383.040896 
L 252.52647 -382.560225 
L 252.728226 -382.079554 
L 252.936193 -381.598884 
L 253.149629 -381.118213 
L 253.36766 -380.637542 
L 253.589292 -380.156872 
L 253.813415 -379.676201 
L 254.038815 -379.19553 
L 254.264185 -378.71486 
L 254.488133 -378.234189 
L 254.709201 -377.753518 
L 254.925878 -377.272847 
L 255.136613 -376.792177 
L 255.339829 -376.311506 
L 255.533945 -375.830835 
L 255.717385 -375.350165 
L 255.888597 -374.869494 
L 256.046069 -374.388823 
L 256.18834 -373.908152 
L 256.314018 -373.427482 
L 256.421788 -372.946811 
L 256.510429 -372.46614 
L 256.57882 -371.98547 
L 256.625954 -371.504799 
L 256.650942 -371.024128 
L 256.653018 -370.543458 
L 256.631551 -370.062787 
L 256.586041 -369.582116 
L 256.516126 -369.101445 
L 256.421579 -368.620775 
L 256.302313 -368.140104 
L 256.15837 -367.659433 
L 255.98993 -367.178763 
L 255.797295 -366.698092 
L 255.580892 -366.217421 
L 255.341265 -365.736751 
L 255.079066 -365.25608 
L 254.795054 -364.775409 
L 254.490079 -364.294738 
L 254.165083 -363.814068 
L 253.821083 -363.333397 
L 253.459172 -362.852726 
L 253.080501 -362.372056 
L 252.68628 -361.891385 
L 252.277762 -361.410714 
L 251.856238 -360.930044 
L 251.423031 -360.449373 
L 250.979485 -359.968702 
z
" style="stroke: #ffffff; stroke-opacity: 0.6; stroke-width: 1.5"/>
    </defs>
    <g clip-path="url(#pff088b0ce7)">
     <use xlink:href="#mb59bdd4eaf" x="0" y="535.792969" style="fill: #888888; fill-opacity: 0.6; stroke: #ffffff; stroke-opacity: 0.6; stroke-width: 1.5"/>
    </g>
   </g>
   <g id="PolyCollection_4">
    <defs>
     <path id="m4d7a98e7a6" d="M 304.399979 -346.146526 
L 287.491294 -346.146526 
L 287.142811 -346.416691 
L 286.792977 -346.686857 
L 286.442281 -346.957023 
L 286.091188 -347.227189 
L 285.740128 -347.497355 
L 285.389502 -347.767521 
L 285.039671 -348.037687 
L 284.690963 -348.307853 
L 284.343668 -348.578019 
L 283.998038 -348.848185 
L 283.654291 -349.118351 
L 283.31261 -349.388517 
L 282.973146 -349.658683 
L 282.636022 -349.928849 
L 282.301336 -350.199015 
L 281.969167 -350.469181 
L 281.63958 -350.739347 
L 281.312634 -351.009513 
L 280.988387 -351.279679 
L 280.666906 -351.549845 
L 280.348273 -351.820011 
L 280.032598 -352.090177 
L 279.720024 -352.360343 
L 279.41074 -352.630509 
L 279.104989 -352.900675 
L 278.803075 -353.17084 
L 278.505376 -353.441006 
L 278.212349 -353.711172 
L 277.924537 -353.981338 
L 277.642575 -354.251504 
L 277.367196 -354.52167 
L 277.099231 -354.791836 
L 276.839612 -355.062002 
L 276.589369 -355.332168 
L 276.349627 -355.602334 
L 276.121602 -355.8725 
L 275.906591 -356.142666 
L 275.705959 -356.412832 
L 275.521132 -356.682998 
L 275.35358 -356.953164 
L 275.204795 -357.22333 
L 275.076278 -357.493496 
L 274.969519 -357.763662 
L 274.885968 -358.033828 
L 274.827019 -358.303994 
L 274.793985 -358.57416 
L 274.788073 -358.844326 
L 274.810362 -359.114492 
L 274.861782 -359.384658 
L 274.943088 -359.654824 
L 275.054849 -359.924989 
L 275.19742 -360.195155 
L 275.370937 -360.465321 
L 275.575299 -360.735487 
L 275.810161 -361.005653 
L 276.07493 -361.275819 
L 276.368762 -361.545985 
L 276.690562 -361.816151 
L 277.038997 -362.086317 
L 277.412498 -362.356483 
L 277.809279 -362.626649 
L 278.227352 -362.896815 
L 278.664549 -363.166981 
L 279.118546 -363.437147 
L 279.586887 -363.707313 
L 280.067015 -363.977479 
L 280.556305 -364.247645 
L 281.052089 -364.517811 
L 281.551696 -364.787977 
L 282.052479 -365.058143 
L 282.551851 -365.328309 
L 283.047316 -365.598475 
L 283.536494 -365.868641 
L 284.017156 -366.138807 
L 284.487245 -366.408972 
L 284.944897 -366.679138 
L 285.388464 -366.949304 
L 285.816524 -367.21947 
L 286.227899 -367.489636 
L 286.621653 -367.759802 
L 286.997106 -368.029968 
L 287.353824 -368.300134 
L 287.691618 -368.5703 
L 288.010538 -368.840466 
L 288.310853 -369.110632 
L 288.593043 -369.380798 
L 288.857778 -369.650964 
L 289.105895 -369.92113 
L 289.338376 -370.191296 
L 289.556326 -370.461462 
L 289.760945 -370.731628 
L 289.953501 -371.001794 
L 290.135307 -371.27196 
L 290.307695 -371.542126 
L 290.471989 -371.812292 
L 290.629483 -372.082458 
L 290.781421 -372.352624 
L 290.928979 -372.62279 
L 291.073244 -372.892956 
L 300.818029 -372.892956 
L 300.818029 -372.892956 
L 300.962294 -372.62279 
L 301.109851 -372.352624 
L 301.26179 -372.082458 
L 301.419284 -371.812292 
L 301.583577 -371.542126 
L 301.755965 -371.27196 
L 301.937772 -371.001794 
L 302.130328 -370.731628 
L 302.334947 -370.461462 
L 302.552897 -370.191296 
L 302.785378 -369.92113 
L 303.033495 -369.650964 
L 303.298229 -369.380798 
L 303.58042 -369.110632 
L 303.880735 -368.840466 
L 304.199654 -368.5703 
L 304.537449 -368.300134 
L 304.894167 -368.029968 
L 305.269619 -367.759802 
L 305.663374 -367.489636 
L 306.074748 -367.21947 
L 306.502809 -366.949304 
L 306.946376 -366.679138 
L 307.404028 -366.408972 
L 307.874117 -366.138807 
L 308.354779 -365.868641 
L 308.843957 -365.598475 
L 309.339421 -365.328309 
L 309.838794 -365.058143 
L 310.339577 -364.787977 
L 310.839184 -364.517811 
L 311.334968 -364.247645 
L 311.824257 -363.977479 
L 312.304386 -363.707313 
L 312.772727 -363.437147 
L 313.226723 -363.166981 
L 313.663921 -362.896815 
L 314.081994 -362.626649 
L 314.478775 -362.356483 
L 314.852276 -362.086317 
L 315.20071 -361.816151 
L 315.522511 -361.545985 
L 315.816342 -361.275819 
L 316.081112 -361.005653 
L 316.315974 -360.735487 
L 316.520336 -360.465321 
L 316.693853 -360.195155 
L 316.836424 -359.924989 
L 316.948184 -359.654824 
L 317.029491 -359.384658 
L 317.080911 -359.114492 
L 317.1032 -358.844326 
L 317.097288 -358.57416 
L 317.064254 -358.303994 
L 317.005305 -358.033828 
L 316.921754 -357.763662 
L 316.814994 -357.493496 
L 316.686478 -357.22333 
L 316.537693 -356.953164 
L 316.37014 -356.682998 
L 316.185314 -356.412832 
L 315.984682 -356.142666 
L 315.76967 -355.8725 
L 315.541645 -355.602334 
L 315.301904 -355.332168 
L 315.051661 -355.062002 
L 314.792042 -354.791836 
L 314.524077 -354.52167 
L 314.248698 -354.251504 
L 313.966736 -353.981338 
L 313.678923 -353.711172 
L 313.385896 -353.441006 
L 313.088198 -353.17084 
L 312.786284 -352.900675 
L 312.480533 -352.630509 
L 312.171249 -352.360343 
L 311.858675 -352.090177 
L 311.543 -351.820011 
L 311.224367 -351.549845 
L 310.902885 -351.279679 
L 310.578638 -351.009513 
L 310.251692 -350.739347 
L 309.922106 -350.469181 
L 309.589937 -350.199015 
L 309.255251 -349.928849 
L 308.918127 -349.658683 
L 308.578663 -349.388517 
L 308.236982 -349.118351 
L 307.893235 -348.848185 
L 307.547605 -348.578019 
L 307.200309 -348.307853 
L 306.851601 -348.037687 
L 306.501771 -347.767521 
L 306.151144 -347.497355 
L 305.800085 -347.227189 
L 305.448992 -346.957023 
L 305.098296 -346.686857 
L 304.748461 -346.416691 
L 304.399979 -346.146526 
z
" style="stroke: #ffffff; stroke-opacity: 0.6; stroke-width: 1.5"/>
    </defs>
    <g clip-path="url(#pff088b0ce7)">
     <use xlink:href="#m4d7a98e7a6" x="0" y="535.792969" style="fill: #888888; fill-opacity: 0.6; stroke: #ffffff; stroke-opacity: 0.6; stroke-width: 1.5"/>
    </g>
   </g>
   <g id="PolyCollection_5">
    <defs>
     <path id="me3ade9b31a" d="M 367.48641 -336.619811 
L 345.305226 -336.619811 
L 345.005567 -336.922026 
L 344.713017 -337.224242 
L 344.428338 -337.526457 
L 344.152252 -337.828672 
L 343.885442 -338.130888 
L 343.628541 -338.433103 
L 343.382128 -338.735319 
L 343.146724 -339.037534 
L 342.922786 -339.33975 
L 342.710704 -339.641965 
L 342.510794 -339.94418 
L 342.323295 -340.246396 
L 342.148369 -340.548611 
L 341.986094 -340.850827 
L 341.836465 -341.153042 
L 341.699389 -341.455258 
L 341.57469 -341.757473 
L 341.462102 -342.059688 
L 341.361276 -342.361904 
L 341.271776 -342.664119 
L 341.193085 -342.966335 
L 341.124607 -343.26855 
L 341.065668 -343.570766 
L 341.015524 -343.872981 
L 340.973365 -344.175196 
L 340.93832 -344.477412 
L 340.909461 -344.779627 
L 340.885818 -345.081843 
L 340.866378 -345.384058 
L 340.850099 -345.686273 
L 340.835914 -345.988489 
L 340.822744 -346.290704 
L 340.809508 -346.59292 
L 340.795128 -346.895135 
L 340.778543 -347.197351 
L 340.758716 -347.499566 
L 340.734646 -347.801781 
L 340.705377 -348.103997 
L 340.670006 -348.406212 
L 340.627696 -348.708428 
L 340.577679 -349.010643 
L 340.519268 -349.312859 
L 340.451867 -349.615074 
L 340.37497 -349.917289 
L 340.288175 -350.219505 
L 340.191185 -350.52172 
L 340.083814 -350.823936 
L 339.96599 -351.126151 
L 339.837758 -351.428367 
L 339.699279 -351.730582 
L 339.550834 -352.032797 
L 339.39282 -352.335013 
L 339.225752 -352.637228 
L 339.050255 -352.939444 
L 338.867065 -353.241659 
L 338.677021 -353.543875 
L 338.481062 -353.84609 
L 338.280215 -354.148305 
L 338.075595 -354.450521 
L 337.868391 -354.752736 
L 337.659857 -355.054952 
L 337.451307 -355.357167 
L 337.2441 -355.659383 
L 337.039632 -355.961598 
L 336.839327 -356.263813 
L 336.64462 -356.566029 
L 336.456954 -356.868244 
L 336.277762 -357.17046 
L 336.108461 -357.472675 
L 335.950439 -357.774891 
L 335.805045 -358.077106 
L 335.673579 -358.379321 
L 335.557284 -358.681537 
L 335.457334 -358.983752 
L 335.374832 -359.285968 
L 335.310793 -359.588183 
L 335.266145 -359.890399 
L 335.241722 -360.192614 
L 335.238255 -360.494829 
L 335.256369 -360.797045 
L 335.296584 -361.09926 
L 335.359304 -361.401476 
L 335.444824 -361.703691 
L 335.553322 -362.005907 
L 335.684863 -362.308122 
L 335.839398 -362.610337 
L 336.016765 -362.912553 
L 336.216693 -363.214768 
L 336.438804 -363.516984 
L 336.682615 -363.819199 
L 336.947545 -364.121415 
L 337.232918 -364.42363 
L 337.537968 -364.725845 
L 337.861846 -365.028061 
L 338.203625 -365.330276 
L 338.562308 -365.632492 
L 338.936832 -365.934707 
L 339.326079 -366.236923 
L 339.72888 -366.539138 
L 373.062757 -366.539138 
L 373.062757 -366.539138 
L 373.465558 -366.236923 
L 373.854805 -365.934707 
L 374.229329 -365.632492 
L 374.588011 -365.330276 
L 374.92979 -365.028061 
L 375.253668 -364.725845 
L 375.558718 -364.42363 
L 375.844091 -364.121415 
L 376.109021 -363.819199 
L 376.352833 -363.516984 
L 376.574943 -363.214768 
L 376.774871 -362.912553 
L 376.952238 -362.610337 
L 377.106773 -362.308122 
L 377.238314 -362.005907 
L 377.346812 -361.703691 
L 377.432332 -361.401476 
L 377.495053 -361.09926 
L 377.535267 -360.797045 
L 377.553382 -360.494829 
L 377.549914 -360.192614 
L 377.525491 -359.890399 
L 377.480844 -359.588183 
L 377.416805 -359.285968 
L 377.334302 -358.983752 
L 377.234353 -358.681537 
L 377.118058 -358.379321 
L 376.986592 -358.077106 
L 376.841197 -357.774891 
L 376.683175 -357.472675 
L 376.513874 -357.17046 
L 376.334682 -356.868244 
L 376.147016 -356.566029 
L 375.95231 -356.263813 
L 375.752004 -355.961598 
L 375.547537 -355.659383 
L 375.34033 -355.357167 
L 375.131779 -355.054952 
L 374.923245 -354.752736 
L 374.716041 -354.450521 
L 374.511421 -354.148305 
L 374.310575 -353.84609 
L 374.114615 -353.543875 
L 373.924572 -353.241659 
L 373.741382 -352.939444 
L 373.565885 -352.637228 
L 373.398816 -352.335013 
L 373.240803 -352.032797 
L 373.092358 -351.730582 
L 372.953878 -351.428367 
L 372.825646 -351.126151 
L 372.707822 -350.823936 
L 372.600451 -350.52172 
L 372.503461 -350.219505 
L 372.416666 -349.917289 
L 372.33977 -349.615074 
L 372.272368 -349.312859 
L 372.213958 -349.010643 
L 372.163941 -348.708428 
L 372.12163 -348.406212 
L 372.08626 -348.103997 
L 372.05699 -347.801781 
L 372.03292 -347.499566 
L 372.013093 -347.197351 
L 371.996508 -346.895135 
L 371.982128 -346.59292 
L 371.968892 -346.290704 
L 371.955723 -345.988489 
L 371.941538 -345.686273 
L 371.925258 -345.384058 
L 371.905818 -345.081843 
L 371.882175 -344.779627 
L 371.853317 -344.477412 
L 371.818271 -344.175196 
L 371.776112 -343.872981 
L 371.725969 -343.570766 
L 371.66703 -343.26855 
L 371.598552 -342.966335 
L 371.519861 -342.664119 
L 371.430361 -342.361904 
L 371.329534 -342.059688 
L 371.216947 -341.757473 
L 371.092247 -341.455258 
L 370.955172 -341.153042 
L 370.805542 -340.850827 
L 370.643267 -340.548611 
L 370.468341 -340.246396 
L 370.280843 -339.94418 
L 370.080932 -339.641965 
L 369.86885 -339.33975 
L 369.644913 -339.037534 
L 369.409509 -338.735319 
L 369.163096 -338.433103 
L 368.906194 -338.130888 
L 368.639384 -337.828672 
L 368.363299 -337.526457 
L 368.078619 -337.224242 
L 367.78607 -336.922026 
L 367.48641 -336.619811 
z
" style="stroke: #ffffff; stroke-opacity: 0.6; stroke-width: 1.5"/>
    </defs>
    <g clip-path="url(#pff088b0ce7)">
     <use xlink:href="#me3ade9b31a" x="0" y="535.792969" style="fill: #888888; fill-opacity: 0.6; stroke: #ffffff; stroke-opacity: 0.6; stroke-width: 1.5"/>
    </g>
   </g>
   <g id="PolyCollection_6">
    <defs>
     <path id="m78e19bdf41" d="M 426.46609 -342.761824 
L 407.22591 -342.761824 
L 406.896564 -343.00136 
L 406.567174 -343.240896 
L 406.237778 -343.480432 
L 405.908367 -343.719969 
L 405.578886 -343.959505 
L 405.249252 -344.199041 
L 404.919352 -344.438578 
L 404.589061 -344.678114 
L 404.258254 -344.91765 
L 403.926814 -345.157187 
L 403.594646 -345.396723 
L 403.261693 -345.636259 
L 402.927946 -345.875796 
L 402.593456 -346.115332 
L 402.258345 -346.354868 
L 401.922819 -346.594404 
L 401.587175 -346.833941 
L 401.251806 -347.073477 
L 400.917208 -347.313013 
L 400.583984 -347.55255 
L 400.252844 -347.792086 
L 399.924599 -348.031622 
L 399.600166 -348.271159 
L 399.280549 -348.510695 
L 398.966843 -348.750231 
L 398.660212 -348.989767 
L 398.361882 -349.229304 
L 398.073124 -349.46884 
L 397.795239 -349.708376 
L 397.529537 -349.947913 
L 397.277322 -350.187449 
L 397.03987 -350.426985 
L 396.818413 -350.666522 
L 396.61412 -350.906058 
L 396.428075 -351.145594 
L 396.261268 -351.38513 
L 396.11457 -351.624667 
L 395.988731 -351.864203 
L 395.884358 -352.103739 
L 395.801912 -352.343276 
L 395.741703 -352.582812 
L 395.70388 -352.822348 
L 395.688436 -353.061885 
L 395.695207 -353.301421 
L 395.723875 -353.540957 
L 395.773977 -353.780493 
L 395.844913 -354.02003 
L 395.935958 -354.259566 
L 396.046271 -354.499102 
L 396.174917 -354.738639 
L 396.320873 -354.978175 
L 396.483054 -355.217711 
L 396.660323 -355.457248 
L 396.851509 -355.696784 
L 397.055426 -355.93632 
L 397.270889 -356.175857 
L 397.496726 -356.415393 
L 397.731796 -356.654929 
L 397.974999 -356.894465 
L 398.225288 -357.134002 
L 398.48168 -357.373538 
L 398.74326 -357.613074 
L 399.009189 -357.852611 
L 399.278711 -358.092147 
L 399.551148 -358.331683 
L 399.825907 -358.57122 
L 400.102475 -358.810756 
L 400.380419 -359.050292 
L 400.65938 -359.289828 
L 400.939068 -359.529365 
L 401.219261 -359.768901 
L 401.49979 -360.008437 
L 401.780541 -360.247974 
L 402.061441 -360.48751 
L 402.342456 -360.727046 
L 402.62358 -360.966583 
L 402.904831 -361.206119 
L 403.186242 -361.445655 
L 403.467859 -361.685191 
L 403.749731 -361.924728 
L 404.031908 -362.164264 
L 404.314435 -362.4038 
L 404.597351 -362.643337 
L 404.880682 -362.882873 
L 405.164445 -363.122409 
L 405.448638 -363.361946 
L 405.733245 -363.601482 
L 406.01823 -363.841018 
L 406.303542 -364.080555 
L 406.589109 -364.320091 
L 406.87484 -364.559627 
L 407.160626 -364.799163 
L 407.446339 -365.0387 
L 407.731831 -365.278236 
L 408.016935 -365.517772 
L 408.301468 -365.757309 
L 408.585228 -365.996845 
L 408.867995 -366.236381 
L 409.149532 -366.475918 
L 424.542468 -366.475918 
L 424.542468 -366.475918 
L 424.824005 -366.236381 
L 425.106772 -365.996845 
L 425.390532 -365.757309 
L 425.675065 -365.517772 
L 425.960169 -365.278236 
L 426.245661 -365.0387 
L 426.531374 -364.799163 
L 426.81716 -364.559627 
L 427.102891 -364.320091 
L 427.388458 -364.080555 
L 427.67377 -363.841018 
L 427.958755 -363.601482 
L 428.243362 -363.361946 
L 428.527555 -363.122409 
L 428.811318 -362.882873 
L 429.094649 -362.643337 
L 429.377565 -362.4038 
L 429.660092 -362.164264 
L 429.942269 -361.924728 
L 430.224141 -361.685191 
L 430.505758 -361.445655 
L 430.787169 -361.206119 
L 431.06842 -360.966583 
L 431.349544 -360.727046 
L 431.630559 -360.48751 
L 431.911459 -360.247974 
L 432.19221 -360.008437 
L 432.472739 -359.768901 
L 432.752932 -359.529365 
L 433.03262 -359.289828 
L 433.311581 -359.050292 
L 433.589525 -358.810756 
L 433.866093 -358.57122 
L 434.140852 -358.331683 
L 434.413289 -358.092147 
L 434.682811 -357.852611 
L 434.94874 -357.613074 
L 435.21032 -357.373538 
L 435.466712 -357.134002 
L 435.717001 -356.894465 
L 435.960204 -356.654929 
L 436.195274 -356.415393 
L 436.421111 -356.175857 
L 436.636574 -355.93632 
L 436.840491 -355.696784 
L 437.031677 -355.457248 
L 437.208946 -355.217711 
L 437.371127 -354.978175 
L 437.517083 -354.738639 
L 437.645729 -354.499102 
L 437.756042 -354.259566 
L 437.847087 -354.02003 
L 437.918023 -353.780493 
L 437.968125 -353.540957 
L 437.996793 -353.301421 
L 438.003564 -353.061885 
L 437.98812 -352.822348 
L 437.950297 -352.582812 
L 437.890088 -352.343276 
L 437.807642 -352.103739 
L 437.703269 -351.864203 
L 437.57743 -351.624667 
L 437.430732 -351.38513 
L 437.263925 -351.145594 
L 437.07788 -350.906058 
L 436.873587 -350.666522 
L 436.65213 -350.426985 
L 436.414678 -350.187449 
L 436.162463 -349.947913 
L 435.896761 -349.708376 
L 435.618876 -349.46884 
L 435.330118 -349.229304 
L 435.031788 -348.989767 
L 434.725157 -348.750231 
L 434.411451 -348.510695 
L 434.091834 -348.271159 
L 433.767401 -348.031622 
L 433.439156 -347.792086 
L 433.108016 -347.55255 
L 432.774792 -347.313013 
L 432.440194 -347.073477 
L 432.104825 -346.833941 
L 431.769181 -346.594404 
L 431.433655 -346.354868 
L 431.098544 -346.115332 
L 430.764054 -345.875796 
L 430.430307 -345.636259 
L 430.097354 -345.396723 
L 429.765186 -345.157187 
L 429.433746 -344.91765 
L 429.102939 -344.678114 
L 428.772648 -344.438578 
L 428.442748 -344.199041 
L 428.113114 -343.959505 
L 427.783633 -343.719969 
L 427.454222 -343.480432 
L 427.124826 -343.240896 
L 426.795436 -343.00136 
L 426.46609 -342.761824 
z
" style="stroke: #ffffff; stroke-opacity: 0.6; stroke-width: 1.5"/>
    </defs>
    <g clip-path="url(#pff088b0ce7)">
     <use xlink:href="#m78e19bdf41" x="0" y="535.792969" style="fill: #888888; fill-opacity: 0.6; stroke: #ffffff; stroke-opacity: 0.6; stroke-width: 1.5"/>
    </g>
   </g>
   <g id="PolyCollection_7">
    <defs>
     <path id="m1a2fe437ff" d="M 489.682971 -333.236071 
L 464.909393 -333.236071 
L 464.466924 -333.458324 
L 464.028376 -333.680576 
L 463.594627 -333.902828 
L 463.166511 -334.12508 
L 462.744819 -334.347333 
L 462.330297 -334.569585 
L 461.923649 -334.791837 
L 461.525541 -335.014089 
L 461.136605 -335.236341 
L 460.757444 -335.458594 
L 460.388639 -335.680846 
L 460.030756 -335.903098 
L 459.684354 -336.12535 
L 459.349989 -336.347603 
L 459.028227 -336.569855 
L 458.719644 -336.792107 
L 458.424838 -337.014359 
L 458.14443 -337.236611 
L 457.879071 -337.458864 
L 457.629441 -337.681116 
L 457.396253 -337.903368 
L 457.180248 -338.12562 
L 456.982196 -338.347872 
L 456.802888 -338.570125 
L 456.643133 -338.792377 
L 456.503743 -339.014629 
L 456.38553 -339.236881 
L 456.289288 -339.459134 
L 456.215784 -339.681386 
L 456.16574 -339.903638 
L 456.139822 -340.12589 
L 456.138618 -340.348142 
L 456.162631 -340.570395 
L 456.212256 -340.792647 
L 456.28777 -341.014899 
L 456.389316 -341.237151 
L 456.516892 -341.459403 
L 456.67034 -341.681656 
L 456.849339 -341.903908 
L 457.053398 -342.12616 
L 457.281852 -342.348412 
L 457.533863 -342.570665 
L 457.808418 -342.792917 
L 458.104341 -343.015169 
L 458.420294 -343.237421 
L 458.754791 -343.459673 
L 459.106208 -343.681926 
L 459.472801 -343.904178 
L 459.852723 -344.12643 
L 460.244041 -344.348682 
L 460.644758 -344.570935 
L 461.052837 -344.793187 
L 461.466216 -345.015439 
L 461.88284 -345.237691 
L 462.300675 -345.459943 
L 462.717736 -345.682196 
L 463.132104 -345.904448 
L 463.541948 -346.1267 
L 463.945541 -346.348952 
L 464.341282 -346.571204 
L 464.727702 -346.793457 
L 465.103482 -347.015709 
L 465.467462 -347.237961 
L 465.818647 -347.460213 
L 466.156213 -347.682466 
L 466.479506 -347.904718 
L 466.78805 -348.12697 
L 467.081535 -348.349222 
L 467.359819 -348.571474 
L 467.622921 -348.793727 
L 467.87101 -349.015979 
L 468.104397 -349.238231 
L 468.323526 -349.460483 
L 468.528957 -349.682735 
L 468.721358 -349.904988 
L 468.901488 -350.12724 
L 469.070188 -350.349492 
L 469.228359 -350.571744 
L 469.376955 -350.793997 
L 469.516967 -351.016249 
L 469.649408 -351.238501 
L 469.775304 -351.460753 
L 469.895676 -351.683005 
L 470.011535 -351.905258 
L 470.123867 -352.12751 
L 470.233624 -352.349762 
L 470.341716 -352.572014 
L 470.449005 -352.794267 
L 470.556293 -353.016519 
L 470.664322 -353.238771 
L 470.773763 -353.461023 
L 470.885217 -353.683275 
L 470.999211 -353.905528 
L 471.116192 -354.12778 
L 471.236531 -354.350032 
L 471.360518 -354.572284 
L 471.488367 -354.794536 
L 471.620211 -355.016789 
L 471.756109 -355.239041 
L 482.836255 -355.239041 
L 482.836255 -355.239041 
L 482.972153 -355.016789 
L 483.103997 -354.794536 
L 483.231845 -354.572284 
L 483.355833 -354.350032 
L 483.476172 -354.12778 
L 483.593153 -353.905528 
L 483.707146 -353.683275 
L 483.818601 -353.461023 
L 483.928042 -353.238771 
L 484.03607 -353.016519 
L 484.143359 -352.794267 
L 484.250647 -352.572014 
L 484.35874 -352.349762 
L 484.468497 -352.12751 
L 484.580829 -351.905258 
L 484.696687 -351.683005 
L 484.81706 -351.460753 
L 484.942955 -351.238501 
L 485.075397 -351.016249 
L 485.215409 -350.793997 
L 485.364005 -350.571744 
L 485.522176 -350.349492 
L 485.690875 -350.12724 
L 485.871006 -349.904988 
L 486.063407 -349.682735 
L 486.268838 -349.460483 
L 486.487966 -349.238231 
L 486.721354 -349.015979 
L 486.969442 -348.793727 
L 487.232544 -348.571474 
L 487.510829 -348.349222 
L 487.804314 -348.12697 
L 488.112857 -347.904718 
L 488.436151 -347.682466 
L 488.773716 -347.460213 
L 489.124901 -347.237961 
L 489.488881 -347.015709 
L 489.864662 -346.793457 
L 490.251082 -346.571204 
L 490.646822 -346.348952 
L 491.050416 -346.1267 
L 491.46026 -345.904448 
L 491.874628 -345.682196 
L 492.291688 -345.459943 
L 492.709524 -345.237691 
L 493.126147 -345.015439 
L 493.539527 -344.793187 
L 493.947605 -344.570935 
L 494.348323 -344.348682 
L 494.739641 -344.12643 
L 495.119563 -343.904178 
L 495.486156 -343.681926 
L 495.837573 -343.459673 
L 496.172069 -343.237421 
L 496.488022 -343.015169 
L 496.783946 -342.792917 
L 497.058501 -342.570665 
L 497.310511 -342.348412 
L 497.538965 -342.12616 
L 497.743024 -341.903908 
L 497.922024 -341.681656 
L 498.075472 -341.459403 
L 498.203048 -341.237151 
L 498.304594 -341.014899 
L 498.380107 -340.792647 
L 498.429733 -340.570395 
L 498.453745 -340.348142 
L 498.452542 -340.12589 
L 498.426623 -339.903638 
L 498.37658 -339.681386 
L 498.303076 -339.459134 
L 498.206834 -339.236881 
L 498.088621 -339.014629 
L 497.949231 -338.792377 
L 497.789475 -338.570125 
L 497.610168 -338.347872 
L 497.412116 -338.12562 
L 497.196111 -337.903368 
L 496.962922 -337.681116 
L 496.713292 -337.458864 
L 496.447934 -337.236611 
L 496.167526 -337.014359 
L 495.87272 -336.792107 
L 495.564137 -336.569855 
L 495.242374 -336.347603 
L 494.90801 -336.12535 
L 494.561607 -335.903098 
L 494.203725 -335.680846 
L 493.83492 -335.458594 
L 493.455759 -335.236341 
L 493.066822 -335.014089 
L 492.668714 -334.791837 
L 492.262067 -334.569585 
L 491.847544 -334.347333 
L 491.425852 -334.12508 
L 490.997737 -333.902828 
L 490.563988 -333.680576 
L 490.125439 -333.458324 
L 489.682971 -333.236071 
z
" style="stroke: #ffffff; stroke-opacity: 0.6; stroke-width: 1.5"/>
    </defs>
    <g clip-path="url(#pff088b0ce7)">
     <use xlink:href="#m1a2fe437ff" x="0" y="535.792969" style="fill: #888888; fill-opacity: 0.6; stroke: #ffffff; stroke-opacity: 0.6; stroke-width: 1.5"/>
    </g>
   </g>
   <g id="PolyCollection_8">
    <defs>
     <path id="m65b53cc9b9" d="M 547.16091 -328.234594 
L 528.331818 -328.234594 
L 528.005529 -328.513059 
L 527.685465 -328.791523 
L 527.372149 -329.069988 
L 527.06596 -329.348452 
L 526.767128 -329.626916 
L 526.475723 -329.905381 
L 526.191658 -330.183845 
L 525.914683 -330.462309 
L 525.644392 -330.740774 
L 525.380231 -331.019238 
L 525.121504 -331.297703 
L 524.867393 -331.576167 
L 524.616971 -331.854631 
L 524.369226 -332.133096 
L 524.12308 -332.41156 
L 523.87742 -332.690025 
L 523.631123 -332.968489 
L 523.38309 -333.246953 
L 523.132271 -333.525418 
L 522.877702 -333.803882 
L 522.618532 -334.082347 
L 522.35406 -334.360811 
L 522.083755 -334.639275 
L 521.807292 -334.91774 
L 521.52457 -335.196204 
L 521.235733 -335.474669 
L 520.941191 -335.753133 
L 520.641625 -336.031597 
L 520.338 -336.310062 
L 520.031564 -336.588526 
L 519.72384 -336.866991 
L 519.416625 -337.145455 
L 519.111965 -337.423919 
L 518.812141 -337.702384 
L 518.519638 -337.980848 
L 518.237114 -338.259313 
L 517.967367 -338.537777 
L 517.713292 -338.816241 
L 517.477838 -339.094706 
L 517.263965 -339.37317 
L 517.074593 -339.651635 
L 516.912556 -339.930099 
L 516.780556 -340.208563 
L 516.681111 -340.487028 
L 516.616517 -340.765492 
L 516.5888 -341.043957 
L 516.599682 -341.322421 
L 516.650547 -341.600885 
L 516.742411 -341.87935 
L 516.875898 -342.157814 
L 517.051229 -342.436279 
L 517.268207 -342.714743 
L 517.526216 -342.993207 
L 517.824222 -343.271672 
L 518.160788 -343.550136 
L 518.534086 -343.828601 
L 518.941923 -344.107065 
L 519.381767 -344.385529 
L 519.850785 -344.663994 
L 520.345875 -344.942458 
L 520.863716 -345.220922 
L 521.400805 -345.499387 
L 521.953511 -345.777851 
L 522.518118 -346.056316 
L 523.09088 -346.33478 
L 523.668063 -346.613244 
L 524.245999 -346.891709 
L 524.821125 -347.170173 
L 525.390031 -347.448638 
L 525.949497 -347.727102 
L 526.496527 -348.005566 
L 527.028384 -348.284031 
L 527.542612 -348.562495 
L 528.037059 -348.84096 
L 528.509895 -349.119424 
L 528.959617 -349.397888 
L 529.385062 -349.676353 
L 529.785401 -349.954817 
L 530.160134 -350.233282 
L 530.509087 -350.511746 
L 530.83239 -350.79021 
L 531.130465 -351.068675 
L 531.404 -351.347139 
L 531.653929 -351.625604 
L 531.8814 -351.904068 
L 532.087752 -352.182532 
L 532.274479 -352.460997 
L 532.443202 -352.739461 
L 532.595636 -353.017926 
L 532.733562 -353.29639 
L 532.858791 -353.574854 
L 532.97314 -353.853319 
L 533.0784 -354.131783 
L 533.176313 -354.410248 
L 533.268549 -354.688712 
L 533.356681 -354.967176 
L 533.442173 -355.245641 
L 533.526359 -355.524105 
L 533.610436 -355.80257 
L 541.882292 -355.80257 
L 541.882292 -355.80257 
L 541.966368 -355.524105 
L 542.050554 -355.245641 
L 542.136046 -354.967176 
L 542.224178 -354.688712 
L 542.316414 -354.410248 
L 542.414327 -354.131783 
L 542.519587 -353.853319 
L 542.633936 -353.574854 
L 542.759165 -353.29639 
L 542.897091 -353.017926 
L 543.049526 -352.739461 
L 543.218248 -352.460997 
L 543.404975 -352.182532 
L 543.611327 -351.904068 
L 543.838798 -351.625604 
L 544.088727 -351.347139 
L 544.362262 -351.068675 
L 544.660337 -350.79021 
L 544.98364 -350.511746 
L 545.332593 -350.233282 
L 545.707327 -349.954817 
L 546.107665 -349.676353 
L 546.53311 -349.397888 
L 546.982833 -349.119424 
L 547.455668 -348.84096 
L 547.950116 -348.562495 
L 548.464344 -348.284031 
L 548.9962 -348.005566 
L 549.543231 -347.727102 
L 550.102696 -347.448638 
L 550.671602 -347.170173 
L 551.246728 -346.891709 
L 551.824664 -346.613244 
L 552.401847 -346.33478 
L 552.974609 -346.056316 
L 553.539216 -345.777851 
L 554.091922 -345.499387 
L 554.629011 -345.220922 
L 555.146852 -344.942458 
L 555.641943 -344.663994 
L 556.11096 -344.385529 
L 556.550805 -344.107065 
L 556.958641 -343.828601 
L 557.33194 -343.550136 
L 557.668505 -343.271672 
L 557.966512 -342.993207 
L 558.22452 -342.714743 
L 558.441498 -342.436279 
L 558.616829 -342.157814 
L 558.750317 -341.87935 
L 558.84218 -341.600885 
L 558.893045 -341.322421 
L 558.903927 -341.043957 
L 558.87621 -340.765492 
L 558.811616 -340.487028 
L 558.712171 -340.208563 
L 558.580171 -339.930099 
L 558.418134 -339.651635 
L 558.228762 -339.37317 
L 558.014889 -339.094706 
L 557.779435 -338.816241 
L 557.52536 -338.537777 
L 557.255613 -338.259313 
L 556.97309 -337.980848 
L 556.680586 -337.702384 
L 556.380762 -337.423919 
L 556.076102 -337.145455 
L 555.768887 -336.866991 
L 555.461164 -336.588526 
L 555.154727 -336.310062 
L 554.851102 -336.031597 
L 554.551536 -335.753133 
L 554.256994 -335.474669 
L 553.968157 -335.196204 
L 553.685435 -334.91774 
L 553.408972 -334.639275 
L 553.138667 -334.360811 
L 552.874195 -334.082347 
L 552.615026 -333.803882 
L 552.360456 -333.525418 
L 552.109637 -333.246953 
L 551.861604 -332.968489 
L 551.615308 -332.690025 
L 551.369648 -332.41156 
L 551.123501 -332.133096 
L 550.875756 -331.854631 
L 550.625334 -331.576167 
L 550.371223 -331.297703 
L 550.112497 -331.019238 
L 549.848335 -330.740774 
L 549.578044 -330.462309 
L 549.301069 -330.183845 
L 549.017004 -329.905381 
L 548.7256 -329.626916 
L 548.426767 -329.348452 
L 548.120579 -329.069988 
L 547.807262 -328.791523 
L 547.487198 -328.513059 
L 547.16091 -328.234594 
z
" style="stroke: #ffffff; stroke-opacity: 0.6; stroke-width: 1.5"/>
    </defs>
    <g clip-path="url(#pff088b0ce7)">
     <use xlink:href="#m65b53cc9b9" x="0" y="535.792969" style="fill: #888888; fill-opacity: 0.6; stroke: #ffffff; stroke-opacity: 0.6; stroke-width: 1.5"/>
    </g>
   </g>
   <g id="PolyCollection_9">
    <defs>
     <path id="m162918c153" d="M 607.423053 -324.001711 
L 588.970038 -324.001711 
L 588.840573 -324.189188 
L 588.719601 -324.376664 
L 588.607128 -324.564141 
L 588.503103 -324.751618 
L 588.407407 -324.939094 
L 588.319861 -325.126571 
L 588.240223 -325.314047 
L 588.168189 -325.501524 
L 588.103395 -325.689 
L 588.04542 -325.876477 
L 587.993786 -326.063954 
L 587.947965 -326.25143 
L 587.907376 -326.438907 
L 587.871394 -326.626383 
L 587.839353 -326.81386 
L 587.810547 -327.001337 
L 587.784241 -327.188813 
L 587.759668 -327.37629 
L 587.736042 -327.563766 
L 587.712556 -327.751243 
L 587.688395 -327.938719 
L 587.662736 -328.126196 
L 587.634754 -328.313673 
L 587.603632 -328.501149 
L 587.568563 -328.688626 
L 587.528755 -328.876102 
L 587.483441 -329.063579 
L 587.43188 -329.251056 
L 587.373365 -329.438532 
L 587.307227 -329.626009 
L 587.23284 -329.813485 
L 587.149628 -330.000962 
L 587.057065 -330.188438 
L 586.954683 -330.375915 
L 586.842073 -330.563392 
L 586.718892 -330.750868 
L 586.584861 -330.938345 
L 586.439772 -331.125821 
L 586.283488 -331.313298 
L 586.115947 -331.500774 
L 585.93716 -331.688251 
L 585.747212 -331.875728 
L 585.546268 -332.063204 
L 585.334564 -332.250681 
L 585.112416 -332.438157 
L 584.880211 -332.625634 
L 584.638411 -332.813111 
L 584.387547 -333.000587 
L 584.12822 -333.188064 
L 583.861098 -333.37554 
L 583.58691 -333.563017 
L 583.306447 -333.750493 
L 583.020553 -333.93797 
L 582.730127 -334.125447 
L 582.436113 -334.312923 
L 582.1395 -334.5004 
L 581.841312 -334.687876 
L 581.542611 -334.875353 
L 581.244483 -335.06283 
L 580.948039 -335.250306 
L 580.654406 -335.437783 
L 580.364724 -335.625259 
L 580.080139 -335.812736 
L 579.8018 -336.000212 
L 579.530849 -336.187689 
L 579.268421 -336.375166 
L 579.015636 -336.562642 
L 578.773592 -336.750119 
L 578.543363 -336.937595 
L 578.325994 -337.125072 
L 578.122495 -337.312549 
L 577.933836 -337.500025 
L 577.760943 -337.687502 
L 577.604695 -337.874978 
L 577.465919 -338.062455 
L 577.345384 -338.249931 
L 577.243803 -338.437408 
L 577.161824 -338.624885 
L 577.10003 -338.812361 
L 577.058935 -338.999838 
L 577.038982 -339.187314 
L 577.04054 -339.374791 
L 577.063905 -339.562268 
L 577.109292 -339.749744 
L 577.176841 -339.937221 
L 577.266611 -340.124697 
L 577.378581 -340.312174 
L 577.51265 -340.49965 
L 577.668636 -340.687127 
L 577.846277 -340.874604 
L 578.045234 -341.06208 
L 578.265087 -341.249557 
L 578.505342 -341.437033 
L 578.765429 -341.62451 
L 579.044707 -341.811987 
L 579.342466 -341.999463 
L 579.65793 -342.18694 
L 579.990259 -342.374416 
L 580.338558 -342.561893 
L 616.054533 -342.561893 
L 616.054533 -342.561893 
L 616.402832 -342.374416 
L 616.735161 -342.18694 
L 617.050625 -341.999463 
L 617.348384 -341.811987 
L 617.627662 -341.62451 
L 617.887749 -341.437033 
L 618.128004 -341.249557 
L 618.347857 -341.06208 
L 618.546814 -340.874604 
L 618.724455 -340.687127 
L 618.880441 -340.49965 
L 619.01451 -340.312174 
L 619.12648 -340.124697 
L 619.21625 -339.937221 
L 619.283799 -339.749744 
L 619.329186 -339.562268 
L 619.352551 -339.374791 
L 619.354109 -339.187314 
L 619.334156 -338.999838 
L 619.293061 -338.812361 
L 619.231267 -338.624885 
L 619.149288 -338.437408 
L 619.047707 -338.249931 
L 618.927172 -338.062455 
L 618.788396 -337.874978 
L 618.632148 -337.687502 
L 618.459255 -337.500025 
L 618.270596 -337.312549 
L 618.067097 -337.125072 
L 617.849728 -336.937595 
L 617.619499 -336.750119 
L 617.377455 -336.562642 
L 617.124669 -336.375166 
L 616.862242 -336.187689 
L 616.591291 -336.000212 
L 616.312952 -335.812736 
L 616.028367 -335.625259 
L 615.738685 -335.437783 
L 615.445052 -335.250306 
L 615.148608 -335.06283 
L 614.85048 -334.875353 
L 614.551778 -334.687876 
L 614.253591 -334.5004 
L 613.956978 -334.312923 
L 613.662964 -334.125447 
L 613.372538 -333.93797 
L 613.086644 -333.750493 
L 612.80618 -333.563017 
L 612.531993 -333.37554 
L 612.264871 -333.188064 
L 612.005544 -333.000587 
L 611.75468 -332.813111 
L 611.51288 -332.625634 
L 611.280675 -332.438157 
L 611.058527 -332.250681 
L 610.846823 -332.063204 
L 610.645879 -331.875728 
L 610.455931 -331.688251 
L 610.277144 -331.500774 
L 610.109602 -331.313298 
L 609.953319 -331.125821 
L 609.80823 -330.938345 
L 609.674199 -330.750868 
L 609.551018 -330.563392 
L 609.438408 -330.375915 
L 609.336026 -330.188438 
L 609.243463 -330.000962 
L 609.160251 -329.813485 
L 609.085864 -329.626009 
L 609.019726 -329.438532 
L 608.961211 -329.251056 
L 608.90965 -329.063579 
L 608.864336 -328.876102 
L 608.824528 -328.688626 
L 608.789459 -328.501149 
L 608.758337 -328.313673 
L 608.730355 -328.126196 
L 608.704696 -327.938719 
L 608.680535 -327.751243 
L 608.657049 -327.563766 
L 608.633423 -327.37629 
L 608.60885 -327.188813 
L 608.582544 -327.001337 
L 608.553738 -326.81386 
L 608.521697 -326.626383 
L 608.485715 -326.438907 
L 608.445126 -326.25143 
L 608.399304 -326.063954 
L 608.347671 -325.876477 
L 608.289696 -325.689 
L 608.224902 -325.501524 
L 608.152868 -325.314047 
L 608.07323 -325.126571 
L 607.985684 -324.939094 
L 607.889988 -324.751618 
L 607.785962 -324.564141 
L 607.67349 -324.376664 
L 607.552518 -324.189188 
L 607.423053 -324.001711 
z
" style="stroke: #ffffff; stroke-opacity: 0.6; stroke-width: 1.5"/>
    </defs>
    <g clip-path="url(#pff088b0ce7)">
     <use xlink:href="#m162918c153" x="0" y="535.792969" style="fill: #888888; fill-opacity: 0.6; stroke: #ffffff; stroke-opacity: 0.6; stroke-width: 1.5"/>
    </g>
   </g>
   <g id="PolyCollection_10">
    <defs>
     <path id="mbd78ea0de6" d="M 673.925566 -320.638511 
L 643.367888 -320.638511 
L 642.810613 -321.036262 
L 642.269523 -321.434013 
L 641.747204 -321.831764 
L 641.246149 -322.229515 
L 640.76874 -322.627267 
L 640.317222 -323.025018 
L 639.893687 -323.422769 
L 639.500057 -323.82052 
L 639.138069 -324.218271 
L 638.809266 -324.616022 
L 638.514981 -325.013774 
L 638.256342 -325.411525 
L 638.034258 -325.809276 
L 637.849424 -326.207027 
L 637.702325 -326.604778 
L 637.593232 -327.002529 
L 637.522219 -327.400281 
L 637.489164 -327.798032 
L 637.493759 -328.195783 
L 637.535528 -328.593534 
L 637.61383 -328.991285 
L 637.727878 -329.389036 
L 637.87675 -329.786788 
L 638.0594 -330.184539 
L 638.274674 -330.58229 
L 638.521319 -330.980041 
L 638.797994 -331.377792 
L 639.103285 -331.775543 
L 639.435708 -332.173295 
L 639.793721 -332.571046 
L 640.175731 -332.968797 
L 640.580101 -333.366548 
L 641.005153 -333.764299 
L 641.449176 -334.162051 
L 641.910428 -334.559802 
L 642.387142 -334.957553 
L 642.877528 -335.355304 
L 643.379776 -335.753055 
L 643.892063 -336.150806 
L 644.412554 -336.548558 
L 644.939406 -336.946309 
L 645.470776 -337.34406 
L 646.004824 -337.741811 
L 646.53972 -338.139562 
L 647.07365 -338.537313 
L 647.604825 -338.935065 
L 648.131488 -339.332816 
L 648.651921 -339.730567 
L 649.164454 -340.128318 
L 649.667478 -340.526069 
L 650.159447 -340.92382 
L 650.638893 -341.321572 
L 651.10443 -341.719323 
L 651.554765 -342.117074 
L 651.988702 -342.514825 
L 652.405154 -342.912576 
L 652.803144 -343.310328 
L 653.181813 -343.708079 
L 653.540421 -344.10583 
L 653.878354 -344.503581 
L 654.195124 -344.901332 
L 654.490367 -345.299083 
L 654.76385 -345.696835 
L 655.015462 -346.094586 
L 655.245217 -346.492337 
L 655.453251 -346.890088 
L 655.639817 -347.287839 
L 655.805279 -347.68559 
L 655.950114 -348.083342 
L 656.074898 -348.481093 
L 656.180307 -348.878844 
L 656.267106 -349.276595 
L 656.336148 -349.674346 
L 656.388362 -350.072097 
L 656.424749 -350.469849 
L 656.446373 -350.8676 
L 656.454357 -351.265351 
L 656.44987 -351.663102 
L 656.434123 -352.060853 
L 656.408361 -352.458604 
L 656.373852 -352.856356 
L 656.33188 -353.254107 
L 656.283738 -353.651858 
L 656.230715 -354.049609 
L 656.17409 -354.44736 
L 656.115123 -354.845112 
L 656.055044 -355.242863 
L 655.995043 -355.640614 
L 655.936266 -356.038365 
L 655.879801 -356.436116 
L 655.82667 -356.833867 
L 655.777824 -357.231619 
L 655.734133 -357.62937 
L 655.696383 -358.027121 
L 655.665264 -358.424872 
L 655.641371 -358.822623 
L 655.625196 -359.220374 
L 655.617129 -359.618126 
L 655.617454 -360.015877 
L 661.676001 -360.015877 
L 661.676001 -360.015877 
L 661.676325 -359.618126 
L 661.668258 -359.220374 
L 661.652083 -358.822623 
L 661.62819 -358.424872 
L 661.597071 -358.027121 
L 661.559321 -357.62937 
L 661.515631 -357.231619 
L 661.466785 -356.833867 
L 661.413654 -356.436116 
L 661.357188 -356.038365 
L 661.298411 -355.640614 
L 661.238411 -355.242863 
L 661.178332 -354.845112 
L 661.119365 -354.44736 
L 661.06274 -354.049609 
L 661.009717 -353.651858 
L 660.961575 -353.254107 
L 660.919603 -352.856356 
L 660.885094 -352.458604 
L 660.859332 -352.060853 
L 660.843585 -351.663102 
L 660.839098 -351.265351 
L 660.847081 -350.8676 
L 660.868706 -350.469849 
L 660.905092 -350.072097 
L 660.957306 -349.674346 
L 661.026348 -349.276595 
L 661.113148 -348.878844 
L 661.218556 -348.481093 
L 661.34334 -348.083342 
L 661.488175 -347.68559 
L 661.653638 -347.287839 
L 661.840203 -346.890088 
L 662.048237 -346.492337 
L 662.277993 -346.094586 
L 662.529605 -345.696835 
L 662.803087 -345.299083 
L 663.098331 -344.901332 
L 663.4151 -344.503581 
L 663.753034 -344.10583 
L 664.111642 -343.708079 
L 664.49031 -343.310328 
L 664.8883 -342.912576 
L 665.304752 -342.514825 
L 665.73869 -342.117074 
L 666.189024 -341.719323 
L 666.654561 -341.321572 
L 667.134007 -340.92382 
L 667.625977 -340.526069 
L 668.129 -340.128318 
L 668.641534 -339.730567 
L 669.161966 -339.332816 
L 669.688629 -338.935065 
L 670.219804 -338.537313 
L 670.753735 -338.139562 
L 671.288631 -337.741811 
L 671.822679 -337.34406 
L 672.354049 -336.946309 
L 672.880901 -336.548558 
L 673.401391 -336.150806 
L 673.913679 -335.753055 
L 674.415927 -335.355304 
L 674.906313 -334.957553 
L 675.383027 -334.559802 
L 675.844279 -334.162051 
L 676.288302 -333.764299 
L 676.713354 -333.366548 
L 677.117723 -332.968797 
L 677.499733 -332.571046 
L 677.857746 -332.173295 
L 678.190169 -331.775543 
L 678.49546 -331.377792 
L 678.772136 -330.980041 
L 679.01878 -330.58229 
L 679.234054 -330.184539 
L 679.416705 -329.786788 
L 679.565576 -329.389036 
L 679.679625 -328.991285 
L 679.757927 -328.593534 
L 679.799695 -328.195783 
L 679.804291 -327.798032 
L 679.771235 -327.400281 
L 679.700222 -327.002529 
L 679.59113 -326.604778 
L 679.44403 -326.207027 
L 679.259197 -325.809276 
L 679.037113 -325.411525 
L 678.778473 -325.013774 
L 678.484189 -324.616022 
L 678.155385 -324.218271 
L 677.793398 -323.82052 
L 677.399768 -323.422769 
L 676.976233 -323.025018 
L 676.524715 -322.627267 
L 676.047305 -322.229515 
L 675.546251 -321.831764 
L 675.023932 -321.434013 
L 674.482842 -321.036262 
L 673.925566 -320.638511 
z
" style="stroke: #ffffff; stroke-opacity: 0.6; stroke-width: 1.5"/>
    </defs>
    <g clip-path="url(#pff088b0ce7)">
     <use xlink:href="#mbd78ea0de6" x="0" y="535.792969" style="fill: #888888; fill-opacity: 0.6; stroke: #ffffff; stroke-opacity: 0.6; stroke-width: 1.5"/>
    </g>
   </g>
   <g id="PolyCollection_11">
    <defs>
     <path id="m89ccadc168" d="M 737.538172 -335.511367 
L 700.655646 -335.511367 
L 700.306703 -335.913604 
L 699.978337 -336.315842 
L 699.671642 -336.718079 
L 699.387621 -337.120317 
L 699.127178 -337.522554 
L 698.891117 -337.924792 
L 698.680131 -338.327029 
L 698.494802 -338.729267 
L 698.335597 -339.131504 
L 698.202861 -339.533742 
L 698.096823 -339.935979 
L 698.017588 -340.338217 
L 697.965141 -340.740454 
L 697.939345 -341.142692 
L 697.939947 -341.544929 
L 697.966573 -341.947167 
L 698.018741 -342.349404 
L 698.095855 -342.751642 
L 698.197217 -343.153879 
L 698.322029 -343.556117 
L 698.469397 -343.958354 
L 698.638343 -344.360592 
L 698.827804 -344.762829 
L 699.036647 -345.165067 
L 699.263671 -345.567304 
L 699.507617 -345.969542 
L 699.767176 -346.371779 
L 700.040996 -346.774017 
L 700.327692 -347.176254 
L 700.625853 -347.578492 
L 700.93405 -347.980729 
L 701.250845 -348.382967 
L 701.574799 -348.785205 
L 701.904479 -349.187442 
L 702.238467 -349.58968 
L 702.575365 -349.991917 
L 702.913806 -350.394155 
L 703.252455 -350.796392 
L 703.590021 -351.19863 
L 703.92526 -351.600867 
L 704.25698 -352.003105 
L 704.584047 -352.405342 
L 704.905392 -352.80758 
L 705.220009 -353.209817 
L 705.526965 -353.612055 
L 705.825399 -354.014292 
L 706.114528 -354.41653 
L 706.393644 -354.818767 
L 706.662122 -355.221005 
L 706.919417 -355.623242 
L 707.165067 -356.02548 
L 707.39869 -356.427717 
L 707.619988 -356.829955 
L 707.828744 -357.232192 
L 708.024821 -357.63443 
L 708.208162 -358.036667 
L 708.378788 -358.438905 
L 708.536793 -358.841142 
L 708.682346 -359.24338 
L 708.815686 -359.645617 
L 708.937119 -360.047855 
L 709.047013 -360.450092 
L 709.145799 -360.85233 
L 709.233964 -361.254567 
L 709.312046 -361.656805 
L 709.380632 -362.059043 
L 709.440355 -362.46128 
L 709.491886 -362.863518 
L 709.535931 -363.265755 
L 709.573226 -363.667993 
L 709.604534 -364.07023 
L 709.630639 -364.472468 
L 709.652338 -364.874705 
L 709.670441 -365.276943 
L 709.685766 -365.67918 
L 709.699127 -366.081418 
L 709.71134 -366.483655 
L 709.723207 -366.885893 
L 709.73552 -367.28813 
L 709.749054 -367.690368 
L 709.764557 -368.092605 
L 709.782754 -368.494843 
L 709.804338 -368.89708 
L 709.829967 -369.299318 
L 709.860259 -369.701555 
L 709.89579 -370.103793 
L 709.937092 -370.50603 
L 709.984647 -370.908268 
L 710.038887 -371.310505 
L 710.100188 -371.712743 
L 710.168874 -372.11498 
L 710.245211 -372.517218 
L 710.329406 -372.919455 
L 710.421608 -373.321693 
L 710.521908 -373.72393 
L 710.630337 -374.126168 
L 710.74687 -374.528405 
L 710.871421 -374.930643 
L 711.003851 -375.332881 
L 727.189967 -375.332881 
L 727.189967 -375.332881 
L 727.322398 -374.930643 
L 727.446949 -374.528405 
L 727.563481 -374.126168 
L 727.67191 -373.72393 
L 727.77221 -373.321693 
L 727.864413 -372.919455 
L 727.948607 -372.517218 
L 728.024944 -372.11498 
L 728.09363 -371.712743 
L 728.154932 -371.310505 
L 728.209171 -370.908268 
L 728.256726 -370.50603 
L 728.298028 -370.103793 
L 728.333559 -369.701555 
L 728.363851 -369.299318 
L 728.38948 -368.89708 
L 728.411064 -368.494843 
L 728.429261 -368.092605 
L 728.444765 -367.690368 
L 728.458298 -367.28813 
L 728.470611 -366.885893 
L 728.482479 -366.483655 
L 728.494691 -366.081418 
L 728.508053 -365.67918 
L 728.523377 -365.276943 
L 728.54148 -364.874705 
L 728.563179 -364.472468 
L 728.589284 -364.07023 
L 728.620592 -363.667993 
L 728.657887 -363.265755 
L 728.701932 -362.863518 
L 728.753463 -362.46128 
L 728.813186 -362.059043 
L 728.881773 -361.656805 
L 728.959854 -361.254567 
L 729.048019 -360.85233 
L 729.146805 -360.450092 
L 729.256699 -360.047855 
L 729.378132 -359.645617 
L 729.511472 -359.24338 
L 729.657025 -358.841142 
L 729.81503 -358.438905 
L 729.985656 -358.036667 
L 730.168997 -357.63443 
L 730.365075 -357.232192 
L 730.57383 -356.829955 
L 730.795128 -356.427717 
L 731.028751 -356.02548 
L 731.274401 -355.623242 
L 731.531696 -355.221005 
L 731.800174 -354.818767 
L 732.079291 -354.41653 
L 732.368419 -354.014292 
L 732.666853 -353.612055 
L 732.973809 -353.209817 
L 733.288426 -352.80758 
L 733.609771 -352.405342 
L 733.936839 -352.003105 
L 734.268558 -351.600867 
L 734.603797 -351.19863 
L 734.941363 -350.796392 
L 735.280012 -350.394155 
L 735.618453 -349.991917 
L 735.955351 -349.58968 
L 736.289339 -349.187442 
L 736.619019 -348.785205 
L 736.942973 -348.382967 
L 737.259768 -347.980729 
L 737.567965 -347.578492 
L 737.866126 -347.176254 
L 738.152822 -346.774017 
L 738.426642 -346.371779 
L 738.686201 -345.969542 
L 738.930147 -345.567304 
L 739.157171 -345.165067 
L 739.366014 -344.762829 
L 739.555476 -344.360592 
L 739.724421 -343.958354 
L 739.871789 -343.556117 
L 739.996601 -343.153879 
L 740.097963 -342.751642 
L 740.175077 -342.349404 
L 740.227245 -341.947167 
L 740.253872 -341.544929 
L 740.254473 -341.142692 
L 740.228677 -340.740454 
L 740.17623 -340.338217 
L 740.096995 -339.935979 
L 739.990957 -339.533742 
L 739.858221 -339.131504 
L 739.699016 -338.729267 
L 739.513687 -338.327029 
L 739.302701 -337.924792 
L 739.06664 -337.522554 
L 738.806198 -337.120317 
L 738.522176 -336.718079 
L 738.215481 -336.315842 
L 737.887115 -335.913604 
L 737.538172 -335.511367 
z
" style="stroke: #ffffff; stroke-opacity: 0.6; stroke-width: 1.5"/>
    </defs>
    <g clip-path="url(#pff088b0ce7)">
     <use xlink:href="#m89ccadc168" x="0" y="535.792969" style="fill: #888888; fill-opacity: 0.6; stroke: #ffffff; stroke-opacity: 0.6; stroke-width: 1.5"/>
    </g>
   </g>
   <g id="matplotlib.axis_1">
    <g id="xtick_1">
     <g id="line2d_1">
      <path d="M 114.595091 463.785156 
L 114.595091 16.505156 
" clip-path="url(#pff088b0ce7)" style="fill: none; stroke-dasharray: 1.85,0.8; stroke-dashoffset: 0; stroke: #ffffff; stroke-opacity: 0.3; stroke-width: 0.5"/>
     </g>
     <g id="line2d_2">
      <defs>
       <path id="m737681bab9" d="M 0 0 
L 0 3.5 
" style="stroke: #ffffff; stroke-width: 0.8"/>
      </defs>
      <g>
       <use xlink:href="#m737681bab9" x="114.595091" y="463.785156" style="fill: #ffffff; stroke: #ffffff; stroke-width: 0.8"/>
      </g>
     </g>
     <g id="text_1">
      <text style="fill: #ffffff; font: 26px 'Arial', sans-serif; text-anchor: middle" x="114.595091" y="489.395469" transform="rotate(-0 114.595091 489.395469)">0</text>
     </g>
    </g>
    <g id="xtick_2">
     <g id="line2d_3">
      <path d="M 175.045273 463.785156 
L 175.045273 16.505156 
" clip-path="url(#pff088b0ce7)" style="fill: none; stroke-dasharray: 1.85,0.8; stroke-dashoffset: 0; stroke: #ffffff; stroke-opacity: 0.3; stroke-width: 0.5"/>
     </g>
     <g id="line2d_4">
      <g>
       <use xlink:href="#m737681bab9" x="175.045273" y="463.785156" style="fill: #ffffff; stroke: #ffffff; stroke-width: 0.8"/>
      </g>
     </g>
     <g id="text_2">
      <text style="fill: #ffffff; font: 26px 'Arial', sans-serif; text-anchor: middle" x="175.045273" y="489.395469" transform="rotate(-0 175.045273 489.395469)">1</text>
     </g>
    </g>
    <g id="xtick_3">
     <g id="line2d_5">
      <path d="M 235.495455 463.785156 
L 235.495455 16.505156 
" clip-path="url(#pff088b0ce7)" style="fill: none; stroke-dasharray: 1.85,0.8; stroke-dashoffset: 0; stroke: #ffffff; stroke-opacity: 0.3; stroke-width: 0.5"/>
     </g>
     <g id="line2d_6">
      <g>
       <use xlink:href="#m737681bab9" x="235.495455" y="463.785156" style="fill: #ffffff; stroke: #ffffff; stroke-width: 0.8"/>
      </g>
     </g>
     <g id="text_3">
      <text style="fill: #ffffff; font: 26px 'Arial', sans-serif; text-anchor: middle" x="235.495455" y="489.395469" transform="rotate(-0 235.495455 489.395469)">2</text>
     </g>
    </g>
    <g id="xtick_4">
     <g id="line2d_7">
      <path d="M 295.945636 463.785156 
L 295.945636 16.505156 
" clip-path="url(#pff088b0ce7)" style="fill: none; stroke-dasharray: 1.85,0.8; stroke-dashoffset: 0; stroke: #ffffff; stroke-opacity: 0.3; stroke-width: 0.5"/>
     </g>
     <g id="line2d_8">
      <g>
       <use xlink:href="#m737681bab9" x="295.945636" y="463.785156" style="fill: #ffffff; stroke: #ffffff; stroke-width: 0.8"/>
      </g>
     </g>
     <g id="text_4">
      <text style="fill: #ffffff; font: 26px 'Arial', sans-serif; text-anchor: middle" x="295.945636" y="489.395469" transform="rotate(-0 295.945636 489.395469)">3</text>
     </g>
    </g>
    <g id="xtick_5">
     <g id="line2d_9">
      <path d="M 356.395818 463.785156 
L 356.395818 16.505156 
" clip-path="url(#pff088b0ce7)" style="fill: none; stroke-dasharray: 1.85,0.8; stroke-dashoffset: 0; stroke: #ffffff; stroke-opacity: 0.3; stroke-width: 0.5"/>
     </g>
     <g id="line2d_10">
      <g>
       <use xlink:href="#m737681bab9" x="356.395818" y="463.785156" style="fill: #ffffff; stroke: #ffffff; stroke-width: 0.8"/>
      </g>
     </g>
     <g id="text_5">
      <text style="fill: #ffffff; font: 26px 'Arial', sans-serif; text-anchor: middle" x="356.395818" y="489.395469" transform="rotate(-0 356.395818 489.395469)">4</text>
     </g>
    </g>
    <g id="xtick_6">
     <g id="line2d_11">
      <path d="M 416.846 463.785156 
L 416.846 16.505156 
" clip-path="url(#pff088b0ce7)" style="fill: none; stroke-dasharray: 1.85,0.8; stroke-dashoffset: 0; stroke: #ffffff; stroke-opacity: 0.3; stroke-width: 0.5"/>
     </g>
     <g id="line2d_12">
      <g>
       <use xlink:href="#m737681bab9" x="416.846" y="463.785156" style="fill: #ffffff; stroke: #ffffff; stroke-width: 0.8"/>
      </g>
     </g>
     <g id="text_6">
      <text style="fill: #ffffff; font: 26px 'Arial', sans-serif; text-anchor: middle" x="416.846" y="489.395469" transform="rotate(-0 416.846 489.395469)">5</text>
     </g>
    </g>
    <g id="xtick_7">
     <g id="line2d_13">
      <path d="M 477.296182 463.785156 
L 477.296182 16.505156 
" clip-path="url(#pff088b0ce7)" style="fill: none; stroke-dasharray: 1.85,0.8; stroke-dashoffset: 0; stroke: #ffffff; stroke-opacity: 0.3; stroke-width: 0.5"/>
     </g>
     <g id="line2d_14">
      <g>
       <use xlink:href="#m737681bab9" x="477.296182" y="463.785156" style="fill: #ffffff; stroke: #ffffff; stroke-width: 0.8"/>
      </g>
     </g>
     <g id="text_7">
      <text style="fill: #ffffff; font: 26px 'Arial', sans-serif; text-anchor: middle" x="477.296182" y="489.395469" transform="rotate(-0 477.296182 489.395469)">6</text>
     </g>
    </g>
    <g id="xtick_8">
     <g id="line2d_15">
      <path d="M 537.746364 463.785156 
L 537.746364 16.505156 
" clip-path="url(#pff088b0ce7)" style="fill: none; stroke-dasharray: 1.85,0.8; stroke-dashoffset: 0; stroke: #ffffff; stroke-opacity: 0.3; stroke-width: 0.5"/>
     </g>
     <g id="line2d_16">
      <g>
       <use xlink:href="#m737681bab9" x="537.746364" y="463.785156" style="fill: #ffffff; stroke: #ffffff; stroke-width: 0.8"/>
      </g>
     </g>
     <g id="text_8">
      <text style="fill: #ffffff; font: 26px 'Arial', sans-serif; text-anchor: middle" x="537.746364" y="489.395469" transform="rotate(-0 537.746364 489.395469)">7</text>
     </g>
    </g>
    <g id="xtick_9">
     <g id="line2d_17">
      <path d="M 598.196545 463.785156 
L 598.196545 16.505156 
" clip-path="url(#pff088b0ce7)" style="fill: none; stroke-dasharray: 1.85,0.8; stroke-dashoffset: 0; stroke: #ffffff; stroke-opacity: 0.3; stroke-width: 0.5"/>
     </g>
     <g id="line2d_18">
      <g>
       <use xlink:href="#m737681bab9" x="598.196545" y="463.785156" style="fill: #ffffff; stroke: #ffffff; stroke-width: 0.8"/>
      </g>
     </g>
     <g id="text_9">
      <text style="fill: #ffffff; font: 26px 'Arial', sans-serif; text-anchor: middle" x="598.196545" y="489.395469" transform="rotate(-0 598.196545 489.395469)">8</text>
     </g>
    </g>
    <g id="xtick_10">
     <g id="line2d_19">
      <path d="M 658.646727 463.785156 
L 658.646727 16.505156 
" clip-path="url(#pff088b0ce7)" style="fill: none; stroke-dasharray: 1.85,0.8; stroke-dashoffset: 0; stroke: #ffffff; stroke-opacity: 0.3; stroke-width: 0.5"/>
     </g>
     <g id="line2d_20">
      <g>
       <use xlink:href="#m737681bab9" x="658.646727" y="463.785156" style="fill: #ffffff; stroke: #ffffff; stroke-width: 0.8"/>
      </g>
     </g>
     <g id="text_10">
      <text style="fill: #ffffff; font: 26px 'Arial', sans-serif; text-anchor: middle" x="658.646727" y="489.395469" transform="rotate(-0 658.646727 489.395469)">9</text>
     </g>
    </g>
    <g id="xtick_11">
     <g id="line2d_21">
      <path d="M 719.096909 463.785156 
L 719.096909 16.505156 
" clip-path="url(#pff088b0ce7)" style="fill: none; stroke-dasharray: 1.85,0.8; stroke-dashoffset: 0; stroke: #ffffff; stroke-opacity: 0.3; stroke-width: 0.5"/>
     </g>
     <g id="line2d_22">
      <g>
       <use xlink:href="#m737681bab9" x="719.096909" y="463.785156" style="fill: #ffffff; stroke: #ffffff; stroke-width: 0.8"/>
      </g>
     </g>
     <g id="text_11">
      <text style="fill: #ffffff; font: 26px 'Arial', sans-serif; text-anchor: middle" x="719.096909" y="489.395469" transform="rotate(-0 719.096909 489.395469)">10</text>
     </g>
    </g>
    <g id="text_12">
     <text style="fill: #ffffff; font: 32px 'Arial', sans-serif; text-anchor: middle" x="416.846" y="521.857969" transform="rotate(-0 416.846 521.857969)">Cooldown Duration (s)</text>
    </g>
   </g>
   <g id="matplotlib.axis_2">
    <g id="ytick_1">
     <g id="line2d_23">
      <path d="M 84.37 456.570963 
L 749.322 456.570963 
" clip-path="url(#pff088b0ce7)" style="fill: none; stroke-dasharray: 1.85,0.8; stroke-dashoffset: 0; stroke: #ffffff; stroke-opacity: 0.25; stroke-width: 0.5"/>
     </g>
     <g id="line2d_24">
      <defs>
       <path id="m5d2603d1c7" d="M 0 0 
L -3.5 0 
" style="stroke: #ffffff; stroke-width: 0.8"/>
      </defs>
      <g>
       <use xlink:href="#m5d2603d1c7" x="84.37" y="456.570963" style="fill: #ffffff; stroke: #ffffff; stroke-width: 0.8"/>
      </g>
     </g>
     <g id="text_13">
      <text style="fill: #ffffff; font: 26px 'Arial', sans-serif; text-anchor: end" x="77.37" y="465.876119" transform="rotate(-0 77.37 465.876119)">4.2</text>
     </g>
    </g>
    <g id="ytick_2">
     <g id="line2d_25">
      <path d="M 84.37 384.429027 
L 749.322 384.429027 
" clip-path="url(#pff088b0ce7)" style="fill: none; stroke-dasharray: 1.85,0.8; stroke-dashoffset: 0; stroke: #ffffff; stroke-opacity: 0.25; stroke-width: 0.5"/>
     </g>
     <g id="line2d_26">
      <g>
       <use xlink:href="#m5d2603d1c7" x="84.37" y="384.429027" style="fill: #ffffff; stroke: #ffffff; stroke-width: 0.8"/>
      </g>
     </g>
     <g id="text_14">
      <text style="fill: #ffffff; font: 26px 'Arial', sans-serif; text-anchor: end" x="77.37" y="393.734183" transform="rotate(-0 77.37 393.734183)">4.3</text>
     </g>
    </g>
    <g id="ytick_3">
     <g id="line2d_27">
      <path d="M 84.37 312.287092 
L 749.322 312.287092 
" clip-path="url(#pff088b0ce7)" style="fill: none; stroke-dasharray: 1.85,0.8; stroke-dashoffset: 0; stroke: #ffffff; stroke-opacity: 0.25; stroke-width: 0.5"/>
     </g>
     <g id="line2d_28">
      <g>
       <use xlink:href="#m5d2603d1c7" x="84.37" y="312.287092" style="fill: #ffffff; stroke: #ffffff; stroke-width: 0.8"/>
      </g>
     </g>
     <g id="text_15">
      <text style="fill: #ffffff; font: 26px 'Arial', sans-serif; text-anchor: end" x="77.37" y="321.592248" transform="rotate(-0 77.37 321.592248)">4.4</text>
     </g>
    </g>
    <g id="ytick_4">
     <g id="line2d_29">
      <path d="M 84.37 240.145156 
L 749.322 240.145156 
" clip-path="url(#pff088b0ce7)" style="fill: none; stroke-dasharray: 1.85,0.8; stroke-dashoffset: 0; stroke: #ffffff; stroke-opacity: 0.25; stroke-width: 0.5"/>
     </g>
     <g id="line2d_30">
      <g>
       <use xlink:href="#m5d2603d1c7" x="84.37" y="240.145156" style="fill: #ffffff; stroke: #ffffff; stroke-width: 0.8"/>
      </g>
     </g>
     <g id="text_16">
      <text style="fill: #ffffff; font: 26px 'Arial', sans-serif; text-anchor: end" x="77.37" y="249.450312" transform="rotate(-0 77.37 249.450312)">4.5</text>
     </g>
    </g>
    <g id="ytick_5">
     <g id="line2d_31">
      <path d="M 84.37 168.003221 
L 749.322 168.003221 
" clip-path="url(#pff088b0ce7)" style="fill: none; stroke-dasharray: 1.85,0.8; stroke-dashoffset: 0; stroke: #ffffff; stroke-opacity: 0.25; stroke-width: 0.5"/>
     </g>
     <g id="line2d_32">
      <g>
       <use xlink:href="#m5d2603d1c7" x="84.37" y="168.003221" style="fill: #ffffff; stroke: #ffffff; stroke-width: 0.8"/>
      </g>
     </g>
     <g id="text_17">
      <text style="fill: #ffffff; font: 26px 'Arial', sans-serif; text-anchor: end" x="77.37" y="177.308377" transform="rotate(-0 77.37 177.308377)">4.6</text>
     </g>
    </g>
    <g id="ytick_6">
     <g id="line2d_33">
      <path d="M 84.37 95.861285 
L 749.322 95.861285 
" clip-path="url(#pff088b0ce7)" style="fill: none; stroke-dasharray: 1.85,0.8; stroke-dashoffset: 0; stroke: #ffffff; stroke-opacity: 0.25; stroke-width: 0.5"/>
     </g>
     <g id="line2d_34">
      <g>
       <use xlink:href="#m5d2603d1c7" x="84.37" y="95.861285" style="fill: #ffffff; stroke: #ffffff; stroke-width: 0.8"/>
      </g>
     </g>
     <g id="text_18">
      <text style="fill: #ffffff; font: 26px 'Arial', sans-serif; text-anchor: end" x="77.37" y="105.166442" transform="rotate(-0 77.37 105.166442)">4.7</text>
     </g>
    </g>
    <g id="ytick_7">
     <g id="line2d_35">
      <path d="M 84.37 23.71935 
L 749.322 23.71935 
" clip-path="url(#pff088b0ce7)" style="fill: none; stroke-dasharray: 1.85,0.8; stroke-dashoffset: 0; stroke: #ffffff; stroke-opacity: 0.25; stroke-width: 0.5"/>
     </g>
     <g id="line2d_36">
      <g>
       <use xlink:href="#m5d2603d1c7" x="84.37" y="23.71935" style="fill: #ffffff; stroke: #ffffff; stroke-width: 0.8"/>
      </g>
     </g>
     <g id="text_19">
      <text style="fill: #ffffff; font: 26px 'Arial', sans-serif; text-anchor: end" x="77.37" y="33.024506" transform="rotate(-0 77.37 33.024506)">4.8</text>
     </g>
    </g>
    <g id="text_20">
     <text style="fill: #ffffff; font: 32px 'Arial', sans-serif; text-anchor: middle" x="30.495" y="240.145156" transform="rotate(-90 30.495 240.145156)">Energy (J)</text>
    </g>
   </g>
   <g id="LineCollection_1">
    <path d="M 104.016309 58.367107 
L 125.173873 58.367107 
" clip-path="url(#pff088b0ce7)" style="fill: none; stroke: #ffffff; stroke-width: 1.5"/>
    <path d="M 164.466491 103.760988 
L 185.624055 103.760988 
" clip-path="url(#pff088b0ce7)" style="fill: none; stroke: #ffffff; stroke-width: 1.5"/>
    <path d="M 224.916673 156.415615 
L 246.074236 156.415615 
" clip-path="url(#pff088b0ce7)" style="fill: none; stroke: #ffffff; stroke-width: 1.5"/>
    <path d="M 285.366855 177.594343 
L 306.524418 177.594343 
" clip-path="url(#pff088b0ce7)" style="fill: none; stroke: #ffffff; stroke-width: 1.5"/>
    <path d="M 345.817036 182.196922 
L 366.9746 182.196922 
" clip-path="url(#pff088b0ce7)" style="fill: none; stroke: #ffffff; stroke-width: 1.5"/>
    <path d="M 406.267218 181.850621 
L 427.424782 181.850621 
" clip-path="url(#pff088b0ce7)" style="fill: none; stroke: #ffffff; stroke-width: 1.5"/>
    <path d="M 466.7174 193.879423 
L 487.874964 193.879423 
" clip-path="url(#pff088b0ce7)" style="fill: none; stroke: #ffffff; stroke-width: 1.5"/>
    <path d="M 527.167582 195.844456 
L 548.325145 195.844456 
" clip-path="url(#pff088b0ce7)" style="fill: none; stroke: #ffffff; stroke-width: 1.5"/>
    <path d="M 587.617764 200.466257 
L 608.775327 200.466257 
" clip-path="url(#pff088b0ce7)" style="fill: none; stroke: #ffffff; stroke-width: 1.5"/>
    <path d="M 648.067945 204.172549 
L 669.225509 204.172549 
" clip-path="url(#pff088b0ce7)" style="fill: none; stroke: #ffffff; stroke-width: 1.5"/>
    <path d="M 708.518127 185.872823 
L 729.675691 185.872823 
" clip-path="url(#pff088b0ce7)" style="fill: none; stroke: #ffffff; stroke-width: 1.5"/>
   </g>
   <g id="LineCollection_2">
    <path d="M 104.016309 26.887881 
L 125.173873 26.887881 
" clip-path="url(#pff088b0ce7)" style="fill: none; stroke: #ffffff; stroke-width: 1.5"/>
    <path d="M 164.466491 80.511869 
L 185.624055 80.511869 
" clip-path="url(#pff088b0ce7)" style="fill: none; stroke: #ffffff; stroke-width: 1.5"/>
    <path d="M 224.916673 128.237867 
L 246.074236 128.237867 
" clip-path="url(#pff088b0ce7)" style="fill: none; stroke: #ffffff; stroke-width: 1.5"/>
    <path d="M 285.366855 162.900013 
L 306.524418 162.900013 
" clip-path="url(#pff088b0ce7)" style="fill: none; stroke: #ffffff; stroke-width: 1.5"/>
    <path d="M 345.817036 169.253831 
L 366.9746 169.253831 
" clip-path="url(#pff088b0ce7)" style="fill: none; stroke: #ffffff; stroke-width: 1.5"/>
    <path d="M 406.267218 169.317051 
L 427.424782 169.317051 
" clip-path="url(#pff088b0ce7)" style="fill: none; stroke: #ffffff; stroke-width: 1.5"/>
    <path d="M 466.7174 180.553928 
L 487.874964 180.553928 
" clip-path="url(#pff088b0ce7)" style="fill: none; stroke: #ffffff; stroke-width: 1.5"/>
    <path d="M 527.167582 179.990399 
L 548.325145 179.990399 
" clip-path="url(#pff088b0ce7)" style="fill: none; stroke: #ffffff; stroke-width: 1.5"/>
    <path d="M 587.617764 193.231076 
L 608.775327 193.231076 
" clip-path="url(#pff088b0ce7)" style="fill: none; stroke: #ffffff; stroke-width: 1.5"/>
    <path d="M 648.067945 175.777092 
L 669.225509 175.777092 
" clip-path="url(#pff088b0ce7)" style="fill: none; stroke: #ffffff; stroke-width: 1.5"/>
    <path d="M 708.518127 160.460088 
L 729.675691 160.460088 
" clip-path="url(#pff088b0ce7)" style="fill: none; stroke: #ffffff; stroke-width: 1.5"/>
   </g>
   <g id="LineCollection_3">
    <path d="M 104.016309 111.631941 
L 125.173873 111.631941 
" clip-path="url(#pff088b0ce7)" style="fill: none; stroke: #ffffff; stroke-width: 1.5"/>
    <path d="M 164.466491 140.758408 
L 185.624055 140.758408 
" clip-path="url(#pff088b0ce7)" style="fill: none; stroke: #ffffff; stroke-width: 1.5"/>
    <path d="M 224.916673 175.824267 
L 246.074236 175.824267 
" clip-path="url(#pff088b0ce7)" style="fill: none; stroke: #ffffff; stroke-width: 1.5"/>
    <path d="M 285.366855 189.646443 
L 306.524418 189.646443 
" clip-path="url(#pff088b0ce7)" style="fill: none; stroke: #ffffff; stroke-width: 1.5"/>
    <path d="M 345.817036 199.173158 
L 366.9746 199.173158 
" clip-path="url(#pff088b0ce7)" style="fill: none; stroke: #ffffff; stroke-width: 1.5"/>
    <path d="M 406.267218 193.031145 
L 427.424782 193.031145 
" clip-path="url(#pff088b0ce7)" style="fill: none; stroke: #ffffff; stroke-width: 1.5"/>
    <path d="M 466.7174 202.556897 
L 487.874964 202.556897 
" clip-path="url(#pff088b0ce7)" style="fill: none; stroke: #ffffff; stroke-width: 1.5"/>
    <path d="M 527.167582 207.558374 
L 548.325145 207.558374 
" clip-path="url(#pff088b0ce7)" style="fill: none; stroke: #ffffff; stroke-width: 1.5"/>
    <path d="M 587.617764 211.791258 
L 608.775327 211.791258 
" clip-path="url(#pff088b0ce7)" style="fill: none; stroke: #ffffff; stroke-width: 1.5"/>
    <path d="M 648.067945 215.154458 
L 669.225509 215.154458 
" clip-path="url(#pff088b0ce7)" style="fill: none; stroke: #ffffff; stroke-width: 1.5"/>
    <path d="M 708.518127 200.281602 
L 729.675691 200.281602 
" clip-path="url(#pff088b0ce7)" style="fill: none; stroke: #ffffff; stroke-width: 1.5"/>
   </g>
   <g id="LineCollection_4">
    <path d="M 114.595091 111.631941 
L 114.595091 26.887881 
" clip-path="url(#pff088b0ce7)" style="fill: none; stroke: #ffffff; stroke-width: 1.2"/>
    <path d="M 175.045273 140.758408 
L 175.045273 80.511869 
" clip-path="url(#pff088b0ce7)" style="fill: none; stroke: #ffffff; stroke-width: 1.2"/>
    <path d="M 235.495455 175.824267 
L 235.495455 128.237867 
" clip-path="url(#pff088b0ce7)" style="fill: none; stroke: #ffffff; stroke-width: 1.2"/>
    <path d="M 295.945636 189.646443 
L 295.945636 162.900013 
" clip-path="url(#pff088b0ce7)" style="fill: none; stroke: #ffffff; stroke-width: 1.2"/>
    <path d="M 356.395818 199.173158 
L 356.395818 169.253831 
" clip-path="url(#pff088b0ce7)" style="fill: none; stroke: #ffffff; stroke-width: 1.2"/>
    <path d="M 416.846 193.031145 
L 416.846 169.317051 
" clip-path="url(#pff088b0ce7)" style="fill: none; stroke: #ffffff; stroke-width: 1.2"/>
    <path d="M 477.296182 202.556897 
L 477.296182 180.553928 
" clip-path="url(#pff088b0ce7)" style="fill: none; stroke: #ffffff; stroke-width: 1.2"/>
    <path d="M 537.746364 207.558374 
L 537.746364 179.990399 
" clip-path="url(#pff088b0ce7)" style="fill: none; stroke: #ffffff; stroke-width: 1.2"/>
    <path d="M 598.196545 211.791258 
L 598.196545 193.231076 
" clip-path="url(#pff088b0ce7)" style="fill: none; stroke: #ffffff; stroke-width: 1.2"/>
    <path d="M 658.646727 215.154458 
L 658.646727 175.777092 
" clip-path="url(#pff088b0ce7)" style="fill: none; stroke: #ffffff; stroke-width: 1.2"/>
    <path d="M 719.096909 200.281602 
L 719.096909 160.460088 
" clip-path="url(#pff088b0ce7)" style="fill: none; stroke: #ffffff; stroke-width: 1.2"/>
   </g>
   <g id="patch_3">
    <path d="M 84.37 463.785156 
L 84.37 16.505156 
" style="fill: none; stroke: #ffffff; stroke-width: 1.2; stroke-linejoin: miter; stroke-linecap: square"/>
   </g>
   <g id="patch_4">
    <path d="M 749.322 463.785156 
L 749.322 16.505156 
" style="fill: none; stroke: #ffffff; stroke-width: 1.2; stroke-linejoin: miter; stroke-linecap: square"/>
   </g>
   <g id="patch_5">
    <path d="M 84.37 463.785156 
L 749.322 463.785156 
" style="fill: none; stroke: #ffffff; stroke-width: 1.2; stroke-linejoin: miter; stroke-linecap: square"/>
   </g>
   <g id="patch_6">
    <path d="M 84.37 16.505156 
L 749.322 16.505156 
" style="fill: none; stroke: #ffffff; stroke-width: 1.2; stroke-linejoin: miter; stroke-linecap: square"/>
   </g>
  </g>
  <g id="axes_2">
   <g id="matplotlib.axis_3">
    <g id="ytick_8">
     <g id="line2d_37">
      <path d="M 84.37 423.123338 
L 749.322 423.123338 
" clip-path="url(#pff088b0ce7)" style="fill: none; stroke-dasharray: 1.85,0.8; stroke-dashoffset: 0; stroke: #ffffff; stroke-opacity: 0.3; stroke-width: 0.5"/>
     </g>
     <g id="line2d_38">
      <defs>
       <path id="m0d64b6fbb9" d="M 0 0 
L 3.5 0 
" style="stroke: #f5b041; stroke-width: 0.8"/>
      </defs>
      <g>
       <use xlink:href="#m0d64b6fbb9" x="749.322" y="423.123338" style="fill: #f5b041; stroke: #f5b041; stroke-width: 0.8"/>
      </g>
     </g>
     <g id="text_21">
      <text style="fill: #f5b041; font: 26px 'Arial', sans-serif; text-anchor: start" x="756.322" y="432.428494" transform="rotate(-0 756.322 432.428494)">30</text>
     </g>
    </g>
    <g id="ytick_9">
     <g id="line2d_39">
      <path d="M 84.37 321.468793 
L 749.322 321.468793 
" clip-path="url(#pff088b0ce7)" style="fill: none; stroke-dasharray: 1.85,0.8; stroke-dashoffset: 0; stroke: #ffffff; stroke-opacity: 0.3; stroke-width: 0.5"/>
     </g>
     <g id="line2d_40">
      <g>
       <use xlink:href="#m0d64b6fbb9" x="749.322" y="321.468793" style="fill: #f5b041; stroke: #f5b041; stroke-width: 0.8"/>
      </g>
     </g>
     <g id="text_22">
      <text style="fill: #f5b041; font: 26px 'Arial', sans-serif; text-anchor: start" x="756.322" y="330.773949" transform="rotate(-0 756.322 330.773949)">35</text>
     </g>
    </g>
    <g id="ytick_10">
     <g id="line2d_41">
      <path d="M 84.37 219.814247 
L 749.322 219.814247 
" clip-path="url(#pff088b0ce7)" style="fill: none; stroke-dasharray: 1.85,0.8; stroke-dashoffset: 0; stroke: #ffffff; stroke-opacity: 0.3; stroke-width: 0.5"/>
     </g>
     <g id="line2d_42">
      <g>
       <use xlink:href="#m0d64b6fbb9" x="749.322" y="219.814247" style="fill: #f5b041; stroke: #f5b041; stroke-width: 0.8"/>
      </g>
     </g>
     <g id="text_23">
      <text style="fill: #f5b041; font: 26px 'Arial', sans-serif; text-anchor: start" x="756.322" y="229.119403" transform="rotate(-0 756.322 229.119403)">40</text>
     </g>
    </g>
    <g id="ytick_11">
     <g id="line2d_43">
      <path d="M 84.37 118.159702 
L 749.322 118.159702 
" clip-path="url(#pff088b0ce7)" style="fill: none; stroke-dasharray: 1.85,0.8; stroke-dashoffset: 0; stroke: #ffffff; stroke-opacity: 0.3; stroke-width: 0.5"/>
     </g>
     <g id="line2d_44">
      <g>
       <use xlink:href="#m0d64b6fbb9" x="749.322" y="118.159702" style="fill: #f5b041; stroke: #f5b041; stroke-width: 0.8"/>
      </g>
     </g>
     <g id="text_24">
      <text style="fill: #f5b041; font: 26px 'Arial', sans-serif; text-anchor: start" x="756.322" y="127.464858" transform="rotate(-0 756.322 127.464858)">45</text>
     </g>
    </g>
    <g id="ytick_12">
     <g id="line2d_45">
      <path d="M 84.37 16.505156 
L 749.322 16.505156 
" clip-path="url(#pff088b0ce7)" style="fill: none; stroke-dasharray: 1.85,0.8; stroke-dashoffset: 0; stroke: #ffffff; stroke-opacity: 0.3; stroke-width: 0.5"/>
     </g>
     <g id="line2d_46">
      <g>
       <use xlink:href="#m0d64b6fbb9" x="749.322" y="16.505156" style="fill: #f5b041; stroke: #f5b041; stroke-width: 0.8"/>
      </g>
     </g>
     <g id="text_25">
      <text style="fill: #f5b041; font: 26px 'Arial', sans-serif; text-anchor: start" x="756.322" y="25.810312" transform="rotate(-0 756.322 25.810312)">50</text>
     </g>
    </g>
    <g id="text_26">
     <text style="fill: #f5b041; font: 32px 'Arial', sans-serif" transform="translate(812.143875 368.182656) rotate(-90)">Pre-Measurement</text>
     <text style="fill: #f5b041; font: 32px 'Arial', sans-serif" transform="translate(846.457875 401.840156) rotate(-90)">GPU Temperature (°C)</text>
    </g>
   </g>
   <g id="patch_7">
    <path d="M 84.37 463.785156 
L 84.37 16.505156 
" style="fill: none; stroke: #ffffff; stroke-width: 1.2; stroke-linejoin: miter; stroke-linecap: square"/>
   </g>
   <g id="patch_8">
    <path d="M 749.322 463.785156 
L 749.322 16.505156 
" style="fill: none; stroke: #f5b041; stroke-width: 1.2; stroke-linejoin: miter; stroke-linecap: square"/>
   </g>
   <g id="patch_9">
    <path d="M 84.37 463.785156 
L 749.322 463.785156 
" style="fill: none; stroke: #ffffff; stroke-width: 1.2; stroke-linejoin: miter; stroke-linecap: square"/>
   </g>
   <g id="patch_10">
    <path d="M 84.37 16.505156 
L 749.322 16.505156 
" style="fill: none; stroke: #ffffff; stroke-width: 1.2; stroke-linejoin: miter; stroke-linecap: square"/>
   </g>
   <g id="line2d_47">
    <path d="M 114.595091 31.245065 
L 175.045273 278.011474 
L 235.495455 330.109429 
L 295.945636 365.434384 
L 356.395818 385.765293 
L 416.846 399.996929 
L 477.296182 416.261656 
L 537.746364 420.073702 
L 598.196545 433.034656 
L 658.646727 436.084293 
L 719.096909 443.200111 
" clip-path="url(#pff088b0ce7)" style="fill: none; stroke: #f5b041; stroke-width: 3; stroke-linecap: square"/>
    <defs>
     <path id="me051d24374" d="M -5 5 
L 5 5 
L 5 -5 
L -5 -5 
z
" style="stroke: #f5b041; stroke-linejoin: miter"/>
    </defs>
    <g clip-path="url(#pff088b0ce7)">
     <use xlink:href="#me051d24374" x="114.595091" y="31.245065" style="fill: #f5b041; stroke: #f5b041; stroke-linejoin: miter"/>
     <use xlink:href="#me051d24374" x="175.045273" y="278.011474" style="fill: #f5b041; stroke: #f5b041; stroke-linejoin: miter"/>
     <use xlink:href="#me051d24374" x="235.495455" y="330.109429" style="fill: #f5b041; stroke: #f5b041; stroke-linejoin: miter"/>
     <use xlink:href="#me051d24374" x="295.945636" y="365.434384" style="fill: #f5b041; stroke: #f5b041; stroke-linejoin: miter"/>
     <use xlink:href="#me051d24374" x="356.395818" y="385.765293" style="fill: #f5b041; stroke: #f5b041; stroke-linejoin: miter"/>
     <use xlink:href="#me051d24374" x="416.846" y="399.996929" style="fill: #f5b041; stroke: #f5b041; stroke-linejoin: miter"/>
     <use xlink:href="#me051d24374" x="477.296182" y="416.261656" style="fill: #f5b041; stroke: #f5b041; stroke-linejoin: miter"/>
     <use xlink:href="#me051d24374" x="537.746364" y="420.073702" style="fill: #f5b041; stroke: #f5b041; stroke-linejoin: miter"/>
     <use xlink:href="#me051d24374" x="598.196545" y="433.034656" style="fill: #f5b041; stroke: #f5b041; stroke-linejoin: miter"/>
     <use xlink:href="#me051d24374" x="658.646727" y="436.084293" style="fill: #f5b041; stroke: #f5b041; stroke-linejoin: miter"/>
     <use xlink:href="#me051d24374" x="719.096909" y="443.200111" style="fill: #f5b041; stroke: #f5b041; stroke-linejoin: miter"/>
    </g>
   </g>
  </g>
 </g>
 <defs>
  <clipPath id="pff088b0ce7">
   <rect x="84.37" y="16.505156" width="664.952" height="447.28"/>
  </clipPath>
 </defs>
</svg>
