<?xml version="1.0" encoding="utf-8" standalone="no"?>
<!DOCTYPE svg PUBLIC "-//W3C//DTD SVG 1.1//EN"
  "http://www.w3.org/Graphics/SVG/1.1/DTD/svg11.dtd">
<svg xmlns:xlink="http://www.w3.org/1999/xlink" width="860.392875pt" height="535.792969pt" viewBox="0 0 860.392875 535.792969" xmlns="http://www.w3.org/2000/svg" version="1.1">
 <metadata>
  <rdf:RDF xmlns:dc="http://purl.org/dc/elements/1.1/" xmlns:cc="http://creativecommons.org/ns#" xmlns:rdf="http://www.w3.org/1999/02/22-rdf-syntax-ns#">
   <cc:Work>
    <dc:type rdf:resource="http://purl.org/dc/dcmitype/StillImage"/>
    <dc:date>2026-02-26T22:09:47.563087</dc:date>
    <dc:format>image/svg+xml</dc:format>
    <dc:creator>
     <cc:Agent>
      <dc:title>Matplotlib v3.9.3, https://matplotlib.org/</dc:title>
     </cc:Agent>
    </dc:creator>
   </cc:Work>
  </rdf:RDF>
 </metadata>
 <defs>
  <style type="text/css">*{stroke-linejoin: round; stroke-linecap: butt}</style>
 </defs>
 <g id="figure_1">
  <g id="patch_1">
   <path d="M 0 535.792969 
L 860.392875 535.792969 
L 860.392875 0 
L 0 0 
L 0 535.792969 
z
" style="fill: none; opacity: 0"/>
  </g>
  <g id="axes_1">
   <g id="patch_2">
    <path d="M 84.37 463.785156 
L 749.322 463.785156 
L 749.322 16.505156 
L 84.37 16.505156 
L 84.37 463.785156 
z
" style="fill: none"/>
   </g>
   <g id="PolyCollection_1">
    <defs>
     <path id="m13693aa090" d="M 125.709937 -93.091779 
L 109.525263 -93.091779 
L 109.320663 -94.642415 
L 109.123134 -96.19305 
L 108.932632 -97.743686 
L 108.74898 -99.294322 
L 108.571868 -100.844958 
L 108.400856 -102.395594 
L 108.235371 -103.94623 
L 108.074717 -105.496866 
L 107.91808 -107.047502 
L 107.764536 -108.598138 
L 107.613062 -110.148774 
L 107.462551 -111.69941 
L 107.311824 -113.250046 
L 107.159645 -114.800682 
L 107.004741 -116.351318 
L 106.845818 -117.901954 
L 106.68158 -119.45259 
L 106.510748 -121.003226 
L 106.332083 -122.553862 
L 106.144399 -124.104498 
L 105.946588 -125.655134 
L 105.737637 -127.20577 
L 105.516644 -128.756406 
L 105.282834 -130.307042 
L 105.035578 -131.857678 
L 104.7744 -133.408314 
L 104.498994 -134.95895 
L 104.209229 -136.509586 
L 103.90516 -138.060222 
L 103.587028 -139.610857 
L 103.255267 -141.161493 
L 102.9105 -142.712129 
L 102.553539 -144.262765 
L 102.185381 -145.813401 
L 101.807195 -147.364037 
L 101.42032 -148.914673 
L 101.02625 -150.465309 
L 100.626619 -152.015945 
L 100.22319 -153.566581 
L 99.817835 -155.117217 
L 99.412517 -156.667853 
L 99.009276 -158.218489 
L 98.610203 -159.769125 
L 98.217424 -161.319761 
L 97.833079 -162.870397 
L 97.459302 -164.421033 
L 97.098199 -165.971669 
L 96.751831 -167.522305 
L 96.422195 -169.072941 
L 96.111205 -170.623577 
L 95.820678 -172.174213 
L 95.552314 -173.724849 
L 95.30769 -175.275485 
L 95.08824 -176.826121 
L 94.89525 -178.376757 
L 94.729847 -179.927393 
L 94.592992 -181.478028 
L 94.485478 -183.028664 
L 94.407922 -184.5793 
L 94.360767 -186.129936 
L 94.34428 -187.680572 
L 94.358557 -189.231208 
L 94.403524 -190.781844 
L 94.478941 -192.33248 
L 94.584411 -193.883116 
L 94.719387 -195.433752 
L 94.883178 -196.984388 
L 95.074961 -198.535024 
L 95.293792 -200.08566 
L 95.538614 -201.636296 
L 95.808271 -203.186932 
L 96.101521 -204.737568 
L 96.417044 -206.288204 
L 96.75346 -207.83884 
L 97.109336 -209.389476 
L 97.483202 -210.940112 
L 97.873563 -212.490748 
L 98.278907 -214.041384 
L 98.697722 -215.59202 
L 99.128499 -217.142656 
L 99.569749 -218.693292 
L 100.02001 -220.243928 
L 100.477851 -221.794564 
L 100.941887 -223.3452 
L 101.41078 -224.895835 
L 101.883245 -226.446471 
L 102.358057 -227.997107 
L 102.834052 -229.547743 
L 103.310133 -231.098379 
L 103.785268 -232.649015 
L 104.258491 -234.199651 
L 104.728905 -235.750287 
L 105.19568 -237.300923 
L 105.658048 -238.851559 
L 106.115306 -240.402195 
L 106.566809 -241.952831 
L 107.01197 -243.503467 
L 107.450255 -245.054103 
L 107.881179 -246.604739 
L 127.354021 -246.604739 
L 127.354021 -246.604739 
L 127.784945 -245.054103 
L 128.22323 -243.503467 
L 128.668391 -241.952831 
L 129.119894 -240.402195 
L 129.577152 -238.851559 
L 130.03952 -237.300923 
L 130.506295 -235.750287 
L 130.976709 -234.199651 
L 131.449932 -232.649015 
L 131.925067 -231.098379 
L 132.401148 -229.547743 
L 132.877143 -227.997107 
L 133.351955 -226.446471 
L 133.82442 -224.895835 
L 134.293313 -223.3452 
L 134.757349 -221.794564 
L 135.21519 -220.243928 
L 135.665451 -218.693292 
L 136.106701 -217.142656 
L 136.537478 -215.59202 
L 136.956293 -214.041384 
L 137.361637 -212.490748 
L 137.751998 -210.940112 
L 138.125864 -209.389476 
L 138.48174 -207.83884 
L 138.818156 -206.288204 
L 139.133679 -204.737568 
L 139.426929 -203.186932 
L 139.696586 -201.636296 
L 139.941408 -200.08566 
L 140.160239 -198.535024 
L 140.352022 -196.984388 
L 140.515813 -195.433752 
L 140.650789 -193.883116 
L 140.756259 -192.33248 
L 140.831676 -190.781844 
L 140.876643 -189.231208 
L 140.89092 -187.680572 
L 140.874433 -186.129936 
L 140.827278 -184.5793 
L 140.749722 -183.028664 
L 140.642208 -181.478028 
L 140.505353 -179.927393 
L 140.33995 -178.376757 
L 140.14696 -176.826121 
L 139.92751 -175.275485 
L 139.682886 -173.724849 
L 139.414522 -172.174213 
L 139.123995 -170.623577 
L 138.813005 -169.072941 
L 138.483369 -167.522305 
L 138.137001 -165.971669 
L 137.775898 -164.421033 
L 137.402121 -162.870397 
L 137.017776 -161.319761 
L 136.624997 -159.769125 
L 136.225924 -158.218489 
L 135.822683 -156.667853 
L 135.417365 -155.117217 
L 135.01201 -153.566581 
L 134.608581 -152.015945 
L 134.20895 -150.465309 
L 133.81488 -148.914673 
L 133.428005 -147.364037 
L 133.049819 -145.813401 
L 132.681661 -144.262765 
L 132.3247 -142.712129 
L 131.979933 -141.161493 
L 131.648172 -139.610857 
L 131.33004 -138.060222 
L 131.025971 -136.509586 
L 130.736206 -134.95895 
L 130.4608 -133.408314 
L 130.199622 -131.857678 
L 129.952366 -130.307042 
L 129.718556 -128.756406 
L 129.497563 -127.20577 
L 129.288612 -125.655134 
L 129.090801 -124.104498 
L 128.903117 -122.553862 
L 128.724452 -121.003226 
L 128.55362 -119.45259 
L 128.389382 -117.901954 
L 128.230459 -116.351318 
L 128.075555 -114.800682 
L 127.923376 -113.250046 
L 127.772649 -111.69941 
L 127.622138 -110.148774 
L 127.470664 -108.598138 
L 127.31712 -107.047502 
L 127.160483 -105.496866 
L 126.999829 -103.94623 
L 126.834344 -102.395594 
L 126.663332 -100.844958 
L 126.48622 -99.294322 
L 126.302568 -97.743686 
L 126.112066 -96.19305 
L 125.914537 -94.642415 
L 125.709937 -93.091779 
z
" style="stroke: #000000; stroke-opacity: 0.6; stroke-width: 1.5"/>
    </defs>
    <g clip-path="url(#pff088b0ce7)">
     <use xlink:href="#m13693aa090" x="0" y="535.792969" style="fill: #808080; fill-opacity: 0.6; stroke: #000000; stroke-opacity: 0.6; stroke-width: 1.5"/>
    </g>
   </g>
   <g id="PolyCollection_2">
    <defs>
     <path id="m11c9bb40ce" d="M 198.782946 -240.380525 
L 169.442654 -240.380525 
L 169.075408 -241.578459 
L 168.719528 -242.776394 
L 168.375966 -243.974329 
L 168.045611 -245.172263 
L 167.729282 -246.370198 
L 167.427718 -247.568132 
L 167.141575 -248.766067 
L 166.871419 -249.964001 
L 166.61772 -251.161936 
L 166.380849 -252.359871 
L 166.161075 -253.557805 
L 165.958559 -254.75574 
L 165.773356 -255.953674 
L 165.605413 -257.151609 
L 165.454567 -258.349543 
L 165.320549 -259.547478 
L 165.202985 -260.745413 
L 165.101396 -261.943347 
L 165.015206 -263.141282 
L 164.943744 -264.339216 
L 164.88625 -265.537151 
L 164.841881 -266.735085 
L 164.809719 -267.93302 
L 164.788777 -269.130955 
L 164.778007 -270.328889 
L 164.776311 -271.526824 
L 164.782547 -272.724758 
L 164.795539 -273.922693 
L 164.814089 -275.120627 
L 164.836984 -276.318562 
L 164.863004 -277.516497 
L 164.890937 -278.714431 
L 164.919585 -279.912366 
L 164.947773 -281.1103 
L 164.974358 -282.308235 
L 164.998239 -283.506169 
L 165.018367 -284.704104 
L 165.033746 -285.902039 
L 165.043448 -287.099973 
L 165.046615 -288.297908 
L 165.042465 -289.495842 
L 165.0303 -290.693777 
L 165.009509 -291.891711 
L 164.979572 -293.089646 
L 164.940062 -294.287581 
L 164.890652 -295.485515 
L 164.831113 -296.68345 
L 164.761316 -297.881384 
L 164.681234 -299.079319 
L 164.590941 -300.277253 
L 164.490612 -301.475188 
L 164.380523 -302.673123 
L 164.261046 -303.871057 
L 164.13265 -305.068992 
L 163.995898 -306.266926 
L 163.851442 -307.464861 
L 163.70002 -308.662796 
L 163.542454 -309.86073 
L 163.379642 -311.058665 
L 163.212556 -312.256599 
L 163.042235 -313.454534 
L 162.86978 -314.652468 
L 162.696348 -315.850403 
L 162.523146 -317.048338 
L 162.351423 -318.246272 
L 162.182464 -319.444207 
L 162.017582 -320.642141 
L 161.858112 -321.840076 
L 161.705403 -323.03801 
L 161.560805 -324.235945 
L 161.42567 -325.43388 
L 161.301335 -326.631814 
L 161.189119 -327.829749 
L 161.090311 -329.027683 
L 161.006164 -330.225618 
L 160.937886 -331.423552 
L 160.88663 -332.621487 
L 160.853488 -333.819422 
L 160.83948 -335.017356 
L 160.84555 -336.215291 
L 160.872556 -337.413225 
L 160.921263 -338.61116 
L 160.99234 -339.809094 
L 161.086349 -341.007029 
L 161.203745 -342.204964 
L 161.344867 -343.402898 
L 161.509937 -344.600833 
L 161.699058 -345.798767 
L 161.91221 -346.996702 
L 162.149249 -348.194636 
L 162.409908 -349.392571 
L 162.6938 -350.590506 
L 163.000414 -351.78844 
L 163.329123 -352.986375 
L 163.679186 -354.184309 
L 164.049754 -355.382244 
L 164.439872 -356.580178 
L 164.848489 -357.778113 
L 165.274466 -358.976048 
L 202.951134 -358.976048 
L 202.951134 -358.976048 
L 203.377111 -357.778113 
L 203.785728 -356.580178 
L 204.175846 -355.382244 
L 204.546414 -354.184309 
L 204.896477 -352.986375 
L 205.225186 -351.78844 
L 205.5318 -350.590506 
L 205.815692 -349.392571 
L 206.076351 -348.194636 
L 206.31339 -346.996702 
L 206.526542 -345.798767 
L 206.715663 -344.600833 
L 206.880733 -343.402898 
L 207.021855 -342.204964 
L 207.139251 -341.007029 
L 207.23326 -339.809094 
L 207.304337 -338.61116 
L 207.353044 -337.413225 
L 207.38005 -336.215291 
L 207.38612 -335.017356 
L 207.372112 -333.819422 
L 207.33897 -332.621487 
L 207.287714 -331.423552 
L 207.219436 -330.225618 
L 207.135289 -329.027683 
L 207.036481 -327.829749 
L 206.924265 -326.631814 
L 206.79993 -325.43388 
L 206.664795 -324.235945 
L 206.520197 -323.03801 
L 206.367488 -321.840076 
L 206.208018 -320.642141 
L 206.043136 -319.444207 
L 205.874177 -318.246272 
L 205.702454 -317.048338 
L 205.529252 -315.850403 
L 205.35582 -314.652468 
L 205.183365 -313.454534 
L 205.013044 -312.256599 
L 204.845958 -311.058665 
L 204.683146 -309.86073 
L 204.52558 -308.662796 
L 204.374158 -307.464861 
L 204.229702 -306.266926 
L 204.09295 -305.068992 
L 203.964554 -303.871057 
L 203.845077 -302.673123 
L 203.734988 -301.475188 
L 203.634659 -300.277253 
L 203.544366 -299.079319 
L 203.464284 -297.881384 
L 203.394487 -296.68345 
L 203.334948 -295.485515 
L 203.285538 -294.287581 
L 203.246028 -293.089646 
L 203.216091 -291.891711 
L 203.1953 -290.693777 
L 203.183135 -289.495842 
L 203.178985 -288.297908 
L 203.182152 -287.099973 
L 203.191854 -285.902039 
L 203.207233 -284.704104 
L 203.227361 -283.506169 
L 203.251242 -282.308235 
L 203.277827 -281.1103 
L 203.306015 -279.912366 
L 203.334663 -278.714431 
L 203.362596 -277.516497 
L 203.388616 -276.318562 
L 203.411511 -275.120627 
L 203.430061 -273.922693 
L 203.443053 -272.724758 
L 203.449289 -271.526824 
L 203.447593 -270.328889 
L 203.436823 -269.130955 
L 203.415881 -267.93302 
L 203.383719 -266.735085 
L 203.33935 -265.537151 
L 203.281856 -264.339216 
L 203.210394 -263.141282 
L 203.124204 -261.943347 
L 203.022615 -260.745413 
L 202.905051 -259.547478 
L 202.771033 -258.349543 
L 202.620187 -257.151609 
L 202.452244 -255.953674 
L 202.267041 -254.75574 
L 202.064525 -253.557805 
L 201.844751 -252.359871 
L 201.60788 -251.161936 
L 201.354181 -249.964001 
L 201.084025 -248.766067 
L 200.797882 -247.568132 
L 200.496318 -246.370198 
L 200.179989 -245.172263 
L 199.849634 -243.974329 
L 199.506072 -242.776394 
L 199.150192 -241.578459 
L 198.782946 -240.380525 
z
" style="stroke: #000000; stroke-opacity: 0.6; stroke-width: 1.5"/>
    </defs>
    <g clip-path="url(#pff088b0ce7)">
     <use xlink:href="#m11c9bb40ce" x="0" y="535.792969" style="fill: #808080; fill-opacity: 0.6; stroke: #000000; stroke-opacity: 0.6; stroke-width: 1.5"/>
    </g>
   </g>
   <g id="PolyCollection_3">
    <defs>
     <path id="mf80f29bb4e" d="M 257.792848 -296.460714 
L 243.423152 -296.460714 
L 243.166694 -297.029598 
L 242.906057 -297.598481 
L 242.640846 -298.167364 
L 242.370648 -298.736247 
L 242.095044 -299.30513 
L 241.813618 -299.874013 
L 241.525976 -300.442897 
L 241.231753 -301.01178 
L 240.930629 -301.580663 
L 240.622338 -302.149546 
L 240.306686 -302.718429 
L 239.983554 -303.287312 
L 239.652913 -303.856196 
L 239.314831 -304.425079 
L 238.969479 -304.993962 
L 238.617135 -305.562845 
L 238.258184 -306.131728 
L 237.893126 -306.700611 
L 237.522564 -307.269495 
L 237.147208 -307.838378 
L 236.767862 -308.407261 
L 236.385421 -308.976144 
L 236.000856 -309.545027 
L 235.615205 -310.113911 
L 235.229558 -310.682794 
L 234.845041 -311.251677 
L 234.462803 -311.82056 
L 234.083999 -312.389443 
L 233.709771 -312.958326 
L 233.341235 -313.52721 
L 232.979464 -314.096093 
L 232.625474 -314.664976 
L 232.280209 -315.233859 
L 231.944532 -315.802742 
L 231.619213 -316.371625 
L 231.304921 -316.940509 
L 231.002222 -317.509392 
L 230.711571 -318.078275 
L 230.433316 -318.647158 
L 230.167697 -319.216041 
L 229.914851 -319.784924 
L 229.674822 -320.353808 
L 229.447567 -320.922691 
L 229.232968 -321.491574 
L 229.030846 -322.060457 
L 228.840973 -322.62934 
L 228.663091 -323.198223 
L 228.496925 -323.767107 
L 228.342202 -324.33599 
L 228.198665 -324.904873 
L 228.066088 -325.473756 
L 227.944296 -326.042639 
L 227.833171 -326.611523 
L 227.732668 -327.180406 
L 227.642825 -327.749289 
L 227.563766 -328.318172 
L 227.495711 -328.887055 
L 227.438973 -329.455938 
L 227.39396 -330.024822 
L 227.361172 -330.593705 
L 227.341193 -331.162588 
L 227.33468 -331.731471 
L 227.342357 -332.300354 
L 227.364998 -332.869237 
L 227.403411 -333.438121 
L 227.458423 -334.007004 
L 227.530863 -334.575887 
L 227.621539 -335.14477 
L 227.731224 -335.713653 
L 227.860637 -336.282536 
L 228.01042 -336.85142 
L 228.181128 -337.420303 
L 228.373209 -337.989186 
L 228.586991 -338.558069 
L 228.822674 -339.126952 
L 229.080315 -339.695835 
L 229.359827 -340.264719 
L 229.660971 -340.833602 
L 229.983356 -341.402485 
L 230.326442 -341.971368 
L 230.689539 -342.540251 
L 231.071819 -343.109135 
L 231.472321 -343.678018 
L 231.889961 -344.246901 
L 232.323546 -344.815784 
L 232.771787 -345.384667 
L 233.233313 -345.95355 
L 233.706684 -346.522434 
L 234.190412 -347.091317 
L 234.682971 -347.6602 
L 235.182816 -348.229083 
L 235.688396 -348.797966 
L 236.198168 -349.366849 
L 236.710613 -349.935733 
L 237.224241 -350.504616 
L 237.737612 -351.073499 
L 238.249333 -351.642382 
L 238.758077 -352.211265 
L 239.262582 -352.780148 
L 261.953418 -352.780148 
L 261.953418 -352.780148 
L 262.457923 -352.211265 
L 262.966667 -351.642382 
L 263.478388 -351.073499 
L 263.991759 -350.504616 
L 264.505387 -349.935733 
L 265.017832 -349.366849 
L 265.527604 -348.797966 
L 266.033184 -348.229083 
L 266.533029 -347.6602 
L 267.025588 -347.091317 
L 267.509316 -346.522434 
L 267.982687 -345.95355 
L 268.444213 -345.384667 
L 268.892454 -344.815784 
L 269.326039 -344.246901 
L 269.743679 -343.678018 
L 270.144181 -343.109135 
L 270.526461 -342.540251 
L 270.889558 -341.971368 
L 271.232644 -341.402485 
L 271.555029 -340.833602 
L 271.856173 -340.264719 
L 272.135685 -339.695835 
L 272.393326 -339.126952 
L 272.629009 -338.558069 
L 272.842791 -337.989186 
L 273.034872 -337.420303 
L 273.20558 -336.85142 
L 273.355363 -336.282536 
L 273.484776 -335.713653 
L 273.594461 -335.14477 
L 273.685137 -334.575887 
L 273.757577 -334.007004 
L 273.812589 -333.438121 
L 273.851002 -332.869237 
L 273.873643 -332.300354 
L 273.88132 -331.731471 
L 273.874807 -331.162588 
L 273.854828 -330.593705 
L 273.82204 -330.024822 
L 273.777027 -329.455938 
L 273.720289 -328.887055 
L 273.652234 -328.318172 
L 273.573175 -327.749289 
L 273.483332 -327.180406 
L 273.382829 -326.611523 
L 273.271704 -326.042639 
L 273.149912 -325.473756 
L 273.017335 -324.904873 
L 272.873798 -324.33599 
L 272.719075 -323.767107 
L 272.552909 -323.198223 
L 272.375027 -322.62934 
L 272.185154 -322.060457 
L 271.983032 -321.491574 
L 271.768433 -320.922691 
L 271.541178 -320.353808 
L 271.301149 -319.784924 
L 271.048303 -319.216041 
L 270.782684 -318.647158 
L 270.504429 -318.078275 
L 270.213778 -317.509392 
L 269.911079 -316.940509 
L 269.596787 -316.371625 
L 269.271468 -315.802742 
L 268.935791 -315.233859 
L 268.590526 -314.664976 
L 268.236536 -314.096093 
L 267.874765 -313.52721 
L 267.506229 -312.958326 
L 267.132001 -312.389443 
L 266.753197 -311.82056 
L 266.370959 -311.251677 
L 265.986442 -310.682794 
L 265.600795 -310.113911 
L 265.215144 -309.545027 
L 264.830579 -308.976144 
L 264.448138 -308.407261 
L 264.068792 -307.838378 
L 263.693436 -307.269495 
L 263.322874 -306.700611 
L 262.957816 -306.131728 
L 262.598865 -305.562845 
L 262.246521 -304.993962 
L 261.901169 -304.425079 
L 261.563087 -303.856196 
L 261.232446 -303.287312 
L 260.909314 -302.718429 
L 260.593662 -302.149546 
L 260.285371 -301.580663 
L 259.984247 -301.01178 
L 259.690024 -300.442897 
L 259.402382 -299.874013 
L 259.120956 -299.30513 
L 258.845352 -298.736247 
L 258.575154 -298.167364 
L 258.309943 -297.598481 
L 258.049306 -297.029598 
L 257.792848 -296.460714 
z
" style="stroke: #000000; stroke-opacity: 0.6; stroke-width: 1.5"/>
    </defs>
    <g clip-path="url(#pff088b0ce7)">
     <use xlink:href="#mf80f29bb4e" x="0" y="535.792969" style="fill: #808080; fill-opacity: 0.6; stroke: #000000; stroke-opacity: 0.6; stroke-width: 1.5"/>
    </g>
   </g>
   <g id="PolyCollection_4">
    <defs>
     <path id="m5fc31cdda5" d="M 325.574014 -308.34166 
L 308.632386 -308.34166 
L 308.309234 -308.990608 
L 307.987347 -309.639556 
L 307.667265 -310.288504 
L 307.349476 -310.937452 
L 307.034408 -311.5864 
L 306.722426 -312.235348 
L 306.413825 -312.884297 
L 306.108821 -313.533245 
L 305.807549 -314.182193 
L 305.510061 -314.831141 
L 305.216318 -315.480089 
L 304.926194 -316.129037 
L 304.639471 -316.777985 
L 304.355844 -317.426933 
L 304.074919 -318.075881 
L 303.796225 -318.72483 
L 303.519216 -319.373778 
L 303.243279 -320.022726 
L 302.967749 -320.671674 
L 302.69192 -321.320622 
L 302.415059 -321.96957 
L 302.136424 -322.618518 
L 301.855284 -323.267466 
L 301.570937 -323.916414 
L 301.282733 -324.565362 
L 300.990092 -325.214311 
L 300.692535 -325.863259 
L 300.389695 -326.512207 
L 300.08135 -327.161155 
L 299.767434 -327.810103 
L 299.448064 -328.459051 
L 299.123552 -329.107999 
L 298.79442 -329.756947 
L 298.461413 -330.405895 
L 298.125505 -331.054844 
L 297.787903 -331.703792 
L 297.450045 -332.35274 
L 297.113598 -333.001688 
L 296.780444 -333.650636 
L 296.452669 -334.299584 
L 296.132539 -334.948532 
L 295.822482 -335.59748 
L 295.525054 -336.246428 
L 295.242913 -336.895377 
L 294.978779 -337.544325 
L 294.735398 -338.193273 
L 294.515501 -338.842221 
L 294.321763 -339.491169 
L 294.156762 -340.140117 
L 294.022932 -340.789065 
L 293.92253 -341.438013 
L 293.857587 -342.086961 
L 293.82988 -342.735909 
L 293.840891 -343.384858 
L 293.891784 -344.033806 
L 293.983376 -344.682754 
L 294.116118 -345.331702 
L 294.290085 -345.98065 
L 294.504964 -346.629598 
L 294.760053 -347.278546 
L 295.054268 -347.927494 
L 295.386153 -348.576442 
L 295.753896 -349.225391 
L 296.155355 -349.874339 
L 296.588082 -350.523287 
L 297.049362 -351.172235 
L 297.536244 -351.821183 
L 298.045588 -352.470131 
L 298.574105 -353.119079 
L 299.118402 -353.768027 
L 299.675033 -354.416975 
L 300.240542 -355.065924 
L 300.811511 -355.714872 
L 301.384603 -356.36382 
L 301.956608 -357.012768 
L 302.524475 -357.661716 
L 303.085357 -358.310664 
L 303.636632 -358.959612 
L 304.175939 -359.60856 
L 304.701191 -360.257508 
L 305.210596 -360.906456 
L 305.702664 -361.555405 
L 306.176214 -362.204353 
L 306.630372 -362.853301 
L 307.064564 -363.502249 
L 307.478507 -364.151197 
L 307.872193 -364.800145 
L 308.245869 -365.449093 
L 308.600013 -366.098041 
L 308.93531 -366.746989 
L 309.252624 -367.395938 
L 309.552967 -368.044886 
L 309.837469 -368.693834 
L 310.107348 -369.342782 
L 310.36388 -369.99173 
L 310.608368 -370.640678 
L 310.842117 -371.289626 
L 311.066405 -371.938574 
L 311.282463 -372.587522 
L 322.923937 -372.587522 
L 322.923937 -372.587522 
L 323.139995 -371.938574 
L 323.364283 -371.289626 
L 323.598032 -370.640678 
L 323.84252 -369.99173 
L 324.099052 -369.342782 
L 324.368931 -368.693834 
L 324.653433 -368.044886 
L 324.953776 -367.395938 
L 325.27109 -366.746989 
L 325.606387 -366.098041 
L 325.960531 -365.449093 
L 326.334207 -364.800145 
L 326.727893 -364.151197 
L 327.141836 -363.502249 
L 327.576028 -362.853301 
L 328.030186 -362.204353 
L 328.503736 -361.555405 
L 328.995804 -360.906456 
L 329.505209 -360.257508 
L 330.030461 -359.60856 
L 330.569768 -358.959612 
L 331.121043 -358.310664 
L 331.681925 -357.661716 
L 332.249792 -357.012768 
L 332.821797 -356.36382 
L 333.394889 -355.714872 
L 333.965858 -355.065924 
L 334.531367 -354.416975 
L 335.087998 -353.768027 
L 335.632295 -353.119079 
L 336.160812 -352.470131 
L 336.670156 -351.821183 
L 337.157038 -351.172235 
L 337.618318 -350.523287 
L 338.051045 -349.874339 
L 338.452504 -349.225391 
L 338.820247 -348.576442 
L 339.152132 -347.927494 
L 339.446347 -347.278546 
L 339.701436 -346.629598 
L 339.916315 -345.98065 
L 340.090282 -345.331702 
L 340.223024 -344.682754 
L 340.314616 -344.033806 
L 340.365509 -343.384858 
L 340.37652 -342.735909 
L 340.348813 -342.086961 
L 340.28387 -341.438013 
L 340.183468 -340.789065 
L 340.049638 -340.140117 
L 339.884637 -339.491169 
L 339.690899 -338.842221 
L 339.471002 -338.193273 
L 339.227621 -337.544325 
L 338.963487 -336.895377 
L 338.681346 -336.246428 
L 338.383918 -335.59748 
L 338.073861 -334.948532 
L 337.753731 -334.299584 
L 337.425956 -333.650636 
L 337.092802 -333.001688 
L 336.756355 -332.35274 
L 336.418497 -331.703792 
L 336.080895 -331.054844 
L 335.744987 -330.405895 
L 335.41198 -329.756947 
L 335.082848 -329.107999 
L 334.758336 -328.459051 
L 334.438966 -327.810103 
L 334.12505 -327.161155 
L 333.816705 -326.512207 
L 333.513865 -325.863259 
L 333.216308 -325.214311 
L 332.923667 -324.565362 
L 332.635463 -323.916414 
L 332.351116 -323.267466 
L 332.069976 -322.618518 
L 331.791341 -321.96957 
L 331.51448 -321.320622 
L 331.238651 -320.671674 
L 330.963121 -320.022726 
L 330.687184 -319.373778 
L 330.410175 -318.72483 
L 330.131481 -318.075881 
L 329.850556 -317.426933 
L 329.566929 -316.777985 
L 329.280206 -316.129037 
L 328.990082 -315.480089 
L 328.696339 -314.831141 
L 328.398851 -314.182193 
L 328.097579 -313.533245 
L 327.792575 -312.884297 
L 327.483974 -312.235348 
L 327.171992 -311.5864 
L 326.856924 -310.937452 
L 326.539135 -310.288504 
L 326.219053 -309.639556 
L 325.897166 -308.990608 
L 325.574014 -308.34166 
z
" style="stroke: #000000; stroke-opacity: 0.6; stroke-width: 1.5"/>
    </defs>
    <g clip-path="url(#pff088b0ce7)">
     <use xlink:href="#m5fc31cdda5" x="0" y="535.792969" style="fill: #808080; fill-opacity: 0.6; stroke: #000000; stroke-opacity: 0.6; stroke-width: 1.5"/>
    </g>
   </g>
   <g id="PolyCollection_5">
    <defs>
     <path id="m307db12464" d="M 387.016714 -345.062055 
L 380.180086 -345.062055 
L 380.170739 -345.353646 
L 380.171161 -345.645237 
L 380.180704 -345.936828 
L 380.198527 -346.228419 
L 380.223603 -346.52001 
L 380.254722 -346.811601 
L 380.290501 -347.103192 
L 380.329393 -347.394783 
L 380.3697 -347.686374 
L 380.409585 -347.977965 
L 380.447093 -348.269556 
L 380.480163 -348.561147 
L 380.506649 -348.852739 
L 380.52434 -349.14433 
L 380.530975 -349.435921 
L 380.524272 -349.727512 
L 380.501939 -350.019103 
L 380.461702 -350.310694 
L 380.401325 -350.602285 
L 380.318629 -350.893876 
L 380.211516 -351.185467 
L 380.077989 -351.477058 
L 379.916175 -351.768649 
L 379.724349 -352.06024 
L 379.500951 -352.351831 
L 379.244614 -352.643422 
L 378.954182 -352.935013 
L 378.628738 -353.226604 
L 378.267617 -353.518196 
L 377.870439 -353.809787 
L 377.437121 -354.101378 
L 376.967899 -354.392969 
L 376.463351 -354.68456 
L 375.924405 -354.976151 
L 375.35236 -355.267742 
L 374.748893 -355.559333 
L 374.116064 -355.850924 
L 373.456323 -356.142515 
L 372.772504 -356.434106 
L 372.067818 -356.725697 
L 371.345839 -357.017288 
L 370.610486 -357.308879 
L 369.865994 -357.60047 
L 369.116884 -357.892061 
L 368.367921 -358.183652 
L 367.624071 -358.475244 
L 366.890446 -358.766835 
L 366.172255 -359.058426 
L 365.474735 -359.350017 
L 364.80309 -359.641608 
L 364.162426 -359.933199 
L 363.557679 -360.22479 
L 362.993551 -360.516381 
L 362.474442 -360.807972 
L 362.004384 -361.099563 
L 361.586985 -361.391154 
L 361.225377 -361.682745 
L 360.922163 -361.974336 
L 360.679386 -362.265927 
L 360.498493 -362.557518 
L 360.38032 -362.849109 
L 360.32508 -363.1407 
L 360.332367 -363.432292 
L 360.401165 -363.723883 
L 360.529873 -364.015474 
L 360.716335 -364.307065 
L 360.957884 -364.598656 
L 361.25139 -364.890247 
L 361.593319 -365.181838 
L 361.979794 -365.473429 
L 362.406663 -365.76502 
L 362.869568 -366.056611 
L 363.364016 -366.348202 
L 363.885453 -366.639793 
L 364.429327 -366.931384 
L 364.991158 -367.222975 
L 365.566599 -367.514566 
L 366.151491 -367.806157 
L 366.741908 -368.097748 
L 367.334204 -368.38934 
L 367.925045 -368.680931 
L 368.511431 -368.972522 
L 369.090718 -369.264113 
L 369.660623 -369.555704 
L 370.219228 -369.847295 
L 370.764971 -370.138886 
L 371.296637 -370.430477 
L 371.813335 -370.722068 
L 372.314476 -371.013659 
L 372.799746 -371.30525 
L 373.269073 -371.596841 
L 373.722594 -371.888432 
L 374.160623 -372.180023 
L 374.583615 -372.471614 
L 374.992128 -372.763205 
L 375.386798 -373.054797 
L 375.768301 -373.346388 
L 376.137332 -373.637979 
L 376.494573 -373.92957 
L 390.702227 -373.92957 
L 390.702227 -373.92957 
L 391.059468 -373.637979 
L 391.428499 -373.346388 
L 391.810002 -373.054797 
L 392.204672 -372.763205 
L 392.613185 -372.471614 
L 393.036177 -372.180023 
L 393.474206 -371.888432 
L 393.927727 -371.596841 
L 394.397054 -371.30525 
L 394.882324 -371.013659 
L 395.383465 -370.722068 
L 395.900163 -370.430477 
L 396.431829 -370.138886 
L 396.977572 -369.847295 
L 397.536177 -369.555704 
L 398.106082 -369.264113 
L 398.685369 -368.972522 
L 399.271755 -368.680931 
L 399.862596 -368.38934 
L 400.454892 -368.097748 
L 401.045309 -367.806157 
L 401.630201 -367.514566 
L 402.205642 -367.222975 
L 402.767473 -366.931384 
L 403.311347 -366.639793 
L 403.832784 -366.348202 
L 404.327232 -366.056611 
L 404.790137 -365.76502 
L 405.217006 -365.473429 
L 405.603481 -365.181838 
L 405.94541 -364.890247 
L 406.238916 -364.598656 
L 406.480465 -364.307065 
L 406.666927 -364.015474 
L 406.795635 -363.723883 
L 406.864433 -363.432292 
L 406.87172 -363.1407 
L 406.81648 -362.849109 
L 406.698307 -362.557518 
L 406.517414 -362.265927 
L 406.274637 -361.974336 
L 405.971423 -361.682745 
L 405.609815 -361.391154 
L 405.192416 -361.099563 
L 404.722358 -360.807972 
L 404.203249 -360.516381 
L 403.639121 -360.22479 
L 403.034374 -359.933199 
L 402.39371 -359.641608 
L 401.722065 -359.350017 
L 401.024545 -359.058426 
L 400.306354 -358.766835 
L 399.572729 -358.475244 
L 398.828879 -358.183652 
L 398.079916 -357.892061 
L 397.330806 -357.60047 
L 396.586314 -357.308879 
L 395.850961 -357.017288 
L 395.128982 -356.725697 
L 394.424296 -356.434106 
L 393.740477 -356.142515 
L 393.080736 -355.850924 
L 392.447907 -355.559333 
L 391.84444 -355.267742 
L 391.272395 -354.976151 
L 390.733449 -354.68456 
L 390.228901 -354.392969 
L 389.759679 -354.101378 
L 389.326361 -353.809787 
L 388.929183 -353.518196 
L 388.568062 -353.226604 
L 388.242618 -352.935013 
L 387.952186 -352.643422 
L 387.695849 -352.351831 
L 387.472451 -352.06024 
L 387.280625 -351.768649 
L 387.118811 -351.477058 
L 386.985284 -351.185467 
L 386.878171 -350.893876 
L 386.795475 -350.602285 
L 386.735098 -350.310694 
L 386.694861 -350.019103 
L 386.672528 -349.727512 
L 386.665825 -349.435921 
L 386.67246 -349.14433 
L 386.690151 -348.852739 
L 386.716637 -348.561147 
L 386.749707 -348.269556 
L 386.787215 -347.977965 
L 386.8271 -347.686374 
L 386.867407 -347.394783 
L 386.906299 -347.103192 
L 386.942078 -346.811601 
L 386.973197 -346.52001 
L 386.998273 -346.228419 
L 387.016096 -345.936828 
L 387.025639 -345.645237 
L 387.026061 -345.353646 
L 387.016714 -345.062055 
z
" style="stroke: #000000; stroke-opacity: 0.6; stroke-width: 1.5"/>
    </defs>
    <g clip-path="url(#pff088b0ce7)">
     <use xlink:href="#m307db12464" x="0" y="535.792969" style="fill: #808080; fill-opacity: 0.6; stroke: #000000; stroke-opacity: 0.6; stroke-width: 1.5"/>
    </g>
   </g>
   <g id="PolyCollection_6">
    <defs>
     <path id="m514d5dcca6" d="M 454.655287 -362.320683 
L 445.531913 -362.320683 
L 445.439194 -362.504367 
L 445.351501 -362.68805 
L 445.268825 -362.871733 
L 445.191108 -363.055416 
L 445.118239 -363.239099 
L 445.05006 -363.422783 
L 444.986365 -363.606466 
L 444.9269 -363.790149 
L 444.871369 -363.973832 
L 444.81943 -364.157516 
L 444.770699 -364.341199 
L 444.72475 -364.524882 
L 444.681116 -364.708565 
L 444.63929 -364.892249 
L 444.59872 -365.075932 
L 444.558815 -365.259615 
L 444.518941 -365.443298 
L 444.478419 -365.626981 
L 444.436527 -365.810665 
L 444.392496 -365.994348 
L 444.345512 -366.178031 
L 444.294714 -366.361714 
L 444.239194 -366.545398 
L 444.178002 -366.729081 
L 444.110139 -366.912764 
L 444.034571 -367.096447 
L 443.950224 -367.280131 
L 443.855993 -367.463814 
L 443.75075 -367.647497 
L 443.63335 -367.83118 
L 443.502641 -368.014864 
L 443.357477 -368.198547 
L 443.196727 -368.38223 
L 443.019293 -368.565913 
L 442.824123 -368.749596 
L 442.610227 -368.93328 
L 442.376696 -369.116963 
L 442.122716 -369.300646 
L 441.847591 -369.484329 
L 441.550755 -369.668013 
L 441.231793 -369.851696 
L 440.890458 -370.035379 
L 440.526686 -370.219062 
L 440.14061 -370.402746 
L 439.732571 -370.586429 
L 439.303133 -370.770112 
L 438.853087 -370.953795 
L 438.383461 -371.137479 
L 437.895517 -371.321162 
L 437.390757 -371.504845 
L 436.870915 -371.688528 
L 436.337955 -371.872211 
L 435.794056 -372.055895 
L 435.241605 -372.239578 
L 434.683177 -372.423261 
L 434.121519 -372.606944 
L 433.559525 -372.790628 
L 433.000215 -372.974311 
L 432.446708 -373.157994 
L 431.902193 -373.341677 
L 431.3699 -373.525361 
L 430.853069 -373.709044 
L 430.35492 -373.892727 
L 429.878618 -374.07641 
L 429.427247 -374.260093 
L 429.003772 -374.443777 
L 428.611017 -374.62746 
L 428.251632 -374.811143 
L 427.928066 -374.994826 
L 427.642549 -375.17851 
L 427.397062 -375.362193 
L 427.193326 -375.545876 
L 427.03278 -375.729559 
L 426.916576 -375.913243 
L 426.845561 -376.096926 
L 426.82028 -376.280609 
L 426.840967 -376.464292 
L 426.907552 -376.647976 
L 427.019661 -376.831659 
L 427.176625 -377.015342 
L 427.377495 -377.199025 
L 427.621048 -377.382708 
L 427.90581 -377.566392 
L 428.230071 -377.750075 
L 428.591904 -377.933758 
L 428.989191 -378.117441 
L 429.419643 -378.301125 
L 429.880825 -378.484808 
L 430.370181 -378.668491 
L 430.885057 -378.852174 
L 431.422731 -379.035858 
L 431.980429 -379.219541 
L 432.555359 -379.403224 
L 433.144726 -379.586907 
L 433.745757 -379.770591 
L 434.355722 -379.954274 
L 434.971953 -380.137957 
L 435.59186 -380.32164 
L 436.212948 -380.505323 
L 463.974252 -380.505323 
L 463.974252 -380.505323 
L 464.59534 -380.32164 
L 465.215247 -380.137957 
L 465.831478 -379.954274 
L 466.441443 -379.770591 
L 467.042474 -379.586907 
L 467.631841 -379.403224 
L 468.206771 -379.219541 
L 468.764469 -379.035858 
L 469.302143 -378.852174 
L 469.817019 -378.668491 
L 470.306375 -378.484808 
L 470.767557 -378.301125 
L 471.198009 -378.117441 
L 471.595296 -377.933758 
L 471.957129 -377.750075 
L 472.28139 -377.566392 
L 472.566152 -377.382708 
L 472.809705 -377.199025 
L 473.010575 -377.015342 
L 473.167539 -376.831659 
L 473.279648 -376.647976 
L 473.346233 -376.464292 
L 473.36692 -376.280609 
L 473.341639 -376.096926 
L 473.270624 -375.913243 
L 473.15442 -375.729559 
L 472.993874 -375.545876 
L 472.790138 -375.362193 
L 472.544651 -375.17851 
L 472.259134 -374.994826 
L 471.935568 -374.811143 
L 471.576183 -374.62746 
L 471.183428 -374.443777 
L 470.759953 -374.260093 
L 470.308582 -374.07641 
L 469.83228 -373.892727 
L 469.334131 -373.709044 
L 468.8173 -373.525361 
L 468.285007 -373.341677 
L 467.740492 -373.157994 
L 467.186985 -372.974311 
L 466.627675 -372.790628 
L 466.065681 -372.606944 
L 465.504023 -372.423261 
L 464.945595 -372.239578 
L 464.393144 -372.055895 
L 463.849245 -371.872211 
L 463.316285 -371.688528 
L 462.796443 -371.504845 
L 462.291683 -371.321162 
L 461.803739 -371.137479 
L 461.334113 -370.953795 
L 460.884067 -370.770112 
L 460.454629 -370.586429 
L 460.04659 -370.402746 
L 459.660514 -370.219062 
L 459.296742 -370.035379 
L 458.955407 -369.851696 
L 458.636445 -369.668013 
L 458.339609 -369.484329 
L 458.064484 -369.300646 
L 457.810504 -369.116963 
L 457.576973 -368.93328 
L 457.363077 -368.749596 
L 457.167907 -368.565913 
L 456.990473 -368.38223 
L 456.829723 -368.198547 
L 456.684559 -368.014864 
L 456.55385 -367.83118 
L 456.43645 -367.647497 
L 456.331207 -367.463814 
L 456.236976 -367.280131 
L 456.152629 -367.096447 
L 456.077061 -366.912764 
L 456.009198 -366.729081 
L 455.948006 -366.545398 
L 455.892486 -366.361714 
L 455.841688 -366.178031 
L 455.794704 -365.994348 
L 455.750673 -365.810665 
L 455.708781 -365.626981 
L 455.668259 -365.443298 
L 455.628385 -365.259615 
L 455.58848 -365.075932 
L 455.54791 -364.892249 
L 455.506084 -364.708565 
L 455.46245 -364.524882 
L 455.416501 -364.341199 
L 455.36777 -364.157516 
L 455.315831 -363.973832 
L 455.2603 -363.790149 
L 455.200835 -363.606466 
L 455.13714 -363.422783 
L 455.068961 -363.239099 
L 454.996092 -363.055416 
L 454.918375 -362.871733 
L 454.835699 -362.68805 
L 454.748006 -362.504367 
L 454.655287 -362.320683 
z
" style="stroke: #000000; stroke-opacity: 0.6; stroke-width: 1.5"/>
    </defs>
    <g clip-path="url(#pff088b0ce7)">
     <use xlink:href="#m514d5dcca6" x="0" y="535.792969" style="fill: #808080; fill-opacity: 0.6; stroke: #000000; stroke-opacity: 0.6; stroke-width: 1.5"/>
    </g>
   </g>
   <g id="PolyCollection_7">
    <defs>
     <path id="mf0971d6a80" d="M 533.396151 -366.34904 
L 499.781449 -366.34904 
L 499.243906 -366.75878 
L 498.72028 -367.16852 
L 498.212388 -367.57826 
L 497.721984 -367.987999 
L 497.25075 -368.397739 
L 496.800288 -368.807479 
L 496.372113 -369.217218 
L 495.967643 -369.626958 
L 495.588198 -370.036698 
L 495.234991 -370.446437 
L 494.90913 -370.856177 
L 494.611606 -371.265917 
L 494.3433 -371.675656 
L 494.104974 -372.085396 
L 493.897276 -372.495136 
L 493.720732 -372.904875 
L 493.575751 -373.314615 
L 493.462623 -373.724355 
L 493.38152 -374.134094 
L 493.332495 -374.543834 
L 493.31548 -374.953574 
L 493.330292 -375.363313 
L 493.37663 -375.773053 
L 493.454076 -376.182793 
L 493.562096 -376.592532 
L 493.700042 -377.002272 
L 493.867153 -377.412012 
L 494.062558 -377.821751 
L 494.285278 -378.231491 
L 494.534226 -378.641231 
L 494.808218 -379.05097 
L 495.105969 -379.46071 
L 495.426105 -379.87045 
L 495.767166 -380.280189 
L 496.127613 -380.689929 
L 496.505839 -381.099669 
L 496.900173 -381.509408 
L 497.308894 -381.919148 
L 497.730238 -382.328888 
L 498.162413 -382.738627 
L 498.603608 -383.148367 
L 499.052006 -383.558107 
L 499.505797 -383.967846 
L 499.963188 -384.377586 
L 500.42242 -384.787326 
L 500.881777 -385.197065 
L 501.339599 -385.606805 
L 501.794293 -386.016545 
L 502.244342 -386.426284 
L 502.688319 -386.836024 
L 503.124889 -387.245764 
L 503.552824 -387.655503 
L 503.970999 -388.065243 
L 504.378408 -388.474983 
L 504.774156 -388.884722 
L 505.15747 -389.294462 
L 505.527693 -389.704202 
L 505.884288 -390.113941 
L 506.22683 -390.523681 
L 506.555009 -390.933421 
L 506.86862 -391.34316 
L 507.167563 -391.7529 
L 507.451834 -392.16264 
L 507.721517 -392.572379 
L 507.976781 -392.982119 
L 508.217871 -393.391859 
L 508.445101 -393.801598 
L 508.658847 -394.211338 
L 508.859538 -394.621078 
L 509.047654 -395.030818 
L 509.223714 -395.440557 
L 509.388276 -395.850297 
L 509.541925 -396.260037 
L 509.685276 -396.669776 
L 509.818962 -397.079516 
L 509.943635 -397.489256 
L 510.05996 -397.898995 
L 510.168612 -398.308735 
L 510.270276 -398.718475 
L 510.365641 -399.128214 
L 510.455396 -399.537954 
L 510.540235 -399.947694 
L 510.620845 -400.357433 
L 510.69791 -400.767173 
L 510.772106 -401.176913 
L 510.844098 -401.586652 
L 510.914539 -401.996392 
L 510.984061 -402.406132 
L 511.05328 -402.815871 
L 511.122784 -403.225611 
L 511.193133 -403.635351 
L 511.264858 -404.04509 
L 511.338449 -404.45483 
L 511.41436 -404.86457 
L 511.492997 -405.274309 
L 511.574722 -405.684049 
L 511.659843 -406.093789 
L 511.748614 -406.503528 
L 511.841237 -406.913268 
L 521.336363 -406.913268 
L 521.336363 -406.913268 
L 521.428986 -406.503528 
L 521.517757 -406.093789 
L 521.602878 -405.684049 
L 521.684603 -405.274309 
L 521.76324 -404.86457 
L 521.839151 -404.45483 
L 521.912742 -404.04509 
L 521.984467 -403.635351 
L 522.054816 -403.225611 
L 522.12432 -402.815871 
L 522.193539 -402.406132 
L 522.263061 -401.996392 
L 522.333502 -401.586652 
L 522.405494 -401.176913 
L 522.47969 -400.767173 
L 522.556755 -400.357433 
L 522.637365 -399.947694 
L 522.722204 -399.537954 
L 522.811959 -399.128214 
L 522.907324 -398.718475 
L 523.008988 -398.308735 
L 523.11764 -397.898995 
L 523.233965 -397.489256 
L 523.358638 -397.079516 
L 523.492324 -396.669776 
L 523.635675 -396.260037 
L 523.789324 -395.850297 
L 523.953886 -395.440557 
L 524.129946 -395.030818 
L 524.318062 -394.621078 
L 524.518753 -394.211338 
L 524.732499 -393.801598 
L 524.959729 -393.391859 
L 525.200819 -392.982119 
L 525.456083 -392.572379 
L 525.725766 -392.16264 
L 526.010037 -391.7529 
L 526.30898 -391.34316 
L 526.622591 -390.933421 
L 526.95077 -390.523681 
L 527.293312 -390.113941 
L 527.649907 -389.704202 
L 528.02013 -389.294462 
L 528.403444 -388.884722 
L 528.799192 -388.474983 
L 529.206601 -388.065243 
L 529.624776 -387.655503 
L 530.052711 -387.245764 
L 530.489281 -386.836024 
L 530.933258 -386.426284 
L 531.383307 -386.016545 
L 531.838001 -385.606805 
L 532.295823 -385.197065 
L 532.75518 -384.787326 
L 533.214412 -384.377586 
L 533.671803 -383.967846 
L 534.125594 -383.558107 
L 534.573992 -383.148367 
L 535.015187 -382.738627 
L 535.447362 -382.328888 
L 535.868706 -381.919148 
L 536.277427 -381.509408 
L 536.671761 -381.099669 
L 537.049987 -380.689929 
L 537.410434 -380.280189 
L 537.751495 -379.87045 
L 538.071631 -379.46071 
L 538.369382 -379.05097 
L 538.643374 -378.641231 
L 538.892322 -378.231491 
L 539.115042 -377.821751 
L 539.310447 -377.412012 
L 539.477558 -377.002272 
L 539.615504 -376.592532 
L 539.723524 -376.182793 
L 539.80097 -375.773053 
L 539.847308 -375.363313 
L 539.86212 -374.953574 
L 539.845105 -374.543834 
L 539.79608 -374.134094 
L 539.714977 -373.724355 
L 539.601849 -373.314615 
L 539.456868 -372.904875 
L 539.280324 -372.495136 
L 539.072626 -372.085396 
L 538.8343 -371.675656 
L 538.565994 -371.265917 
L 538.26847 -370.856177 
L 537.942609 -370.446437 
L 537.589402 -370.036698 
L 537.209957 -369.626958 
L 536.805487 -369.217218 
L 536.377312 -368.807479 
L 535.92685 -368.397739 
L 535.455616 -367.987999 
L 534.965212 -367.57826 
L 534.45732 -367.16852 
L 533.933694 -366.75878 
L 533.396151 -366.34904 
z
" style="stroke: #000000; stroke-opacity: 0.6; stroke-width: 1.5"/>
    </defs>
    <g clip-path="url(#pff088b0ce7)">
     <use xlink:href="#mf0971d6a80" x="0" y="535.792969" style="fill: #808080; fill-opacity: 0.6; stroke: #000000; stroke-opacity: 0.6; stroke-width: 1.5"/>
    </g>
   </g>
   <g id="PolyCollection_8">
    <defs>
     <path id="m28ad1d9064" d="M 604.911823 -380.642722 
L 561.256177 -380.642722 
L 560.981383 -380.827379 
L 560.734465 -381.012036 
L 560.516084 -381.196694 
L 560.326757 -381.381351 
L 560.166851 -381.566008 
L 560.036578 -381.750665 
L 559.935998 -381.935322 
L 559.865014 -382.119979 
L 559.823376 -382.304636 
L 559.81068 -382.489293 
L 559.826374 -382.67395 
L 559.86976 -382.858608 
L 559.940001 -383.043265 
L 560.036129 -383.227922 
L 560.157048 -383.412579 
L 560.301547 -383.597236 
L 560.468307 -383.781893 
L 560.655914 -383.96655 
L 560.862867 -384.151207 
L 561.087588 -384.335864 
L 561.328441 -384.520522 
L 561.583735 -384.705179 
L 561.851744 -384.889836 
L 562.130715 -385.074493 
L 562.418882 -385.25915 
L 562.71448 -385.443807 
L 563.015755 -385.628464 
L 563.320976 -385.813121 
L 563.628448 -385.997778 
L 563.936522 -386.182435 
L 564.243606 -386.367093 
L 564.548173 -386.55175 
L 564.848773 -386.736407 
L 565.144038 -386.921064 
L 565.432692 -387.105721 
L 565.713554 -387.290378 
L 565.985549 -387.475035 
L 566.247707 -387.659692 
L 566.499169 -387.844349 
L 566.73919 -388.029007 
L 566.967141 -388.213664 
L 567.182507 -388.398321 
L 567.384893 -388.582978 
L 567.574015 -388.767635 
L 567.749704 -388.952292 
L 567.911901 -389.136949 
L 568.060656 -389.321606 
L 568.196121 -389.506263 
L 568.318546 -389.690921 
L 568.428275 -389.875578 
L 568.525741 -390.060235 
L 568.611457 -390.244892 
L 568.686013 -390.429549 
L 568.750065 -390.614206 
L 568.804333 -390.798863 
L 568.849589 -390.98352 
L 568.886653 -391.168177 
L 568.916384 -391.352834 
L 568.939676 -391.537492 
L 568.957445 -391.722149 
L 568.970625 -391.906806 
L 568.980165 -392.091463 
L 568.987014 -392.27612 
L 568.992122 -392.460777 
L 568.99643 -392.645434 
L 569.000864 -392.830091 
L 569.006331 -393.014748 
L 569.013715 -393.199406 
L 569.023868 -393.384063 
L 569.03761 -393.56872 
L 569.055722 -393.753377 
L 569.078944 -393.938034 
L 569.10797 -394.122691 
L 569.143449 -394.307348 
L 569.185977 -394.492005 
L 569.236098 -394.676662 
L 569.294306 -394.86132 
L 569.361034 -395.045977 
L 569.436664 -395.230634 
L 569.521517 -395.415291 
L 569.61586 -395.599948 
L 569.7199 -395.784605 
L 569.83379 -395.969262 
L 569.957624 -396.153919 
L 570.091443 -396.338576 
L 570.235231 -396.523233 
L 570.38892 -396.707891 
L 570.552391 -396.892548 
L 570.725474 -397.077205 
L 570.907953 -397.261862 
L 571.099565 -397.446519 
L 571.300004 -397.631176 
L 571.508922 -397.815833 
L 571.725934 -398.00049 
L 571.950621 -398.185147 
L 572.182527 -398.369805 
L 572.421171 -398.554462 
L 572.666043 -398.739119 
L 572.91661 -398.923776 
L 593.25139 -398.923776 
L 593.25139 -398.923776 
L 593.501957 -398.739119 
L 593.746829 -398.554462 
L 593.985473 -398.369805 
L 594.217379 -398.185147 
L 594.442066 -398.00049 
L 594.659078 -397.815833 
L 594.867996 -397.631176 
L 595.068435 -397.446519 
L 595.260047 -397.261862 
L 595.442526 -397.077205 
L 595.615609 -396.892548 
L 595.77908 -396.707891 
L 595.932769 -396.523233 
L 596.076557 -396.338576 
L 596.210376 -396.153919 
L 596.33421 -395.969262 
L 596.4481 -395.784605 
L 596.55214 -395.599948 
L 596.646483 -395.415291 
L 596.731336 -395.230634 
L 596.806966 -395.045977 
L 596.873694 -394.86132 
L 596.931902 -394.676662 
L 596.982023 -394.492005 
L 597.024551 -394.307348 
L 597.06003 -394.122691 
L 597.089056 -393.938034 
L 597.112278 -393.753377 
L 597.13039 -393.56872 
L 597.144132 -393.384063 
L 597.154285 -393.199406 
L 597.161669 -393.014748 
L 597.167136 -392.830091 
L 597.17157 -392.645434 
L 597.175878 -392.460777 
L 597.180986 -392.27612 
L 597.187835 -392.091463 
L 597.197375 -391.906806 
L 597.210555 -391.722149 
L 597.228324 -391.537492 
L 597.251616 -391.352834 
L 597.281347 -391.168177 
L 597.318411 -390.98352 
L 597.363667 -390.798863 
L 597.417935 -390.614206 
L 597.481987 -390.429549 
L 597.556543 -390.244892 
L 597.642259 -390.060235 
L 597.739725 -389.875578 
L 597.849454 -389.690921 
L 597.971879 -389.506263 
L 598.107344 -389.321606 
L 598.256099 -389.136949 
L 598.418296 -388.952292 
L 598.593985 -388.767635 
L 598.783107 -388.582978 
L 598.985493 -388.398321 
L 599.200859 -388.213664 
L 599.42881 -388.029007 
L 599.668831 -387.844349 
L 599.920293 -387.659692 
L 600.182451 -387.475035 
L 600.454446 -387.290378 
L 600.735308 -387.105721 
L 601.023962 -386.921064 
L 601.319227 -386.736407 
L 601.619827 -386.55175 
L 601.924394 -386.367093 
L 602.231478 -386.182435 
L 602.539552 -385.997778 
L 602.847024 -385.813121 
L 603.152245 -385.628464 
L 603.45352 -385.443807 
L 603.749118 -385.25915 
L 604.037285 -385.074493 
L 604.316256 -384.889836 
L 604.584265 -384.705179 
L 604.839559 -384.520522 
L 605.080412 -384.335864 
L 605.305133 -384.151207 
L 605.512086 -383.96655 
L 605.699693 -383.781893 
L 605.866453 -383.597236 
L 606.010952 -383.412579 
L 606.131871 -383.227922 
L 606.227999 -383.043265 
L 606.29824 -382.858608 
L 606.341626 -382.67395 
L 606.35732 -382.489293 
L 606.344624 -382.304636 
L 606.302986 -382.119979 
L 606.232002 -381.935322 
L 606.131422 -381.750665 
L 606.001149 -381.566008 
L 605.841243 -381.381351 
L 605.651916 -381.196694 
L 605.433535 -381.012036 
L 605.186617 -380.827379 
L 604.911823 -380.642722 
z
" style="stroke: #000000; stroke-opacity: 0.6; stroke-width: 1.5"/>
    </defs>
    <g clip-path="url(#pff088b0ce7)">
     <use xlink:href="#m28ad1d9064" x="0" y="535.792969" style="fill: #808080; fill-opacity: 0.6; stroke: #000000; stroke-opacity: 0.6; stroke-width: 1.5"/>
    </g>
   </g>
   <g id="PolyCollection_9">
    <defs>
     <path id="mc305c21cd5" d="M 658.651421 -368.320579 
L 640.506979 -368.320579 
L 640.34276 -368.616657 
L 640.1858 -368.912734 
L 640.035175 -369.208812 
L 639.889799 -369.50489 
L 639.748436 -369.800968 
L 639.609714 -370.097045 
L 639.472147 -370.393123 
L 639.334149 -370.689201 
L 639.194062 -370.985279 
L 639.050177 -371.281357 
L 638.900762 -371.577434 
L 638.744083 -371.873512 
L 638.578439 -372.16959 
L 638.402183 -372.465668 
L 638.213753 -372.761746 
L 638.011697 -373.057823 
L 637.794698 -373.353901 
L 637.561601 -373.649979 
L 637.311433 -373.946057 
L 637.043425 -374.242134 
L 636.75703 -374.538212 
L 636.451941 -374.83429 
L 636.128097 -375.130368 
L 635.785703 -375.426446 
L 635.425229 -375.722523 
L 635.047418 -376.018601 
L 634.653283 -376.314679 
L 634.244108 -376.610757 
L 633.821439 -376.906835 
L 633.387075 -377.202912 
L 632.943055 -377.49899 
L 632.491645 -377.795068 
L 632.035312 -378.091146 
L 631.576713 -378.387223 
L 631.118661 -378.683301 
L 630.664104 -378.979379 
L 630.216095 -379.275457 
L 629.777763 -379.571535 
L 629.352277 -379.867612 
L 628.942818 -380.16369 
L 628.552545 -380.459768 
L 628.184556 -380.755846 
L 627.84186 -381.051924 
L 627.52734 -381.348001 
L 627.243721 -381.644079 
L 626.993541 -381.940157 
L 626.779115 -382.236235 
L 626.602517 -382.532313 
L 626.465545 -382.82839 
L 626.369707 -383.124468 
L 626.316196 -383.420546 
L 626.30588 -383.716624 
L 626.339286 -384.012701 
L 626.416594 -384.308779 
L 626.537634 -384.604857 
L 626.701889 -384.900935 
L 626.908495 -385.197013 
L 627.156254 -385.49309 
L 627.443648 -385.789168 
L 627.768855 -386.085246 
L 628.129771 -386.381324 
L 628.524036 -386.677402 
L 628.949061 -386.973479 
L 629.402059 -387.269557 
L 629.880077 -387.565635 
L 630.380033 -387.861713 
L 630.898752 -388.15779 
L 631.432999 -388.453868 
L 631.979523 -388.749946 
L 632.535085 -389.046024 
L 633.096501 -389.342102 
L 633.660673 -389.638179 
L 634.22462 -389.934257 
L 634.785509 -390.230335 
L 635.340683 -390.526413 
L 635.887684 -390.822491 
L 636.42427 -391.118568 
L 636.948437 -391.414646 
L 637.458426 -391.710724 
L 637.952737 -392.006802 
L 638.430128 -392.302879 
L 638.88962 -392.598957 
L 639.330492 -392.895035 
L 639.752274 -393.191113 
L 640.154738 -393.487191 
L 640.537884 -393.783268 
L 640.901922 -394.079346 
L 641.247258 -394.375424 
L 641.57447 -394.671502 
L 641.884288 -394.96758 
L 642.177571 -395.263657 
L 642.455282 -395.559735 
L 642.718466 -395.855813 
L 642.968224 -396.151891 
L 643.205696 -396.447969 
L 643.432032 -396.744046 
L 643.648375 -397.040124 
L 643.855841 -397.336202 
L 644.055505 -397.63228 
L 655.102895 -397.63228 
L 655.102895 -397.63228 
L 655.302559 -397.336202 
L 655.510025 -397.040124 
L 655.726368 -396.744046 
L 655.952704 -396.447969 
L 656.190176 -396.151891 
L 656.439934 -395.855813 
L 656.703118 -395.559735 
L 656.980829 -395.263657 
L 657.274112 -394.96758 
L 657.58393 -394.671502 
L 657.911142 -394.375424 
L 658.256478 -394.079346 
L 658.620516 -393.783268 
L 659.003662 -393.487191 
L 659.406126 -393.191113 
L 659.827908 -392.895035 
L 660.26878 -392.598957 
L 660.728272 -392.302879 
L 661.205663 -392.006802 
L 661.699974 -391.710724 
L 662.209963 -391.414646 
L 662.73413 -391.118568 
L 663.270716 -390.822491 
L 663.817717 -390.526413 
L 664.372891 -390.230335 
L 664.93378 -389.934257 
L 665.497727 -389.638179 
L 666.061899 -389.342102 
L 666.623315 -389.046024 
L 667.178877 -388.749946 
L 667.725401 -388.453868 
L 668.259648 -388.15779 
L 668.778367 -387.861713 
L 669.278323 -387.565635 
L 669.756341 -387.269557 
L 670.209339 -386.973479 
L 670.634364 -386.677402 
L 671.028629 -386.381324 
L 671.389545 -386.085246 
L 671.714752 -385.789168 
L 672.002146 -385.49309 
L 672.249905 -385.197013 
L 672.456511 -384.900935 
L 672.620766 -384.604857 
L 672.741806 -384.308779 
L 672.819114 -384.012701 
L 672.85252 -383.716624 
L 672.842204 -383.420546 
L 672.788693 -383.124468 
L 672.692855 -382.82839 
L 672.555883 -382.532313 
L 672.379285 -382.236235 
L 672.164859 -381.940157 
L 671.914679 -381.644079 
L 671.63106 -381.348001 
L 671.31654 -381.051924 
L 670.973844 -380.755846 
L 670.605855 -380.459768 
L 670.215582 -380.16369 
L 669.806123 -379.867612 
L 669.380637 -379.571535 
L 668.942305 -379.275457 
L 668.494296 -378.979379 
L 668.039739 -378.683301 
L 667.581687 -378.387223 
L 667.123088 -378.091146 
L 666.666755 -377.795068 
L 666.215345 -377.49899 
L 665.771325 -377.202912 
L 665.336961 -376.906835 
L 664.914292 -376.610757 
L 664.505117 -376.314679 
L 664.110982 -376.018601 
L 663.733171 -375.722523 
L 663.372697 -375.426446 
L 663.030303 -375.130368 
L 662.706459 -374.83429 
L 662.40137 -374.538212 
L 662.114975 -374.242134 
L 661.846967 -373.946057 
L 661.596799 -373.649979 
L 661.363702 -373.353901 
L 661.146703 -373.057823 
L 660.944647 -372.761746 
L 660.756217 -372.465668 
L 660.579961 -372.16959 
L 660.414317 -371.873512 
L 660.257638 -371.577434 
L 660.108223 -371.281357 
L 659.964338 -370.985279 
L 659.824251 -370.689201 
L 659.686253 -370.393123 
L 659.548686 -370.097045 
L 659.409964 -369.800968 
L 659.268601 -369.50489 
L 659.123225 -369.208812 
L 658.9726 -368.912734 
L 658.81564 -368.616657 
L 658.651421 -368.320579 
z
" style="stroke: #000000; stroke-opacity: 0.6; stroke-width: 1.5"/>
    </defs>
    <g clip-path="url(#pff088b0ce7)">
     <use xlink:href="#mc305c21cd5" x="0" y="535.792969" style="fill: #808080; fill-opacity: 0.6; stroke: #000000; stroke-opacity: 0.6; stroke-width: 1.5"/>
    </g>
   </g>
   <g id="PolyCollection_10">
    <defs>
     <path id="m385152bdc0" d="M 723.254766 -362.702817 
L 708.894034 -362.702817 
L 708.700282 -362.923487 
L 708.511381 -363.144157 
L 708.327584 -363.364827 
L 708.149085 -363.585498 
L 707.976023 -363.806168 
L 707.808473 -364.026838 
L 707.646448 -364.247508 
L 707.489898 -364.468179 
L 707.338706 -364.688849 
L 707.192692 -364.909519 
L 707.051611 -365.13019 
L 706.915153 -365.35086 
L 706.782946 -365.57153 
L 706.654557 -365.7922 
L 706.529491 -366.012871 
L 706.4072 -366.233541 
L 706.28708 -366.454211 
L 706.168479 -366.674881 
L 706.050696 -366.895552 
L 705.932991 -367.116222 
L 705.814585 -367.336892 
L 705.694668 -367.557562 
L 705.572406 -367.778233 
L 705.446942 -367.998903 
L 705.31741 -368.219573 
L 705.182936 -368.440244 
L 705.042649 -368.660914 
L 704.895689 -368.881584 
L 704.741214 -369.102254 
L 704.578409 -369.322925 
L 704.406497 -369.543595 
L 704.224746 -369.764265 
L 704.032482 -369.984935 
L 703.829092 -370.205606 
L 703.614043 -370.426276 
L 703.386881 -370.646946 
L 703.14725 -370.867616 
L 702.894894 -371.088287 
L 702.629668 -371.308957 
L 702.351545 -371.529627 
L 702.060625 -371.750298 
L 701.757137 -371.970968 
L 701.441448 -372.191638 
L 701.114065 -372.412308 
L 700.775636 -372.632979 
L 700.426953 -372.853649 
L 700.068952 -373.074319 
L 699.70271 -373.294989 
L 699.329439 -373.51566 
L 698.950487 -373.73633 
L 698.567325 -373.957 
L 698.181541 -374.17767 
L 697.79483 -374.398341 
L 697.408982 -374.619011 
L 697.025869 -374.839681 
L 696.647431 -375.060351 
L 696.275662 -375.281022 
L 695.912589 -375.501692 
L 695.560263 -375.722362 
L 695.220733 -375.943033 
L 694.896035 -376.163703 
L 694.588168 -376.384373 
L 694.299083 -376.605043 
L 694.03066 -376.825714 
L 693.784694 -377.046384 
L 693.56288 -377.267054 
L 693.366793 -377.487724 
L 693.197882 -377.708395 
L 693.057451 -377.929065 
L 692.946652 -378.149735 
L 692.866473 -378.370405 
L 692.817735 -378.591076 
L 692.80108 -378.811746 
L 692.816974 -379.032416 
L 692.865698 -379.253087 
L 692.947354 -379.473757 
L 693.061862 -379.694427 
L 693.208966 -379.915097 
L 693.388234 -380.135768 
L 693.599072 -380.356438 
L 693.840723 -380.577108 
L 694.112282 -380.797778 
L 694.412702 -381.018449 
L 694.740805 -381.239119 
L 695.095296 -381.459789 
L 695.474771 -381.680459 
L 695.87773 -381.90113 
L 696.302593 -382.1218 
L 696.747708 -382.34247 
L 697.211366 -382.563141 
L 697.691813 -382.783811 
L 698.187262 -383.004481 
L 698.695906 -383.225151 
L 699.215926 -383.445822 
L 699.745506 -383.666492 
L 700.282842 -383.887162 
L 700.82615 -384.107832 
L 701.373678 -384.328503 
L 701.923712 -384.549173 
L 730.225088 -384.549173 
L 730.225088 -384.549173 
L 730.775122 -384.328503 
L 731.32265 -384.107832 
L 731.865958 -383.887162 
L 732.403294 -383.666492 
L 732.932874 -383.445822 
L 733.452894 -383.225151 
L 733.961538 -383.004481 
L 734.456987 -382.783811 
L 734.937434 -382.563141 
L 735.401092 -382.34247 
L 735.846207 -382.1218 
L 736.27107 -381.90113 
L 736.674029 -381.680459 
L 737.053504 -381.459789 
L 737.407995 -381.239119 
L 737.736098 -381.018449 
L 738.036518 -380.797778 
L 738.308077 -380.577108 
L 738.549728 -380.356438 
L 738.760566 -380.135768 
L 738.939834 -379.915097 
L 739.086938 -379.694427 
L 739.201446 -379.473757 
L 739.283102 -379.253087 
L 739.331826 -379.032416 
L 739.34772 -378.811746 
L 739.331065 -378.591076 
L 739.282327 -378.370405 
L 739.202148 -378.149735 
L 739.091349 -377.929065 
L 738.950918 -377.708395 
L 738.782007 -377.487724 
L 738.58592 -377.267054 
L 738.364106 -377.046384 
L 738.11814 -376.825714 
L 737.849717 -376.605043 
L 737.560632 -376.384373 
L 737.252765 -376.163703 
L 736.928067 -375.943033 
L 736.588537 -375.722362 
L 736.236211 -375.501692 
L 735.873138 -375.281022 
L 735.501369 -375.060351 
L 735.122931 -374.839681 
L 734.739818 -374.619011 
L 734.35397 -374.398341 
L 733.967259 -374.17767 
L 733.581475 -373.957 
L 733.198313 -373.73633 
L 732.819361 -373.51566 
L 732.44609 -373.294989 
L 732.079848 -373.074319 
L 731.721847 -372.853649 
L 731.373164 -372.632979 
L 731.034735 -372.412308 
L 730.707352 -372.191638 
L 730.391663 -371.970968 
L 730.088175 -371.750298 
L 729.797255 -371.529627 
L 729.519132 -371.308957 
L 729.253906 -371.088287 
L 729.00155 -370.867616 
L 728.761919 -370.646946 
L 728.534757 -370.426276 
L 728.319708 -370.205606 
L 728.116318 -369.984935 
L 727.924054 -369.764265 
L 727.742303 -369.543595 
L 727.570391 -369.322925 
L 727.407586 -369.102254 
L 727.253111 -368.881584 
L 727.106151 -368.660914 
L 726.965864 -368.440244 
L 726.83139 -368.219573 
L 726.701858 -367.998903 
L 726.576394 -367.778233 
L 726.454132 -367.557562 
L 726.334215 -367.336892 
L 726.215809 -367.116222 
L 726.098104 -366.895552 
L 725.980321 -366.674881 
L 725.86172 -366.454211 
L 725.7416 -366.233541 
L 725.619309 -366.012871 
L 725.494243 -365.7922 
L 725.365854 -365.57153 
L 725.233647 -365.35086 
L 725.097189 -365.13019 
L 724.956108 -364.909519 
L 724.810094 -364.688849 
L 724.658902 -364.468179 
L 724.502352 -364.247508 
L 724.340327 -364.026838 
L 724.172777 -363.806168 
L 723.999715 -363.585498 
L 723.821216 -363.364827 
L 723.637419 -363.144157 
L 723.448518 -362.923487 
L 723.254766 -362.702817 
z
" style="stroke: #000000; stroke-opacity: 0.6; stroke-width: 1.5"/>
    </defs>
    <g clip-path="url(#pff088b0ce7)">
     <use xlink:href="#m385152bdc0" x="0" y="535.792969" style="fill: #808080; fill-opacity: 0.6; stroke: #000000; stroke-opacity: 0.6; stroke-width: 1.5"/>
    </g>
   </g>
   <g id="matplotlib.axis_1">
    <g id="xtick_1">
     <g id="line2d_1">
      <path d="M 117.6176 463.785156 
L 117.6176 16.505156 
" clip-path="url(#pff088b0ce7)" style="fill: none; stroke-dasharray: 1.85,0.8; stroke-dashoffset: 0; stroke: #b0b0b0; stroke-opacity: 0.3; stroke-width: 0.5"/>
     </g>
     <g id="line2d_2">
      <defs>
       <path id="mbcb02aef95" d="M 0 0 
L 0 3.5 
" style="stroke: #000000; stroke-width: 0.8"/>
      </defs>
      <g>
       <use xlink:href="#mbcb02aef95" x="117.6176" y="463.785156" style="stroke: #000000; stroke-width: 0.8"/>
      </g>
     </g>
     <g id="text_1">
      <text style="font: 26px 'Arial', sans-serif; text-anchor: middle" x="117.6176" y="489.395469" transform="rotate(-0 117.6176 489.395469)">1</text>
     </g>
    </g>
    <g id="xtick_2">
     <g id="line2d_3">
      <path d="M 184.1128 463.785156 
L 184.1128 16.505156 
" clip-path="url(#pff088b0ce7)" style="fill: none; stroke-dasharray: 1.85,0.8; stroke-dashoffset: 0; stroke: #b0b0b0; stroke-opacity: 0.3; stroke-width: 0.5"/>
     </g>
     <g id="line2d_4">
      <g>
       <use xlink:href="#mbcb02aef95" x="184.1128" y="463.785156" style="stroke: #000000; stroke-width: 0.8"/>
      </g>
     </g>
     <g id="text_2">
      <text style="font: 26px 'Arial', sans-serif; text-anchor: middle" x="184.1128" y="489.395469" transform="rotate(-0 184.1128 489.395469)">2</text>
     </g>
    </g>
    <g id="xtick_3">
     <g id="line2d_5">
      <path d="M 250.608 463.785156 
L 250.608 16.505156 
" clip-path="url(#pff088b0ce7)" style="fill: none; stroke-dasharray: 1.85,0.8; stroke-dashoffset: 0; stroke: #b0b0b0; stroke-opacity: 0.3; stroke-width: 0.5"/>
     </g>
     <g id="line2d_6">
      <g>
       <use xlink:href="#mbcb02aef95" x="250.608" y="463.785156" style="stroke: #000000; stroke-width: 0.8"/>
      </g>
     </g>
     <g id="text_3">
      <text style="font: 26px 'Arial', sans-serif; text-anchor: middle" x="250.608" y="489.395469" transform="rotate(-0 250.608 489.395469)">3</text>
     </g>
    </g>
    <g id="xtick_4">
     <g id="line2d_7">
      <path d="M 317.1032 463.785156 
L 317.1032 16.505156 
" clip-path="url(#pff088b0ce7)" style="fill: none; stroke-dasharray: 1.85,0.8; stroke-dashoffset: 0; stroke: #b0b0b0; stroke-opacity: 0.3; stroke-width: 0.5"/>
     </g>
     <g id="line2d_8">
      <g>
       <use xlink:href="#mbcb02aef95" x="317.1032" y="463.785156" style="stroke: #000000; stroke-width: 0.8"/>
      </g>
     </g>
     <g id="text_4">
      <text style="font: 26px 'Arial', sans-serif; text-anchor: middle" x="317.1032" y="489.395469" transform="rotate(-0 317.1032 489.395469)">4</text>
     </g>
    </g>
    <g id="xtick_5">
     <g id="line2d_9">
      <path d="M 383.5984 463.785156 
L 383.5984 16.505156 
" clip-path="url(#pff088b0ce7)" style="fill: none; stroke-dasharray: 1.85,0.8; stroke-dashoffset: 0; stroke: #b0b0b0; stroke-opacity: 0.3; stroke-width: 0.5"/>
     </g>
     <g id="line2d_10">
      <g>
       <use xlink:href="#mbcb02aef95" x="383.5984" y="463.785156" style="stroke: #000000; stroke-width: 0.8"/>
      </g>
     </g>
     <g id="text_5">
      <text style="font: 26px 'Arial', sans-serif; text-anchor: middle" x="383.5984" y="489.395469" transform="rotate(-0 383.5984 489.395469)">5</text>
     </g>
    </g>
    <g id="xtick_6">
     <g id="line2d_11">
      <path d="M 450.0936 463.785156 
L 450.0936 16.505156 
" clip-path="url(#pff088b0ce7)" style="fill: none; stroke-dasharray: 1.85,0.8; stroke-dashoffset: 0; stroke: #b0b0b0; stroke-opacity: 0.3; stroke-width: 0.5"/>
     </g>
     <g id="line2d_12">
      <g>
       <use xlink:href="#mbcb02aef95" x="450.0936" y="463.785156" style="stroke: #000000; stroke-width: 0.8"/>
      </g>
     </g>
     <g id="text_6">
      <text style="font: 26px 'Arial', sans-serif; text-anchor: middle" x="450.0936" y="489.395469" transform="rotate(-0 450.0936 489.395469)">6</text>
     </g>
    </g>
    <g id="xtick_7">
     <g id="line2d_13">
      <path d="M 516.5888 463.785156 
L 516.5888 16.505156 
" clip-path="url(#pff088b0ce7)" style="fill: none; stroke-dasharray: 1.85,0.8; stroke-dashoffset: 0; stroke: #b0b0b0; stroke-opacity: 0.3; stroke-width: 0.5"/>
     </g>
     <g id="line2d_14">
      <g>
       <use xlink:href="#mbcb02aef95" x="516.5888" y="463.785156" style="stroke: #000000; stroke-width: 0.8"/>
      </g>
     </g>
     <g id="text_7">
      <text style="font: 26px 'Arial', sans-serif; text-anchor: middle" x="516.5888" y="489.395469" transform="rotate(-0 516.5888 489.395469)">7</text>
     </g>
    </g>
    <g id="xtick_8">
     <g id="line2d_15">
      <path d="M 583.084 463.785156 
L 583.084 16.505156 
" clip-path="url(#pff088b0ce7)" style="fill: none; stroke-dasharray: 1.85,0.8; stroke-dashoffset: 0; stroke: #b0b0b0; stroke-opacity: 0.3; stroke-width: 0.5"/>
     </g>
     <g id="line2d_16">
      <g>
       <use xlink:href="#mbcb02aef95" x="583.084" y="463.785156" style="stroke: #000000; stroke-width: 0.8"/>
      </g>
     </g>
     <g id="text_8">
      <text style="font: 26px 'Arial', sans-serif; text-anchor: middle" x="583.084" y="489.395469" transform="rotate(-0 583.084 489.395469)">8</text>
     </g>
    </g>
    <g id="xtick_9">
     <g id="line2d_17">
      <path d="M 649.5792 463.785156 
L 649.5792 16.505156 
" clip-path="url(#pff088b0ce7)" style="fill: none; stroke-dasharray: 1.85,0.8; stroke-dashoffset: 0; stroke: #b0b0b0; stroke-opacity: 0.3; stroke-width: 0.5"/>
     </g>
     <g id="line2d_18">
      <g>
       <use xlink:href="#mbcb02aef95" x="649.5792" y="463.785156" style="stroke: #000000; stroke-width: 0.8"/>
      </g>
     </g>
     <g id="text_9">
      <text style="font: 26px 'Arial', sans-serif; text-anchor: middle" x="649.5792" y="489.395469" transform="rotate(-0 649.5792 489.395469)">9</text>
     </g>
    </g>
    <g id="xtick_10">
     <g id="line2d_19">
      <path d="M 716.0744 463.785156 
L 716.0744 16.505156 
" clip-path="url(#pff088b0ce7)" style="fill: none; stroke-dasharray: 1.85,0.8; stroke-dashoffset: 0; stroke: #b0b0b0; stroke-opacity: 0.3; stroke-width: 0.5"/>
     </g>
     <g id="line2d_20">
      <g>
       <use xlink:href="#mbcb02aef95" x="716.0744" y="463.785156" style="stroke: #000000; stroke-width: 0.8"/>
      </g>
     </g>
     <g id="text_10">
      <text style="font: 26px 'Arial', sans-serif; text-anchor: middle" x="716.0744" y="489.395469" transform="rotate(-0 716.0744 489.395469)">10</text>
     </g>
    </g>
    <g id="text_11">
     <text style="font: 32px 'Arial', sans-serif; text-anchor: middle" x="416.846" y="521.857969" transform="rotate(-0 416.846 521.857969)">Measurement Window (s)</text>
    </g>
   </g>
   <g id="matplotlib.axis_2">
    <g id="ytick_1">
     <g id="line2d_21">
      <path d="M 84.37 456.570963 
L 749.322 456.570963 
" clip-path="url(#pff088b0ce7)" style="fill: none; stroke-dasharray: 1.85,0.8; stroke-dashoffset: 0; stroke: #b0b0b0; stroke-opacity: 0.3; stroke-width: 0.5"/>
     </g>
     <g id="line2d_22">
      <defs>
       <path id="me5179b328b" d="M 0 0 
L -3.5 0 
" style="stroke: #000000; stroke-width: 0.8"/>
      </defs>
      <g>
       <use xlink:href="#me5179b328b" x="84.37" y="456.570963" style="stroke: #000000; stroke-width: 0.8"/>
      </g>
     </g>
     <g id="text_12">
      <text style="font: 26px 'Arial', sans-serif; text-anchor: end" x="77.37" y="465.876119" transform="rotate(-0 77.37 465.876119)">4.2</text>
     </g>
    </g>
    <g id="ytick_2">
     <g id="line2d_23">
      <path d="M 84.37 384.429027 
L 749.322 384.429027 
" clip-path="url(#pff088b0ce7)" style="fill: none; stroke-dasharray: 1.85,0.8; stroke-dashoffset: 0; stroke: #b0b0b0; stroke-opacity: 0.3; stroke-width: 0.5"/>
     </g>
     <g id="line2d_24">
      <g>
       <use xlink:href="#me5179b328b" x="84.37" y="384.429027" style="stroke: #000000; stroke-width: 0.8"/>
      </g>
     </g>
     <g id="text_13">
      <text style="font: 26px 'Arial', sans-serif; text-anchor: end" x="77.37" y="393.734183" transform="rotate(-0 77.37 393.734183)">4.3</text>
     </g>
    </g>
    <g id="ytick_3">
     <g id="line2d_25">
      <path d="M 84.37 312.287092 
L 749.322 312.287092 
" clip-path="url(#pff088b0ce7)" style="fill: none; stroke-dasharray: 1.85,0.8; stroke-dashoffset: 0; stroke: #b0b0b0; stroke-opacity: 0.3; stroke-width: 0.5"/>
     </g>
     <g id="line2d_26">
      <g>
       <use xlink:href="#me5179b328b" x="84.37" y="312.287092" style="stroke: #000000; stroke-width: 0.8"/>
      </g>
     </g>
     <g id="text_14">
      <text style="font: 26px 'Arial', sans-serif; text-anchor: end" x="77.37" y="321.592248" transform="rotate(-0 77.37 321.592248)">4.4</text>
     </g>
    </g>
    <g id="ytick_4">
     <g id="line2d_27">
      <path d="M 84.37 240.145156 
L 749.322 240.145156 
" clip-path="url(#pff088b0ce7)" style="fill: none; stroke-dasharray: 1.85,0.8; stroke-dashoffset: 0; stroke: #b0b0b0; stroke-opacity: 0.3; stroke-width: 0.5"/>
     </g>
     <g id="line2d_28">
      <g>
       <use xlink:href="#me5179b328b" x="84.37" y="240.145156" style="stroke: #000000; stroke-width: 0.8"/>
      </g>
     </g>
     <g id="text_15">
      <text style="font: 26px 'Arial', sans-serif; text-anchor: end" x="77.37" y="249.450312" transform="rotate(-0 77.37 249.450312)">4.5</text>
     </g>
    </g>
    <g id="ytick_5">
     <g id="line2d_29">
      <path d="M 84.37 168.003221 
L 749.322 168.003221 
" clip-path="url(#pff088b0ce7)" style="fill: none; stroke-dasharray: 1.85,0.8; stroke-dashoffset: 0; stroke: #b0b0b0; stroke-opacity: 0.3; stroke-width: 0.5"/>
     </g>
     <g id="line2d_30">
      <g>
       <use xlink:href="#me5179b328b" x="84.37" y="168.003221" style="stroke: #000000; stroke-width: 0.8"/>
      </g>
     </g>
     <g id="text_16">
      <text style="font: 26px 'Arial', sans-serif; text-anchor: end" x="77.37" y="177.308377" transform="rotate(-0 77.37 177.308377)">4.6</text>
     </g>
    </g>
    <g id="ytick_6">
     <g id="line2d_31">
      <path d="M 84.37 95.861285 
L 749.322 95.861285 
" clip-path="url(#pff088b0ce7)" style="fill: none; stroke-dasharray: 1.85,0.8; stroke-dashoffset: 0; stroke: #b0b0b0; stroke-opacity: 0.3; stroke-width: 0.5"/>
     </g>
     <g id="line2d_32">
      <g>
       <use xlink:href="#me5179b328b" x="84.37" y="95.861285" style="stroke: #000000; stroke-width: 0.8"/>
      </g>
     </g>
     <g id="text_17">
      <text style="font: 26px 'Arial', sans-serif; text-anchor: end" x="77.37" y="105.166442" transform="rotate(-0 77.37 105.166442)">4.7</text>
     </g>
    </g>
    <g id="ytick_7">
     <g id="line2d_33">
      <path d="M 84.37 23.71935 
L 749.322 23.71935 
" clip-path="url(#pff088b0ce7)" style="fill: none; stroke-dasharray: 1.85,0.8; stroke-dashoffset: 0; stroke: #b0b0b0; stroke-opacity: 0.3; stroke-width: 0.5"/>
     </g>
     <g id="line2d_34">
      <g>
       <use xlink:href="#me5179b328b" x="84.37" y="23.71935" style="stroke: #000000; stroke-width: 0.8"/>
      </g>
     </g>
     <g id="text_18">
      <text style="font: 26px 'Arial', sans-serif; text-anchor: end" x="77.37" y="33.024506" transform="rotate(-0 77.37 33.024506)">4.8</text>
     </g>
    </g>
    <g id="text_19">
     <text style="font: 32px 'Arial', sans-serif; text-anchor: middle" x="30.495" y="240.145156" transform="rotate(-90 30.495 240.145156)">Energy (J)</text>
    </g>
   </g>
   <g id="LineCollection_1">
    <path d="M 105.98094 360.505089 
L 129.25426 360.505089 
" clip-path="url(#pff088b0ce7)" style="fill: none; stroke: #000000; stroke-width: 1.5"/>
    <path d="M 172.47614 231.167402 
L 195.74946 231.167402 
" clip-path="url(#pff088b0ce7)" style="fill: none; stroke: #000000; stroke-width: 1.5"/>
    <path d="M 238.97134 208.422095 
L 262.24466 208.422095 
" clip-path="url(#pff088b0ce7)" style="fill: none; stroke: #000000; stroke-width: 1.5"/>
    <path d="M 305.46654 196.731191 
L 328.73986 196.731191 
" clip-path="url(#pff088b0ce7)" style="fill: none; stroke: #000000; stroke-width: 1.5"/>
    <path d="M 371.96174 173.220622 
L 395.23506 173.220622 
" clip-path="url(#pff088b0ce7)" style="fill: none; stroke: #000000; stroke-width: 1.5"/>
    <path d="M 438.45694 161.61319 
L 461.73026 161.61319 
" clip-path="url(#pff088b0ce7)" style="fill: none; stroke: #000000; stroke-width: 1.5"/>
    <path d="M 504.95214 155.967474 
L 528.22546 155.967474 
" clip-path="url(#pff088b0ce7)" style="fill: none; stroke: #000000; stroke-width: 1.5"/>
    <path d="M 571.44734 148.512293 
L 594.72066 148.512293 
" clip-path="url(#pff088b0ce7)" style="fill: none; stroke: #000000; stroke-width: 1.5"/>
    <path d="M 637.94254 153.987185 
L 661.21586 153.987185 
" clip-path="url(#pff088b0ce7)" style="fill: none; stroke: #000000; stroke-width: 1.5"/>
    <path d="M 704.43774 160.081944 
L 727.71106 160.081944 
" clip-path="url(#pff088b0ce7)" style="fill: none; stroke: #000000; stroke-width: 1.5"/>
   </g>
   <g id="LineCollection_2">
    <path d="M 105.98094 289.18823 
L 129.25426 289.18823 
" clip-path="url(#pff088b0ce7)" style="fill: none; stroke: #000000; stroke-width: 1.5"/>
    <path d="M 172.47614 176.816921 
L 195.74946 176.816921 
" clip-path="url(#pff088b0ce7)" style="fill: none; stroke: #000000; stroke-width: 1.5"/>
    <path d="M 238.97134 183.01282 
L 262.24466 183.01282 
" clip-path="url(#pff088b0ce7)" style="fill: none; stroke: #000000; stroke-width: 1.5"/>
    <path d="M 305.46654 163.205446 
L 328.73986 163.205446 
" clip-path="url(#pff088b0ce7)" style="fill: none; stroke: #000000; stroke-width: 1.5"/>
    <path d="M 371.96174 161.863399 
L 395.23506 161.863399 
" clip-path="url(#pff088b0ce7)" style="fill: none; stroke: #000000; stroke-width: 1.5"/>
    <path d="M 438.45694 155.287645 
L 461.73026 155.287645 
" clip-path="url(#pff088b0ce7)" style="fill: none; stroke: #000000; stroke-width: 1.5"/>
    <path d="M 504.95214 128.879701 
L 528.22546 128.879701 
" clip-path="url(#pff088b0ce7)" style="fill: none; stroke: #000000; stroke-width: 1.5"/>
    <path d="M 571.44734 136.869193 
L 594.72066 136.869193 
" clip-path="url(#pff088b0ce7)" style="fill: none; stroke: #000000; stroke-width: 1.5"/>
    <path d="M 637.94254 138.160689 
L 661.21586 138.160689 
" clip-path="url(#pff088b0ce7)" style="fill: none; stroke: #000000; stroke-width: 1.5"/>
    <path d="M 704.43774 151.243796 
L 727.71106 151.243796 
" clip-path="url(#pff088b0ce7)" style="fill: none; stroke: #000000; stroke-width: 1.5"/>
   </g>
   <g id="LineCollection_3">
    <path d="M 105.98094 442.70119 
L 129.25426 442.70119 
" clip-path="url(#pff088b0ce7)" style="fill: none; stroke: #000000; stroke-width: 1.5"/>
    <path d="M 172.47614 295.412444 
L 195.74946 295.412444 
" clip-path="url(#pff088b0ce7)" style="fill: none; stroke: #000000; stroke-width: 1.5"/>
    <path d="M 238.97134 239.332254 
L 262.24466 239.332254 
" clip-path="url(#pff088b0ce7)" style="fill: none; stroke: #000000; stroke-width: 1.5"/>
    <path d="M 305.46654 227.451309 
L 328.73986 227.451309 
" clip-path="url(#pff088b0ce7)" style="fill: none; stroke: #000000; stroke-width: 1.5"/>
    <path d="M 371.96174 190.730914 
L 395.23506 190.730914 
" clip-path="url(#pff088b0ce7)" style="fill: none; stroke: #000000; stroke-width: 1.5"/>
    <path d="M 438.45694 173.472285 
L 461.73026 173.472285 
" clip-path="url(#pff088b0ce7)" style="fill: none; stroke: #000000; stroke-width: 1.5"/>
    <path d="M 504.95214 169.443928 
L 528.22546 169.443928 
" clip-path="url(#pff088b0ce7)" style="fill: none; stroke: #000000; stroke-width: 1.5"/>
    <path d="M 571.44734 155.150246 
L 594.72066 155.150246 
" clip-path="url(#pff088b0ce7)" style="fill: none; stroke: #000000; stroke-width: 1.5"/>
    <path d="M 637.94254 167.47239 
L 661.21586 167.47239 
" clip-path="url(#pff088b0ce7)" style="fill: none; stroke: #000000; stroke-width: 1.5"/>
    <path d="M 704.43774 173.090152 
L 727.71106 173.090152 
" clip-path="url(#pff088b0ce7)" style="fill: none; stroke: #000000; stroke-width: 1.5"/>
   </g>
   <g id="LineCollection_4">
    <path d="M 117.6176 442.70119 
L 117.6176 289.18823 
" clip-path="url(#pff088b0ce7)" style="fill: none; stroke: #000000; stroke-width: 1.2"/>
    <path d="M 184.1128 295.412444 
L 184.1128 176.816921 
" clip-path="url(#pff088b0ce7)" style="fill: none; stroke: #000000; stroke-width: 1.2"/>
    <path d="M 250.608 239.332254 
L 250.608 183.01282 
" clip-path="url(#pff088b0ce7)" style="fill: none; stroke: #000000; stroke-width: 1.2"/>
    <path d="M 317.1032 227.451309 
L 317.1032 163.205446 
" clip-path="url(#pff088b0ce7)" style="fill: none; stroke: #000000; stroke-width: 1.2"/>
    <path d="M 383.5984 190.730914 
L 383.5984 161.863399 
" clip-path="url(#pff088b0ce7)" style="fill: none; stroke: #000000; stroke-width: 1.2"/>
    <path d="M 450.0936 173.472285 
L 450.0936 155.287645 
" clip-path="url(#pff088b0ce7)" style="fill: none; stroke: #000000; stroke-width: 1.2"/>
    <path d="M 516.5888 169.443928 
L 516.5888 128.879701 
" clip-path="url(#pff088b0ce7)" style="fill: none; stroke: #000000; stroke-width: 1.2"/>
    <path d="M 583.084 155.150246 
L 583.084 136.869193 
" clip-path="url(#pff088b0ce7)" style="fill: none; stroke: #000000; stroke-width: 1.2"/>
    <path d="M 649.5792 167.47239 
L 649.5792 138.160689 
" clip-path="url(#pff088b0ce7)" style="fill: none; stroke: #000000; stroke-width: 1.2"/>
    <path d="M 716.0744 173.090152 
L 716.0744 151.243796 
" clip-path="url(#pff088b0ce7)" style="fill: none; stroke: #000000; stroke-width: 1.2"/>
   </g>
   <g id="patch_3">
    <path d="M 84.37 463.785156 
L 84.37 16.505156 
" style="fill: none; stroke: #000000; stroke-width: 1.2; stroke-linejoin: miter; stroke-linecap: square"/>
   </g>
   <g id="patch_4">
    <path d="M 749.322 463.785156 
L 749.322 16.505156 
" style="fill: none; stroke: #000000; stroke-width: 1.2; stroke-linejoin: miter; stroke-linecap: square"/>
   </g>
   <g id="patch_5">
    <path d="M 84.37 463.785156 
L 749.322 463.785156 
" style="fill: none; stroke: #000000; stroke-width: 1.2; stroke-linejoin: miter; stroke-linecap: square"/>
   </g>
   <g id="patch_6">
    <path d="M 84.37 16.505156 
L 749.322 16.505156 
" style="fill: none; stroke: #000000; stroke-width: 1.2; stroke-linejoin: miter; stroke-linecap: square"/>
   </g>
  </g>
  <g id="axes_2">
   <g id="matplotlib.axis_3">
    <g id="ytick_8">
     <g id="line2d_35">
      <path d="M 84.37 423.123338 
L 749.322 423.123338 
" clip-path="url(#pff088b0ce7)" style="fill: none; stroke-dasharray: 1.85,0.8; stroke-dashoffset: 0; stroke: #b0b0b0; stroke-opacity: 0.3; stroke-width: 0.5"/>
     </g>
     <g id="line2d_36">
      <defs>
       <path id="mf5b913c767" d="M 0 0 
L 3.5 0 
" style="stroke: #f18f01; stroke-width: 0.8"/>
      </defs>
      <g>
       <use xlink:href="#mf5b913c767" x="749.322" y="423.123338" style="fill: #f18f01; stroke: #f18f01; stroke-width: 0.8"/>
      </g>
     </g>
     <g id="text_20">
      <text style="fill: #f18f01; font: 26px 'Arial', sans-serif; text-anchor: start" x="756.322" y="432.428494" transform="rotate(-0 756.322 432.428494)">30</text>
     </g>
    </g>
    <g id="ytick_9">
     <g id="line2d_37">
      <path d="M 84.37 321.468793 
L 749.322 321.468793 
" clip-path="url(#pff088b0ce7)" style="fill: none; stroke-dasharray: 1.85,0.8; stroke-dashoffset: 0; stroke: #b0b0b0; stroke-opacity: 0.3; stroke-width: 0.5"/>
     </g>
     <g id="line2d_38">
      <g>
       <use xlink:href="#mf5b913c767" x="749.322" y="321.468793" style="fill: #f18f01; stroke: #f18f01; stroke-width: 0.8"/>
      </g>
     </g>
     <g id="text_21">
      <text style="fill: #f18f01; font: 26px 'Arial', sans-serif; text-anchor: start" x="756.322" y="330.773949" transform="rotate(-0 756.322 330.773949)">35</text>
     </g>
    </g>
    <g id="ytick_10">
     <g id="line2d_39">
      <path d="M 84.37 219.814247 
L 749.322 219.814247 
" clip-path="url(#pff088b0ce7)" style="fill: none; stroke-dasharray: 1.85,0.8; stroke-dashoffset: 0; stroke: #b0b0b0; stroke-opacity: 0.3; stroke-width: 0.5"/>
     </g>
     <g id="line2d_40">
      <g>
       <use xlink:href="#mf5b913c767" x="749.322" y="219.814247" style="fill: #f18f01; stroke: #f18f01; stroke-width: 0.8"/>
      </g>
     </g>
     <g id="text_22">
      <text style="fill: #f18f01; font: 26px 'Arial', sans-serif; text-anchor: start" x="756.322" y="229.119403" transform="rotate(-0 756.322 229.119403)">40</text>
     </g>
    </g>
    <g id="ytick_11">
     <g id="line2d_41">
      <path d="M 84.37 118.159702 
L 749.322 118.159702 
" clip-path="url(#pff088b0ce7)" style="fill: none; stroke-dasharray: 1.85,0.8; stroke-dashoffset: 0; stroke: #b0b0b0; stroke-opacity: 0.3; stroke-width: 0.5"/>
     </g>
     <g id="line2d_42">
      <g>
       <use xlink:href="#mf5b913c767" x="749.322" y="118.159702" style="fill: #f18f01; stroke: #f18f01; stroke-width: 0.8"/>
      </g>
     </g>
     <g id="text_23">
      <text style="fill: #f18f01; font: 26px 'Arial', sans-serif; text-anchor: start" x="756.322" y="127.464858" transform="rotate(-0 756.322 127.464858)">45</text>
     </g>
    </g>
    <g id="ytick_12">
     <g id="line2d_43">
      <path d="M 84.37 16.505156 
L 749.322 16.505156 
" clip-path="url(#pff088b0ce7)" style="fill: none; stroke-dasharray: 1.85,0.8; stroke-dashoffset: 0; stroke: #b0b0b0; stroke-opacity: 0.3; stroke-width: 0.5"/>
     </g>
     <g id="line2d_44">
      <g>
       <use xlink:href="#mf5b913c767" x="749.322" y="16.505156" style="fill: #f18f01; stroke: #f18f01; stroke-width: 0.8"/>
      </g>
     </g>
     <g id="text_24">
      <text style="fill: #f18f01; font: 26px 'Arial', sans-serif; text-anchor: start" x="756.322" y="25.810312" transform="rotate(-0 756.322 25.810312)">50</text>
     </g>
    </g>
    <g id="text_25">
     <text style="fill: #f18f01; font: 32px 'Arial', sans-serif" transform="translate(812.143875 375.300156) rotate(-90)">Post-Measurement</text>
     <text style="fill: #f18f01; font: 32px 'Arial', sans-serif" transform="translate(846.457875 401.840156) rotate(-90)">GPU Temperature (°C)</text>
    </g>
   </g>
   <g id="patch_7">
    <path d="M 84.37 463.785156 
L 84.37 16.505156 
" style="fill: none; stroke: #000000; stroke-width: 1.2; stroke-linejoin: miter; stroke-linecap: square"/>
   </g>
   <g id="patch_8">
    <path d="M 749.322 463.785156 
L 749.322 16.505156 
" style="fill: none; stroke: #f18f01; stroke-width: 1.2; stroke-linejoin: miter; stroke-linecap: square"/>
   </g>
   <g id="patch_9">
    <path d="M 84.37 463.785156 
L 749.322 463.785156 
" style="fill: none; stroke: #000000; stroke-width: 1.2; stroke-linejoin: miter; stroke-linecap: square"/>
   </g>
   <g id="patch_10">
    <path d="M 84.37 16.505156 
L 749.322 16.505156 
" style="fill: none; stroke: #000000; stroke-width: 1.2; stroke-linejoin: miter; stroke-linecap: square"/>
   </g>
   <g id="line2d_45">
    <path d="M 117.6176 259.967793 
L 184.1128 219.305974 
L 250.608 193.892338 
L 317.1032 174.577974 
L 383.5984 158.313247 
L 450.0936 146.368838 
L 516.5888 132.645474 
L 583.084 124.767247 
L 649.5792 106.723565 
L 716.0744 95.287429 
" clip-path="url(#pff088b0ce7)" style="fill: none; stroke: #f18f01; stroke-width: 3; stroke-linecap: square"/>
    <defs>
     <path id="m51a03a0c99" d="M -5 5 
L 5 5 
L 5 -5 
L -5 -5 
z
" style="stroke: #f18f01; stroke-linejoin: miter"/>
    </defs>
    <g clip-path="url(#pff088b0ce7)">
     <use xlink:href="#m51a03a0c99" x="117.6176" y="259.967793" style="fill: #f18f01; stroke: #f18f01; stroke-linejoin: miter"/>
     <use xlink:href="#m51a03a0c99" x="184.1128" y="219.305974" style="fill: #f18f01; stroke: #f18f01; stroke-linejoin: miter"/>
     <use xlink:href="#m51a03a0c99" x="250.608" y="193.892338" style="fill: #f18f01; stroke: #f18f01; stroke-linejoin: miter"/>
     <use xlink:href="#m51a03a0c99" x="317.1032" y="174.577974" style="fill: #f18f01; stroke: #f18f01; stroke-linejoin: miter"/>
     <use xlink:href="#m51a03a0c99" x="383.5984" y="158.313247" style="fill: #f18f01; stroke: #f18f01; stroke-linejoin: miter"/>
     <use xlink:href="#m51a03a0c99" x="450.0936" y="146.368838" style="fill: #f18f01; stroke: #f18f01; stroke-linejoin: miter"/>
     <use xlink:href="#m51a03a0c99" x="516.5888" y="132.645474" style="fill: #f18f01; stroke: #f18f01; stroke-linejoin: miter"/>
     <use xlink:href="#m51a03a0c99" x="583.084" y="124.767247" style="fill: #f18f01; stroke: #f18f01; stroke-linejoin: miter"/>
     <use xlink:href="#m51a03a0c99" x="649.5792" y="106.723565" style="fill: #f18f01; stroke: #f18f01; stroke-linejoin: miter"/>
     <use xlink:href="#m51a03a0c99" x="716.0744" y="95.287429" style="fill: #f18f01; stroke: #f18f01; stroke-linejoin: miter"/>
    </g>
   </g>
  </g>
 </g>
 <defs>
  <clipPath id="pff088b0ce7">
   <rect x="84.37" y="16.505156" width="664.952" height="447.28"/>
  </clipPath>
 </defs>
</svg>
