<?xml version="1.0" encoding="utf-8" standalone="no"?>
<!DOCTYPE svg PUBLIC "-//W3C//DTD SVG 1.1//EN"
  "http://www.w3.org/Graphics/SVG/1.1/DTD/svg11.dtd">
<svg xmlns:xlink="http://www.w3.org/1999/xlink" width="597.6pt" height="208.8pt" viewBox="0 0 597.6 208.8" xmlns="http://www.w3.org/2000/svg" version="1.1">
 <metadata>
  <rdf:RDF xmlns:dc="http://purl.org/dc/elements/1.1/" xmlns:cc="http://creativecommons.org/ns#" xmlns:rdf="http://www.w3.org/1999/02/22-rdf-syntax-ns#">
   <cc:Work>
    <dc:type rdf:resource="http://purl.org/dc/dcmitype/StillImage"/>
    <dc:format>image/svg+xml</dc:format>
    <dc:creator>
     <cc:Agent>
      <dc:title>Matplotlib v3.10.8, https://matplotlib.org/</dc:title>
     </cc:Agent>
    </dc:creator>
   </cc:Work>
  </rdf:RDF>
 </metadata>
 <defs>
  <style type="text/css">*{stroke-linejoin: round; stroke-linecap: butt}</style>
 </defs>
 <g id="figure_1">
  <g id="patch_1">
   <path d="M 0 208.8 
L 597.6 208.8 
L 597.6 0 
L 0 0 
L 0 208.8 
z
" style="fill: none"/>
  </g>
  <g id="axes_1">
   <g id="patch_2">
    <path d="M 24.628966 80.602759 
L 137.246897 80.602759 
Q 142.609655 80.602759 142.609655 75.24 
L 142.609655 59.822069 
Q 142.609655 54.45931 137.246897 54.45931 
L 24.628966 54.45931 
Q 19.266207 54.45931 19.266207 59.822069 
L 19.266207 75.24 
Q 19.266207 80.602759 24.628966 80.602759 
z
" clip-path="url(#pb8e111856a)" style="fill: #b0b0b0; stroke: #e0e0e0; stroke-linejoin: miter"/>
   </g>
   <g id="patch_3">
    <path d="M 98.366897 117.471724 
L 137.246897 117.471724 
Q 142.609655 117.471724 142.609655 112.108966 
L 142.609655 96.691034 
Q 142.609655 91.328276 137.246897 91.328276 
L 98.366897 91.328276 
Q 93.004138 91.328276 93.004138 96.691034 
L 93.004138 112.108966 
Q 93.004138 117.471724 98.366897 117.471724 
z
" clip-path="url(#pb8e111856a)" style="fill: #b0b0b0; stroke: #e0e0e0; stroke-linejoin: miter"/>
   </g>
   <g id="patch_4">
    <path d="M 78.256552 154.34069 
L 137.246897 154.34069 
Q 142.609655 154.34069 142.609655 148.977931 
L 142.609655 133.56 
Q 142.609655 128.197241 137.246897 128.197241 
L 78.256552 128.197241 
Q 72.893793 128.197241 72.893793 133.56 
L 72.893793 148.977931 
Q 72.893793 154.34069 78.256552 154.34069 
z
" clip-path="url(#pb8e111856a)" style="fill: #b0b0b0; stroke: #e0e0e0; stroke-linejoin: miter"/>
   </g>
   <g id="patch_5">
    <path d="M 41.387586 191.209655 
L 137.246897 191.209655 
Q 142.609655 191.209655 142.609655 185.846897 
L 142.609655 170.428966 
Q 142.609655 165.066207 137.246897 165.066207 
L 41.387586 165.066207 
Q 36.024828 165.066207 36.024828 170.428966 
L 36.024828 185.846897 
Q 36.024828 191.209655 41.387586 191.209655 
z
" clip-path="url(#pb8e111856a)" style="fill: #b0b0b0; stroke: #e0e0e0; stroke-linejoin: miter"/>
   </g>
   <g id="patch_6">
    <path d="M 185.511724 81.943448 
L 251.205517 81.943448 
Q 256.568276 81.943448 256.568276 76.58069 
L 256.568276 61.162759 
Q 256.568276 55.8 251.205517 55.8 
L 185.511724 55.8 
Q 180.148966 55.8 180.148966 61.162759 
L 180.148966 76.58069 
Q 180.148966 81.943448 185.511724 81.943448 
z
" clip-path="url(#pb8e111856a)" style="fill: #7cb3e0; stroke: #e0e0e0; stroke-linejoin: miter"/>
   </g>
   <g id="patch_7">
    <path d="M 185.511724 135.906207 
L 251.205517 135.906207 
Q 256.568276 135.906207 256.568276 130.543448 
L 256.568276 115.125517 
Q 256.568276 109.762759 251.205517 109.762759 
L 185.511724 109.762759 
Q 180.148966 109.762759 180.148966 115.125517 
L 180.148966 130.543448 
Q 180.148966 135.906207 185.511724 135.906207 
z
" clip-path="url(#pb8e111856a)" style="fill: #7cb3e0; stroke: #e0e0e0; stroke-linejoin: miter"/>
   </g>
   <g id="patch_8">
    <path d="M 185.511724 189.868966 
L 251.205517 189.868966 
Q 256.568276 189.868966 256.568276 184.506207 
L 256.568276 169.088276 
Q 256.568276 163.725517 251.205517 163.725517 
L 185.511724 163.725517 
Q 180.148966 163.725517 180.148966 169.088276 
L 180.148966 184.506207 
Q 180.148966 189.868966 185.511724 189.868966 
z
" clip-path="url(#pb8e111856a)" style="fill: #7cb3e0; stroke: #e0e0e0; stroke-linejoin: miter"/>
   </g>
   <g id="patch_9">
    <path d="M 292.766897 80.602759 
L 365.164138 80.602759 
Q 370.526897 80.602759 370.526897 75.24 
L 370.526897 59.822069 
Q 370.526897 54.45931 365.164138 54.45931 
L 292.766897 54.45931 
Q 287.404138 54.45931 287.404138 59.822069 
L 287.404138 75.24 
Q 287.404138 80.602759 292.766897 80.602759 
z
" clip-path="url(#pb8e111856a)" style="fill: #b0b0b0; stroke: #e0e0e0; stroke-linejoin: miter"/>
   </g>
   <g id="patch_10">
    <path d="M 292.766897 117.471724 
L 351.757241 117.471724 
Q 357.12 117.471724 357.12 112.108966 
L 357.12 96.691034 
Q 357.12 91.328276 351.757241 91.328276 
L 292.766897 91.328276 
Q 287.404138 91.328276 287.404138 96.691034 
L 287.404138 112.108966 
Q 287.404138 117.471724 292.766897 117.471724 
z
" clip-path="url(#pb8e111856a)" style="fill: #7cb3e0; stroke: #e0e0e0; stroke-linejoin: miter"/>
   </g>
   <g id="patch_11">
    <path d="M 309.525517 191.209655 
L 408.736552 191.209655 
Q 414.09931 191.209655 414.09931 185.846897 
L 414.09931 170.428966 
Q 414.09931 165.066207 408.736552 165.066207 
L 309.525517 165.066207 
Q 304.162759 165.066207 304.162759 170.428966 
L 304.162759 185.846897 
Q 304.162759 191.209655 309.525517 191.209655 
z
" clip-path="url(#pb8e111856a)" style="fill: #b0b0b0; stroke: #e0e0e0; stroke-linejoin: miter"/>
   </g>
   <g id="patch_12">
    <path d="M 400.022069 117.471724 
L 459.012414 117.471724 
Q 464.375172 117.471724 464.375172 112.108966 
L 464.375172 96.691034 
Q 464.375172 91.328276 459.012414 91.328276 
L 400.022069 91.328276 
Q 394.65931 91.328276 394.65931 96.691034 
L 394.65931 112.108966 
Q 394.65931 117.471724 400.022069 117.471724 
z
" clip-path="url(#pb8e111856a)" style="fill: #7cb3e0; stroke: #e0e0e0; stroke-linejoin: miter"/>
   </g>
   <g id="patch_13">
    <path d="M 493.870345 117.471724 
L 566.267586 117.471724 
Q 571.630345 117.471724 571.630345 112.108966 
L 571.630345 96.691034 
Q 571.630345 91.328276 566.267586 91.328276 
L 493.870345 91.328276 
Q 488.507586 91.328276 488.507586 96.691034 
L 488.507586 112.108966 
Q 488.507586 117.471724 493.870345 117.471724 
z
" clip-path="url(#pb8e111856a)" style="fill: #f0b080; stroke: #e0e0e0; stroke-linejoin: miter"/>
   </g>
   <g id="patch_14">
    <path d="M 493.870345 177.802759 
L 566.267586 177.802759 
Q 571.630345 177.802759 571.630345 172.44 
L 571.630345 157.022069 
Q 571.630345 151.65931 566.267586 151.65931 
L 493.870345 151.65931 
Q 488.507586 151.65931 488.507586 157.022069 
L 488.507586 172.44 
Q 488.507586 177.802759 493.870345 177.802759 
z
" clip-path="url(#pb8e111856a)" style="fill: #f0b080; stroke: #e0e0e0; stroke-linejoin: miter"/>
   </g>
   <g id="patch_15">
    <path d="M 143.28 67.531034 
Q 161.714483 67.531034 178.807325 67.531034 
" clip-path="url(#pb8e111856a)" style="fill: none; stroke: #e0e0e0; stroke-width: 1.2; stroke-linecap: round"/>
    <path d="M 174.007325 65.131034 
L 178.807325 67.531034 
L 174.007325 69.931034 
z
" clip-path="url(#pb8e111856a)" style="fill: #e0e0e0; stroke: #e0e0e0; stroke-width: 1.2; stroke-linecap: round"/>
   </g>
   <g id="patch_16">
    <path d="M 143.28 104.4 
Q 161.714483 87.306207 179.165183 71.124648 
" clip-path="url(#pb8e111856a)" style="fill: none; stroke: #e0e0e0; stroke-width: 1.2; stroke-linecap: round"/>
    <path d="M 174.013641 72.628515 
L 179.165183 71.124648 
L 177.277351 76.148202 
z
" clip-path="url(#pb8e111856a)" style="fill: #e0e0e0; stroke: #e0e0e0; stroke-width: 1.2; stroke-linecap: round"/>
   </g>
   <g id="patch_17">
    <path d="M 143.28 104.4 
Q 161.714483 112.611724 178.923419 120.277523 
" clip-path="url(#pb8e111856a)" style="fill: none; stroke: #e0e0e0; stroke-width: 1.2; stroke-linecap: round"/>
    <path d="M 175.51535 116.132035 
L 178.923419 120.277523 
L 173.562187 120.516686 
z
" clip-path="url(#pb8e111856a)" style="fill: #e0e0e0; stroke: #e0e0e0; stroke-width: 1.2; stroke-linecap: round"/>
   </g>
   <g id="patch_18">
    <path d="M 143.28 141.268966 
Q 161.714483 133.057241 178.923419 125.391443 
" clip-path="url(#pb8e111856a)" style="fill: none; stroke: #e0e0e0; stroke-width: 1.2; stroke-linecap: round"/>
    <path d="M 173.562187 125.15228 
L 178.923419 125.391443 
L 175.51535 129.53693 
z
" clip-path="url(#pb8e111856a)" style="fill: #e0e0e0; stroke: #e0e0e0; stroke-width: 1.2; stroke-linecap: round"/>
   </g>
   <g id="patch_19">
    <path d="M 143.28 104.4 
Q 161.714483 138.922759 179.517009 172.262035 
" clip-path="url(#pb8e111856a)" style="fill: none; stroke: #e0e0e0; stroke-width: 1.2; stroke-linecap: round"/>
    <path d="M 179.37313 166.897401 
L 179.517009 172.262035 
L 175.138974 169.158358 
z
" clip-path="url(#pb8e111856a)" style="fill: #e0e0e0; stroke: #e0e0e0; stroke-width: 1.2; stroke-linecap: round"/>
   </g>
   <g id="patch_20">
    <path d="M 143.28 141.268966 
Q 161.714483 159.033103 179.18288 175.866286 
" clip-path="url(#pb8e111856a)" style="fill: none; stroke: #e0e0e0; stroke-width: 1.2; stroke-linecap: round"/>
    <path d="M 177.39185 170.807411 
L 179.18288 175.866286 
L 174.061162 174.263785 
z
" clip-path="url(#pb8e111856a)" style="fill: #e0e0e0; stroke: #e0e0e0; stroke-width: 1.2; stroke-linecap: round"/>
   </g>
   <g id="patch_21">
    <path d="M 143.28 178.137931 
Q 161.714483 178.137931 178.807325 178.137931 
" clip-path="url(#pb8e111856a)" style="fill: none; stroke: #e0e0e0; stroke-width: 1.2; stroke-linecap: round"/>
    <path d="M 174.007325 175.737931 
L 178.807325 178.137931 
L 174.007325 180.537931 
z
" clip-path="url(#pb8e111856a)" style="fill: #e0e0e0; stroke: #e0e0e0; stroke-width: 1.2; stroke-linecap: round"/>
   </g>
   <g id="patch_22">
    <path d="M 257.238621 68.871724 
Q 272.321379 85.630345 286.506628 101.391732 
" clip-path="url(#pb8e111856a)" style="fill: none; stroke: #e0e0e0; stroke-width: 1.2; stroke-linecap: round"/>
    <path d="M 285.079503 96.218405 
L 286.506628 101.391732 
L 281.511691 99.429435 
z
" clip-path="url(#pb8e111856a)" style="fill: #e0e0e0; stroke: #e0e0e0; stroke-width: 1.2; stroke-linecap: round"/>
   </g>
   <g id="patch_23">
    <path d="M 257.238621 122.834483 
Q 272.321379 114.622759 286.225817 107.052565 
" clip-path="url(#pb8e111856a)" style="fill: none; stroke: #e0e0e0; stroke-width: 1.2; stroke-linecap: round"/>
    <path d="M 280.862526 107.239928 
L 286.225817 107.052565 
L 283.157734 111.455616 
z
" clip-path="url(#pb8e111856a)" style="fill: #e0e0e0; stroke: #e0e0e0; stroke-width: 1.2; stroke-linecap: round"/>
   </g>
   <g id="patch_24">
    <path d="M 322.262069 81.273103 
Q 322.262069 85.965517 322.262069 89.31629 
" clip-path="url(#pb8e111856a)" style="fill: none; stroke: #e0e0e0; stroke-width: 1.2; stroke-linecap: round"/>
    <path d="M 324.662069 84.51629 
L 322.262069 89.31629 
L 319.862069 84.51629 
z
" clip-path="url(#pb8e111856a)" style="fill: #e0e0e0; stroke: #e0e0e0; stroke-width: 1.2; stroke-linecap: round"/>
   </g>
   <g id="patch_25">
    <path d="M 322.932414 164.395862 
Q 322.597241 141.268966 322.281511 119.483569 
" clip-path="url(#pb8e111856a)" style="fill: none; stroke: #e0e0e0; stroke-width: 1.2; stroke-linecap: round"/>
    <path d="M 319.951321 124.317844 
L 322.281511 119.483569 
L 324.750817 124.248286 
z
" clip-path="url(#pb8e111856a)" style="fill: #e0e0e0; stroke: #e0e0e0; stroke-width: 1.2; stroke-linecap: round"/>
   </g>
   <g id="patch_26">
    <path d="M 357.790345 104.4 
Q 376.224828 104.4 393.31767 104.4 
" clip-path="url(#pb8e111856a)" style="fill: none; stroke: #e0e0e0; stroke-width: 1.2; stroke-linecap: round"/>
    <path d="M 388.51767 102 
L 393.31767 104.4 
L 388.51767 106.8 
z
" clip-path="url(#pb8e111856a)" style="fill: #e0e0e0; stroke: #e0e0e0; stroke-width: 1.2; stroke-linecap: round"/>
   </g>
   <g id="patch_27">
    <path d="M 257.238621 176.797241 
Q 325.948966 142.609655 393.458141 109.019724 
" clip-path="url(#pb8e111856a)" style="fill: none; stroke: #e0e0e0; stroke-width: 1.2; stroke-linecap: round"/>
    <path d="M 388.091588 109.009243 
L 393.458141 109.019724 
L 390.229824 113.306677 
z
" clip-path="url(#pb8e111856a)" style="fill: #e0e0e0; stroke: #e0e0e0; stroke-width: 1.2; stroke-linecap: round"/>
   </g>
   <g id="patch_28">
    <path d="M 465.045517 104.4 
Q 476.776552 104.4 487.165945 104.4 
" clip-path="url(#pb8e111856a)" style="fill: none; stroke: #e0e0e0; stroke-width: 1.2; stroke-linecap: round"/>
    <path d="M 482.365945 102 
L 487.165945 104.4 
L 482.365945 106.8 
z
" clip-path="url(#pb8e111856a)" style="fill: #e0e0e0; stroke: #e0e0e0; stroke-width: 1.2; stroke-linecap: round"/>
   </g>
   <g id="patch_29">
    <path d="M 257.238621 176.797241 
Q 372.873103 143.950345 487.217003 111.470049 
" clip-path="url(#pb8e111856a)" style="fill: none; stroke: #e0e0e0; stroke-width: 1.2; stroke-linecap: round"/>
    <path d="M 481.943879 110.472973 
L 487.217003 111.470049 
L 483.255468 115.090303 
z
" clip-path="url(#pb8e111856a)" style="fill: #e0e0e0; stroke: #e0e0e0; stroke-width: 1.2; stroke-linecap: round"/>
   </g>
   <g id="patch_30">
    <path d="M 530.068966 119.48371 
Q 530.068966 134.565517 530.068966 149.647325 
" clip-path="url(#pb8e111856a)" style="fill: none; stroke-dasharray: 4.44,1.92; stroke-dashoffset: 0; stroke: #e0e0e0; stroke-width: 1.2; stroke-linecap: round"/>
    <path d="M 527.668966 124.28371 
L 530.068966 119.48371 
L 532.468966 124.28371 
" clip-path="url(#pb8e111856a)" style="fill: none; stroke-dasharray: 4.44,1.92; stroke-dashoffset: 0; stroke: #e0e0e0; stroke-width: 1.2; stroke-linecap: round"/>
    <path d="M 532.468966 144.847325 
L 530.068966 149.647325 
L 527.668966 144.847325 
" clip-path="url(#pb8e111856a)" style="fill: none; stroke-dasharray: 4.44,1.92; stroke-dashoffset: 0; stroke: #e0e0e0; stroke-width: 1.2; stroke-linecap: round"/>
   </g>
   <g id="text_1">
    <!-- GPU count &amp; generation -->
    <g style="fill: #1a1a1a" transform="translate(26.475275 70.014472) scale(0.09 -0.09)">
     <defs>
      <path id="DejaVuSans-47" d="M 3809 666 
L 3809 1919 
L 2778 1919 
L 2778 2438 
L 4434 2438 
L 4434 434 
Q 4069 175 3628 42 
Q 3188 -91 2688 -91 
Q 1594 -91 976 548 
Q 359 1188 359 2328 
Q 359 3472 976 4111 
Q 1594 4750 2688 4750 
Q 3144 4750 3555 4637 
Q 3966 4525 4313 4306 
L 4313 3634 
Q 3963 3931 3569 4081 
Q 3175 4231 2741 4231 
Q 1884 4231 1454 3753 
Q 1025 3275 1025 2328 
Q 1025 1384 1454 906 
Q 1884 428 2741 428 
Q 3075 428 3337 486 
Q 3600 544 3809 666 
z
" transform="scale(0.015625)"/>
      <path id="DejaVuSans-50" d="M 1259 4147 
L 1259 2394 
L 2053 2394 
Q 2494 2394 2734 2622 
Q 2975 2850 2975 3272 
Q 2975 3691 2734 3919 
Q 2494 4147 2053 4147 
L 1259 4147 
z
M 628 4666 
L 2053 4666 
Q 2838 4666 3239 4311 
Q 3641 3956 3641 3272 
Q 3641 2581 3239 2228 
Q 2838 1875 2053 1875 
L 1259 1875 
L 1259 0 
L 628 0 
L 628 4666 
z
" transform="scale(0.015625)"/>
      <path id="DejaVuSans-55" d="M 556 4666 
L 1191 4666 
L 1191 1831 
Q 1191 1081 1462 751 
Q 1734 422 2344 422 
Q 2950 422 3222 751 
Q 3494 1081 3494 1831 
L 3494 4666 
L 4128 4666 
L 4128 1753 
Q 4128 841 3676 375 
Q 3225 -91 2344 -91 
Q 1459 -91 1007 375 
Q 556 841 556 1753 
L 556 4666 
z
" transform="scale(0.015625)"/>
      <path id="DejaVuSans-20" transform="scale(0.015625)"/>
      <path id="DejaVuSans-63" d="M 3122 3366 
L 3122 2828 
Q 2878 2963 2633 3030 
Q 2388 3097 2138 3097 
Q 1578 3097 1268 2742 
Q 959 2388 959 1747 
Q 959 1106 1268 751 
Q 1578 397 2138 397 
Q 2388 397 2633 464 
Q 2878 531 3122 666 
L 3122 134 
Q 2881 22 2623 -34 
Q 2366 -91 2075 -91 
Q 1284 -91 818 406 
Q 353 903 353 1747 
Q 353 2603 823 3093 
Q 1294 3584 2113 3584 
Q 2378 3584 2631 3529 
Q 2884 3475 3122 3366 
z
" transform="scale(0.015625)"/>
      <path id="DejaVuSans-6f" d="M 1959 3097 
Q 1497 3097 1228 2736 
Q 959 2375 959 1747 
Q 959 1119 1226 758 
Q 1494 397 1959 397 
Q 2419 397 2687 759 
Q 2956 1122 2956 1747 
Q 2956 2369 2687 2733 
Q 2419 3097 1959 3097 
z
M 1959 3584 
Q 2709 3584 3137 3096 
Q 3566 2609 3566 1747 
Q 3566 888 3137 398 
Q 2709 -91 1959 -91 
Q 1206 -91 779 398 
Q 353 888 353 1747 
Q 353 2609 779 3096 
Q 1206 3584 1959 3584 
z
" transform="scale(0.015625)"/>
      <path id="DejaVuSans-75" d="M 544 1381 
L 544 3500 
L 1119 3500 
L 1119 1403 
Q 1119 906 1312 657 
Q 1506 409 1894 409 
Q 2359 409 2629 706 
Q 2900 1003 2900 1516 
L 2900 3500 
L 3475 3500 
L 3475 0 
L 2900 0 
L 2900 538 
Q 2691 219 2414 64 
Q 2138 -91 1772 -91 
Q 1169 -91 856 284 
Q 544 659 544 1381 
z
M 1991 3584 
L 1991 3584 
z
" transform="scale(0.015625)"/>
      <path id="DejaVuSans-6e" d="M 3513 2113 
L 3513 0 
L 2938 0 
L 2938 2094 
Q 2938 2591 2744 2837 
Q 2550 3084 2163 3084 
Q 1697 3084 1428 2787 
Q 1159 2491 1159 1978 
L 1159 0 
L 581 0 
L 581 3500 
L 1159 3500 
L 1159 2956 
Q 1366 3272 1645 3428 
Q 1925 3584 2291 3584 
Q 2894 3584 3203 3211 
Q 3513 2838 3513 2113 
z
" transform="scale(0.015625)"/>
      <path id="DejaVuSans-74" d="M 1172 4494 
L 1172 3500 
L 2356 3500 
L 2356 3053 
L 1172 3053 
L 1172 1153 
Q 1172 725 1289 603 
Q 1406 481 1766 481 
L 2356 481 
L 2356 0 
L 1766 0 
Q 1100 0 847 248 
Q 594 497 594 1153 
L 594 3053 
L 172 3053 
L 172 3500 
L 594 3500 
L 594 4494 
L 1172 4494 
z
" transform="scale(0.015625)"/>
      <path id="DejaVuSans-26" d="M 1556 2509 
Q 1272 2256 1139 2004 
Q 1006 1753 1006 1478 
Q 1006 1022 1337 719 
Q 1669 416 2169 416 
Q 2466 416 2725 514 
Q 2984 613 3213 813 
L 1556 2509 
z
M 1997 2859 
L 3584 1234 
Q 3769 1513 3872 1830 
Q 3975 2147 3994 2503 
L 4575 2503 
Q 4538 2091 4375 1687 
Q 4213 1284 3922 891 
L 4794 0 
L 4006 0 
L 3559 459 
Q 3234 181 2878 45 
Q 2522 -91 2113 -91 
Q 1359 -91 881 339 
Q 403 769 403 1441 
Q 403 1841 612 2192 
Q 822 2544 1241 2853 
Q 1091 3050 1012 3245 
Q 934 3441 934 3628 
Q 934 4134 1281 4442 
Q 1628 4750 2203 4750 
Q 2463 4750 2720 4694 
Q 2978 4638 3244 4525 
L 3244 3956 
Q 2972 4103 2725 4179 
Q 2478 4256 2266 4256 
Q 1938 4256 1733 4082 
Q 1528 3909 1528 3634 
Q 1528 3475 1620 3314 
Q 1713 3153 1997 2859 
z
" transform="scale(0.015625)"/>
      <path id="DejaVuSans-67" d="M 2906 1791 
Q 2906 2416 2648 2759 
Q 2391 3103 1925 3103 
Q 1463 3103 1205 2759 
Q 947 2416 947 1791 
Q 947 1169 1205 825 
Q 1463 481 1925 481 
Q 2391 481 2648 825 
Q 2906 1169 2906 1791 
z
M 3481 434 
Q 3481 -459 3084 -895 
Q 2688 -1331 1869 -1331 
Q 1566 -1331 1297 -1286 
Q 1028 -1241 775 -1147 
L 775 -588 
Q 1028 -725 1275 -790 
Q 1522 -856 1778 -856 
Q 2344 -856 2625 -561 
Q 2906 -266 2906 331 
L 2906 616 
Q 2728 306 2450 153 
Q 2172 0 1784 0 
Q 1141 0 747 490 
Q 353 981 353 1791 
Q 353 2603 747 3093 
Q 1141 3584 1784 3584 
Q 2172 3584 2450 3431 
Q 2728 3278 2906 2969 
L 2906 3500 
L 3481 3500 
L 3481 434 
z
" transform="scale(0.015625)"/>
      <path id="DejaVuSans-65" d="M 3597 1894 
L 3597 1613 
L 953 1613 
Q 991 1019 1311 708 
Q 1631 397 2203 397 
Q 2534 397 2845 478 
Q 3156 559 3463 722 
L 3463 178 
Q 3153 47 2828 -22 
Q 2503 -91 2169 -91 
Q 1331 -91 842 396 
Q 353 884 353 1716 
Q 353 2575 817 3079 
Q 1281 3584 2069 3584 
Q 2775 3584 3186 3129 
Q 3597 2675 3597 1894 
z
M 3022 2063 
Q 3016 2534 2758 2815 
Q 2500 3097 2075 3097 
Q 1594 3097 1305 2825 
Q 1016 2553 972 2059 
L 3022 2063 
z
" transform="scale(0.015625)"/>
      <path id="DejaVuSans-72" d="M 2631 2963 
Q 2534 3019 2420 3045 
Q 2306 3072 2169 3072 
Q 1681 3072 1420 2755 
Q 1159 2438 1159 1844 
L 1159 0 
L 581 0 
L 581 3500 
L 1159 3500 
L 1159 2956 
Q 1341 3275 1631 3429 
Q 1922 3584 2338 3584 
Q 2397 3584 2469 3576 
Q 2541 3569 2628 3553 
L 2631 2963 
z
" transform="scale(0.015625)"/>
      <path id="DejaVuSans-61" d="M 2194 1759 
Q 1497 1759 1228 1600 
Q 959 1441 959 1056 
Q 959 750 1161 570 
Q 1363 391 1709 391 
Q 2188 391 2477 730 
Q 2766 1069 2766 1631 
L 2766 1759 
L 2194 1759 
z
M 3341 1997 
L 3341 0 
L 2766 0 
L 2766 531 
Q 2569 213 2275 61 
Q 1981 -91 1556 -91 
Q 1019 -91 701 211 
Q 384 513 384 1019 
Q 384 1609 779 1909 
Q 1175 2209 1959 2209 
L 2766 2209 
L 2766 2266 
Q 2766 2663 2505 2880 
Q 2244 3097 1772 3097 
Q 1472 3097 1187 3025 
Q 903 2953 641 2809 
L 641 3341 
Q 956 3463 1253 3523 
Q 1550 3584 1831 3584 
Q 2591 3584 2966 3190 
Q 3341 2797 3341 1997 
z
" transform="scale(0.015625)"/>
      <path id="DejaVuSans-69" d="M 603 3500 
L 1178 3500 
L 1178 0 
L 603 0 
L 603 3500 
z
M 603 4863 
L 1178 4863 
L 1178 4134 
L 603 4134 
L 603 4863 
z
" transform="scale(0.015625)"/>
     </defs>
     <use xlink:href="#DejaVuSans-47"/>
     <use xlink:href="#DejaVuSans-50" transform="translate(77.490234 0)"/>
     <use xlink:href="#DejaVuSans-55" transform="translate(137.792969 0)"/>
     <use xlink:href="#DejaVuSans-20" transform="translate(210.986328 0)"/>
     <use xlink:href="#DejaVuSans-63" transform="translate(242.773438 0)"/>
     <use xlink:href="#DejaVuSans-6f" transform="translate(297.753906 0)"/>
     <use xlink:href="#DejaVuSans-75" transform="translate(358.935547 0)"/>
     <use xlink:href="#DejaVuSans-6e" transform="translate(422.314453 0)"/>
     <use xlink:href="#DejaVuSans-74" transform="translate(485.693359 0)"/>
     <use xlink:href="#DejaVuSans-20" transform="translate(524.902344 0)"/>
     <use xlink:href="#DejaVuSans-26" transform="translate(556.689453 0)"/>
     <use xlink:href="#DejaVuSans-20" transform="translate(634.667969 0)"/>
     <use xlink:href="#DejaVuSans-67" transform="translate(666.455078 0)"/>
     <use xlink:href="#DejaVuSans-65" transform="translate(729.931641 0)"/>
     <use xlink:href="#DejaVuSans-6e" transform="translate(791.455078 0)"/>
     <use xlink:href="#DejaVuSans-65" transform="translate(854.833984 0)"/>
     <use xlink:href="#DejaVuSans-72" transform="translate(916.357422 0)"/>
     <use xlink:href="#DejaVuSans-61" transform="translate(957.470703 0)"/>
     <use xlink:href="#DejaVuSans-74" transform="translate(1018.75 0)"/>
     <use xlink:href="#DejaVuSans-69" transform="translate(1057.958984 0)"/>
     <use xlink:href="#DejaVuSans-6f" transform="translate(1085.742188 0)"/>
     <use xlink:href="#DejaVuSans-6e" transform="translate(1146.923828 0)"/>
    </g>
   </g>
   <g id="text_2">
    <!-- Model -->
    <g style="fill: #1a1a1a" transform="translate(104.294943 106.883437) scale(0.09 -0.09)">
     <defs>
      <path id="DejaVuSans-4d" d="M 628 4666 
L 1569 4666 
L 2759 1491 
L 3956 4666 
L 4897 4666 
L 4897 0 
L 4281 0 
L 4281 4097 
L 3078 897 
L 2444 897 
L 1241 4097 
L 1241 0 
L 628 0 
L 628 4666 
z
" transform="scale(0.015625)"/>
      <path id="DejaVuSans-64" d="M 2906 2969 
L 2906 4863 
L 3481 4863 
L 3481 0 
L 2906 0 
L 2906 525 
Q 2725 213 2448 61 
Q 2172 -91 1784 -91 
Q 1150 -91 751 415 
Q 353 922 353 1747 
Q 353 2572 751 3078 
Q 1150 3584 1784 3584 
Q 2172 3584 2448 3432 
Q 2725 3281 2906 2969 
z
M 947 1747 
Q 947 1113 1208 752 
Q 1469 391 1925 391 
Q 2381 391 2643 752 
Q 2906 1113 2906 1747 
Q 2906 2381 2643 2742 
Q 2381 3103 1925 3103 
Q 1469 3103 1208 2742 
Q 947 2381 947 1747 
z
" transform="scale(0.015625)"/>
      <path id="DejaVuSans-6c" d="M 603 4863 
L 1178 4863 
L 1178 0 
L 603 0 
L 603 4863 
z
" transform="scale(0.015625)"/>
     </defs>
     <use xlink:href="#DejaVuSans-4d"/>
     <use xlink:href="#DejaVuSans-6f" transform="translate(86.279297 0)"/>
     <use xlink:href="#DejaVuSans-64" transform="translate(147.460938 0)"/>
     <use xlink:href="#DejaVuSans-65" transform="translate(210.9375 0)"/>
     <use xlink:href="#DejaVuSans-6c" transform="translate(272.460938 0)"/>
    </g>
   </g>
   <g id="text_3">
    <!-- Quantization -->
    <g style="fill: #1a1a1a" transform="translate(78.994615 143.752403) scale(0.09 -0.09)">
     <defs>
      <path id="DejaVuSans-51" d="M 2522 4238 
Q 1834 4238 1429 3725 
Q 1025 3213 1025 2328 
Q 1025 1447 1429 934 
Q 1834 422 2522 422 
Q 3209 422 3611 934 
Q 4013 1447 4013 2328 
Q 4013 3213 3611 3725 
Q 3209 4238 2522 4238 
z
M 3406 84 
L 4238 -825 
L 3475 -825 
L 2784 -78 
Q 2681 -84 2626 -87 
Q 2572 -91 2522 -91 
Q 1538 -91 948 567 
Q 359 1225 359 2328 
Q 359 3434 948 4092 
Q 1538 4750 2522 4750 
Q 3503 4750 4090 4092 
Q 4678 3434 4678 2328 
Q 4678 1516 4351 937 
Q 4025 359 3406 84 
z
" transform="scale(0.015625)"/>
      <path id="DejaVuSans-7a" d="M 353 3500 
L 3084 3500 
L 3084 2975 
L 922 459 
L 3084 459 
L 3084 0 
L 275 0 
L 275 525 
L 2438 3041 
L 353 3041 
L 353 3500 
z
" transform="scale(0.015625)"/>
     </defs>
     <use xlink:href="#DejaVuSans-51"/>
     <use xlink:href="#DejaVuSans-75" transform="translate(78.710938 0)"/>
     <use xlink:href="#DejaVuSans-61" transform="translate(142.089844 0)"/>
     <use xlink:href="#DejaVuSans-6e" transform="translate(203.369141 0)"/>
     <use xlink:href="#DejaVuSans-74" transform="translate(266.748047 0)"/>
     <use xlink:href="#DejaVuSans-69" transform="translate(305.957031 0)"/>
     <use xlink:href="#DejaVuSans-7a" transform="translate(333.740234 0)"/>
     <use xlink:href="#DejaVuSans-61" transform="translate(386.230469 0)"/>
     <use xlink:href="#DejaVuSans-74" transform="translate(447.509766 0)"/>
     <use xlink:href="#DejaVuSans-69" transform="translate(486.71875 0)"/>
     <use xlink:href="#DejaVuSans-6f" transform="translate(514.501953 0)"/>
     <use xlink:href="#DejaVuSans-6e" transform="translate(575.683594 0)"/>
    </g>
   </g>
   <g id="text_4">
    <!-- Runtime parameters -->
    <g style="fill: #1a1a1a" transform="translate(42.991148 180.621369) scale(0.09 -0.09)">
     <defs>
      <path id="DejaVuSans-52" d="M 2841 2188 
Q 3044 2119 3236 1894 
Q 3428 1669 3622 1275 
L 4263 0 
L 3584 0 
L 2988 1197 
Q 2756 1666 2539 1819 
Q 2322 1972 1947 1972 
L 1259 1972 
L 1259 0 
L 628 0 
L 628 4666 
L 2053 4666 
Q 2853 4666 3247 4331 
Q 3641 3997 3641 3322 
Q 3641 2881 3436 2590 
Q 3231 2300 2841 2188 
z
M 1259 4147 
L 1259 2491 
L 2053 2491 
Q 2509 2491 2742 2702 
Q 2975 2913 2975 3322 
Q 2975 3731 2742 3939 
Q 2509 4147 2053 4147 
L 1259 4147 
z
" transform="scale(0.015625)"/>
      <path id="DejaVuSans-6d" d="M 3328 2828 
Q 3544 3216 3844 3400 
Q 4144 3584 4550 3584 
Q 5097 3584 5394 3201 
Q 5691 2819 5691 2113 
L 5691 0 
L 5113 0 
L 5113 2094 
Q 5113 2597 4934 2840 
Q 4756 3084 4391 3084 
Q 3944 3084 3684 2787 
Q 3425 2491 3425 1978 
L 3425 0 
L 2847 0 
L 2847 2094 
Q 2847 2600 2669 2842 
Q 2491 3084 2119 3084 
Q 1678 3084 1418 2786 
Q 1159 2488 1159 1978 
L 1159 0 
L 581 0 
L 581 3500 
L 1159 3500 
L 1159 2956 
Q 1356 3278 1631 3431 
Q 1906 3584 2284 3584 
Q 2666 3584 2933 3390 
Q 3200 3197 3328 2828 
z
" transform="scale(0.015625)"/>
      <path id="DejaVuSans-70" d="M 1159 525 
L 1159 -1331 
L 581 -1331 
L 581 3500 
L 1159 3500 
L 1159 2969 
Q 1341 3281 1617 3432 
Q 1894 3584 2278 3584 
Q 2916 3584 3314 3078 
Q 3713 2572 3713 1747 
Q 3713 922 3314 415 
Q 2916 -91 2278 -91 
Q 1894 -91 1617 61 
Q 1341 213 1159 525 
z
M 3116 1747 
Q 3116 2381 2855 2742 
Q 2594 3103 2138 3103 
Q 1681 3103 1420 2742 
Q 1159 2381 1159 1747 
Q 1159 1113 1420 752 
Q 1681 391 2138 391 
Q 2594 391 2855 752 
Q 3116 1113 3116 1747 
z
" transform="scale(0.015625)"/>
      <path id="DejaVuSans-73" d="M 2834 3397 
L 2834 2853 
Q 2591 2978 2328 3040 
Q 2066 3103 1784 3103 
Q 1356 3103 1142 2972 
Q 928 2841 928 2578 
Q 928 2378 1081 2264 
Q 1234 2150 1697 2047 
L 1894 2003 
Q 2506 1872 2764 1633 
Q 3022 1394 3022 966 
Q 3022 478 2636 193 
Q 2250 -91 1575 -91 
Q 1294 -91 989 -36 
Q 684 19 347 128 
L 347 722 
Q 666 556 975 473 
Q 1284 391 1588 391 
Q 1994 391 2212 530 
Q 2431 669 2431 922 
Q 2431 1156 2273 1281 
Q 2116 1406 1581 1522 
L 1381 1569 
Q 847 1681 609 1914 
Q 372 2147 372 2553 
Q 372 3047 722 3315 
Q 1072 3584 1716 3584 
Q 2034 3584 2315 3537 
Q 2597 3491 2834 3397 
z
" transform="scale(0.015625)"/>
     </defs>
     <use xlink:href="#DejaVuSans-52"/>
     <use xlink:href="#DejaVuSans-75" transform="translate(64.982422 0)"/>
     <use xlink:href="#DejaVuSans-6e" transform="translate(128.361328 0)"/>
     <use xlink:href="#DejaVuSans-74" transform="translate(191.740234 0)"/>
     <use xlink:href="#DejaVuSans-69" transform="translate(230.949219 0)"/>
     <use xlink:href="#DejaVuSans-6d" transform="translate(258.732422 0)"/>
     <use xlink:href="#DejaVuSans-65" transform="translate(356.144531 0)"/>
     <use xlink:href="#DejaVuSans-20" transform="translate(417.667969 0)"/>
     <use xlink:href="#DejaVuSans-70" transform="translate(449.455078 0)"/>
     <use xlink:href="#DejaVuSans-61" transform="translate(512.931641 0)"/>
     <use xlink:href="#DejaVuSans-72" transform="translate(574.210938 0)"/>
     <use xlink:href="#DejaVuSans-61" transform="translate(615.324219 0)"/>
     <use xlink:href="#DejaVuSans-6d" transform="translate(676.603516 0)"/>
     <use xlink:href="#DejaVuSans-65" transform="translate(774.015625 0)"/>
     <use xlink:href="#DejaVuSans-74" transform="translate(835.539062 0)"/>
     <use xlink:href="#DejaVuSans-65" transform="translate(874.748047 0)"/>
     <use xlink:href="#DejaVuSans-72" transform="translate(936.271484 0)"/>
     <use xlink:href="#DejaVuSans-73" transform="translate(977.384766 0)"/>
    </g>
   </g>
   <g id="text_5">
    <!-- Memory -->
    <g style="fill: #1a1a1a" transform="translate(200.05698 66.316146) scale(0.09 -0.09)">
     <defs>
      <path id="DejaVuSans-79" d="M 2059 -325 
Q 1816 -950 1584 -1140 
Q 1353 -1331 966 -1331 
L 506 -1331 
L 506 -850 
L 844 -850 
Q 1081 -850 1212 -737 
Q 1344 -625 1503 -206 
L 1606 56 
L 191 3500 
L 800 3500 
L 1894 763 
L 2988 3500 
L 3597 3500 
L 2059 -325 
z
" transform="scale(0.015625)"/>
     </defs>
     <use xlink:href="#DejaVuSans-4d"/>
     <use xlink:href="#DejaVuSans-65" transform="translate(86.279297 0)"/>
     <use xlink:href="#DejaVuSans-6d" transform="translate(147.802734 0)"/>
     <use xlink:href="#DejaVuSans-6f" transform="translate(245.214844 0)"/>
     <use xlink:href="#DejaVuSans-72" transform="translate(306.396484 0)"/>
     <use xlink:href="#DejaVuSans-79" transform="translate(347.509766 0)"/>
    </g>
    <!-- availability -->
    <g style="fill: #1a1a1a" transform="translate(193.887058 76.394177) scale(0.09 -0.09)">
     <defs>
      <path id="DejaVuSans-76" d="M 191 3500 
L 800 3500 
L 1894 563 
L 2988 3500 
L 3597 3500 
L 2284 0 
L 1503 0 
L 191 3500 
z
" transform="scale(0.015625)"/>
      <path id="DejaVuSans-62" d="M 3116 1747 
Q 3116 2381 2855 2742 
Q 2594 3103 2138 3103 
Q 1681 3103 1420 2742 
Q 1159 2381 1159 1747 
Q 1159 1113 1420 752 
Q 1681 391 2138 391 
Q 2594 391 2855 752 
Q 3116 1113 3116 1747 
z
M 1159 2969 
Q 1341 3281 1617 3432 
Q 1894 3584 2278 3584 
Q 2916 3584 3314 3078 
Q 3713 2572 3713 1747 
Q 3713 922 3314 415 
Q 2916 -91 2278 -91 
Q 1894 -91 1617 61 
Q 1341 213 1159 525 
L 1159 0 
L 581 0 
L 581 4863 
L 1159 4863 
L 1159 2969 
z
" transform="scale(0.015625)"/>
     </defs>
     <use xlink:href="#DejaVuSans-61"/>
     <use xlink:href="#DejaVuSans-76" transform="translate(61.279297 0)"/>
     <use xlink:href="#DejaVuSans-61" transform="translate(120.458984 0)"/>
     <use xlink:href="#DejaVuSans-69" transform="translate(181.738281 0)"/>
     <use xlink:href="#DejaVuSans-6c" transform="translate(209.521484 0)"/>
     <use xlink:href="#DejaVuSans-61" transform="translate(237.304688 0)"/>
     <use xlink:href="#DejaVuSans-62" transform="translate(298.583984 0)"/>
     <use xlink:href="#DejaVuSans-69" transform="translate(362.060547 0)"/>
     <use xlink:href="#DejaVuSans-6c" transform="translate(389.84375 0)"/>
     <use xlink:href="#DejaVuSans-69" transform="translate(417.626953 0)"/>
     <use xlink:href="#DejaVuSans-74" transform="translate(445.410156 0)"/>
     <use xlink:href="#DejaVuSans-79" transform="translate(484.619141 0)"/>
    </g>
   </g>
   <g id="text_6">
    <!-- Memory -->
    <g style="fill: #1a1a1a" transform="translate(200.05698 120.278905) scale(0.09 -0.09)">
     <use xlink:href="#DejaVuSans-4d"/>
     <use xlink:href="#DejaVuSans-65" transform="translate(86.279297 0)"/>
     <use xlink:href="#DejaVuSans-6d" transform="translate(147.802734 0)"/>
     <use xlink:href="#DejaVuSans-6f" transform="translate(245.214844 0)"/>
     <use xlink:href="#DejaVuSans-72" transform="translate(306.396484 0)"/>
     <use xlink:href="#DejaVuSans-79" transform="translate(347.509766 0)"/>
    </g>
    <!-- footprint -->
    <g style="fill: #1a1a1a" transform="translate(198.930574 130.356936) scale(0.09 -0.09)">
     <defs>
      <path id="DejaVuSans-66" d="M 2375 4863 
L 2375 4384 
L 1825 4384 
Q 1516 4384 1395 4259 
Q 1275 4134 1275 3809 
L 1275 3500 
L 2222 3500 
L 2222 3053 
L 1275 3053 
L 1275 0 
L 697 0 
L 697 3053 
L 147 3053 
L 147 3500 
L 697 3500 
L 697 3744 
Q 697 4328 969 4595 
Q 1241 4863 1831 4863 
L 2375 4863 
z
" transform="scale(0.015625)"/>
     </defs>
     <use xlink:href="#DejaVuSans-66"/>
     <use xlink:href="#DejaVuSans-6f" transform="translate(35.205078 0)"/>
     <use xlink:href="#DejaVuSans-6f" transform="translate(96.386719 0)"/>
     <use xlink:href="#DejaVuSans-74" transform="translate(157.568359 0)"/>
     <use xlink:href="#DejaVuSans-70" transform="translate(196.777344 0)"/>
     <use xlink:href="#DejaVuSans-72" transform="translate(260.253906 0)"/>
     <use xlink:href="#DejaVuSans-69" transform="translate(301.367188 0)"/>
     <use xlink:href="#DejaVuSans-6e" transform="translate(329.150391 0)"/>
     <use xlink:href="#DejaVuSans-74" transform="translate(392.529297 0)"/>
    </g>
   </g>
   <g id="text_7">
    <!-- Compute -->
    <g style="fill: #1a1a1a" transform="translate(197.837918 174.241663) scale(0.09 -0.09)">
     <defs>
      <path id="DejaVuSans-43" d="M 4122 4306 
L 4122 3641 
Q 3803 3938 3442 4084 
Q 3081 4231 2675 4231 
Q 1875 4231 1450 3742 
Q 1025 3253 1025 2328 
Q 1025 1406 1450 917 
Q 1875 428 2675 428 
Q 3081 428 3442 575 
Q 3803 722 4122 1019 
L 4122 359 
Q 3791 134 3420 21 
Q 3050 -91 2638 -91 
Q 1578 -91 968 557 
Q 359 1206 359 2328 
Q 359 3453 968 4101 
Q 1578 4750 2638 4750 
Q 3056 4750 3426 4639 
Q 3797 4528 4122 4306 
z
" transform="scale(0.015625)"/>
     </defs>
     <use xlink:href="#DejaVuSans-43"/>
     <use xlink:href="#DejaVuSans-6f" transform="translate(69.824219 0)"/>
     <use xlink:href="#DejaVuSans-6d" transform="translate(131.005859 0)"/>
     <use xlink:href="#DejaVuSans-70" transform="translate(228.417969 0)"/>
     <use xlink:href="#DejaVuSans-75" transform="translate(291.894531 0)"/>
     <use xlink:href="#DejaVuSans-74" transform="translate(355.273438 0)"/>
     <use xlink:href="#DejaVuSans-65" transform="translate(394.482422 0)"/>
    </g>
    <!-- volume -->
    <g style="fill: #1a1a1a" transform="translate(201.687527 184.319695) scale(0.09 -0.09)">
     <use xlink:href="#DejaVuSans-76"/>
     <use xlink:href="#DejaVuSans-6f" transform="translate(59.179688 0)"/>
     <use xlink:href="#DejaVuSans-6c" transform="translate(120.361328 0)"/>
     <use xlink:href="#DejaVuSans-75" transform="translate(148.144531 0)"/>
     <use xlink:href="#DejaVuSans-6d" transform="translate(211.523438 0)"/>
     <use xlink:href="#DejaVuSans-65" transform="translate(308.935547 0)"/>
    </g>
   </g>
   <g id="text_8">
    <!-- App constraints -->
    <g style="fill: #1a1a1a" transform="translate(293.737548 70.014472) scale(0.09 -0.09)">
     <defs>
      <path id="DejaVuSans-41" d="M 2188 4044 
L 1331 1722 
L 3047 1722 
L 2188 4044 
z
M 1831 4666 
L 2547 4666 
L 4325 0 
L 3669 0 
L 3244 1197 
L 1141 1197 
L 716 0 
L 50 0 
L 1831 4666 
z
" transform="scale(0.015625)"/>
     </defs>
     <use xlink:href="#DejaVuSans-41"/>
     <use xlink:href="#DejaVuSans-70" transform="translate(68.408203 0)"/>
     <use xlink:href="#DejaVuSans-70" transform="translate(131.884766 0)"/>
     <use xlink:href="#DejaVuSans-20" transform="translate(195.361328 0)"/>
     <use xlink:href="#DejaVuSans-63" transform="translate(227.148438 0)"/>
     <use xlink:href="#DejaVuSans-6f" transform="translate(282.128906 0)"/>
     <use xlink:href="#DejaVuSans-6e" transform="translate(343.310547 0)"/>
     <use xlink:href="#DejaVuSans-73" transform="translate(406.689453 0)"/>
     <use xlink:href="#DejaVuSans-74" transform="translate(458.789062 0)"/>
     <use xlink:href="#DejaVuSans-72" transform="translate(497.998047 0)"/>
     <use xlink:href="#DejaVuSans-61" transform="translate(539.111328 0)"/>
     <use xlink:href="#DejaVuSans-69" transform="translate(600.390625 0)"/>
     <use xlink:href="#DejaVuSans-6e" transform="translate(628.173828 0)"/>
     <use xlink:href="#DejaVuSans-74" transform="translate(691.552734 0)"/>
     <use xlink:href="#DejaVuSans-73" transform="translate(730.761719 0)"/>
    </g>
   </g>
   <g id="text_9">
    <!-- Batch -->
    <g style="fill: #1a1a1a" transform="translate(309.326678 101.844422) scale(0.09 -0.09)">
     <defs>
      <path id="DejaVuSans-42" d="M 1259 2228 
L 1259 519 
L 2272 519 
Q 2781 519 3026 730 
Q 3272 941 3272 1375 
Q 3272 1813 3026 2020 
Q 2781 2228 2272 2228 
L 1259 2228 
z
M 1259 4147 
L 1259 2741 
L 2194 2741 
Q 2656 2741 2882 2914 
Q 3109 3088 3109 3444 
Q 3109 3797 2882 3972 
Q 2656 4147 2194 4147 
L 1259 4147 
z
M 628 4666 
L 2241 4666 
Q 2963 4666 3353 4366 
Q 3744 4066 3744 3513 
Q 3744 3084 3544 2831 
Q 3344 2578 2956 2516 
Q 3422 2416 3680 2098 
Q 3938 1781 3938 1306 
Q 3938 681 3513 340 
Q 3088 0 2303 0 
L 628 0 
L 628 4666 
z
" transform="scale(0.015625)"/>
      <path id="DejaVuSans-68" d="M 3513 2113 
L 3513 0 
L 2938 0 
L 2938 2094 
Q 2938 2591 2744 2837 
Q 2550 3084 2163 3084 
Q 1697 3084 1428 2787 
Q 1159 2491 1159 1978 
L 1159 0 
L 581 0 
L 581 4863 
L 1159 4863 
L 1159 2956 
Q 1366 3272 1645 3428 
Q 1925 3584 2291 3584 
Q 2894 3584 3203 3211 
Q 3513 2838 3513 2113 
z
" transform="scale(0.015625)"/>
     </defs>
     <use xlink:href="#DejaVuSans-42"/>
     <use xlink:href="#DejaVuSans-61" transform="translate(68.603516 0)"/>
     <use xlink:href="#DejaVuSans-74" transform="translate(129.882812 0)"/>
     <use xlink:href="#DejaVuSans-63" transform="translate(169.091797 0)"/>
     <use xlink:href="#DejaVuSans-68" transform="translate(224.072266 0)"/>
    </g>
    <!-- size -->
    <g style="fill: #1a1a1a" transform="translate(313.536991 111.922453) scale(0.09 -0.09)">
     <use xlink:href="#DejaVuSans-73"/>
     <use xlink:href="#DejaVuSans-69" transform="translate(52.099609 0)"/>
     <use xlink:href="#DejaVuSans-7a" transform="translate(79.882812 0)"/>
     <use xlink:href="#DejaVuSans-65" transform="translate(132.373047 0)"/>
    </g>
   </g>
   <g id="text_10">
    <!-- Non-GPU bottlenecks -->
    <g style="fill: #1a1a1a" transform="translate(311.246113 180.621369) scale(0.09 -0.09)">
     <defs>
      <path id="DejaVuSans-4e" d="M 628 4666 
L 1478 4666 
L 3547 763 
L 3547 4666 
L 4159 4666 
L 4159 0 
L 3309 0 
L 1241 3903 
L 1241 0 
L 628 0 
L 628 4666 
z
" transform="scale(0.015625)"/>
      <path id="DejaVuSans-2d" d="M 313 2009 
L 1997 2009 
L 1997 1497 
L 313 1497 
L 313 2009 
z
" transform="scale(0.015625)"/>
      <path id="DejaVuSans-6b" d="M 581 4863 
L 1159 4863 
L 1159 1991 
L 2875 3500 
L 3609 3500 
L 1753 1863 
L 3688 0 
L 2938 0 
L 1159 1709 
L 1159 0 
L 581 0 
L 581 4863 
z
" transform="scale(0.015625)"/>
     </defs>
     <use xlink:href="#DejaVuSans-4e"/>
     <use xlink:href="#DejaVuSans-6f" transform="translate(74.804688 0)"/>
     <use xlink:href="#DejaVuSans-6e" transform="translate(135.986328 0)"/>
     <use xlink:href="#DejaVuSans-2d" transform="translate(199.365234 0)"/>
     <use xlink:href="#DejaVuSans-47" transform="translate(239.074219 0)"/>
     <use xlink:href="#DejaVuSans-50" transform="translate(316.564453 0)"/>
     <use xlink:href="#DejaVuSans-55" transform="translate(376.867188 0)"/>
     <use xlink:href="#DejaVuSans-20" transform="translate(450.060547 0)"/>
     <use xlink:href="#DejaVuSans-62" transform="translate(481.847656 0)"/>
     <use xlink:href="#DejaVuSans-6f" transform="translate(545.324219 0)"/>
     <use xlink:href="#DejaVuSans-74" transform="translate(606.505859 0)"/>
     <use xlink:href="#DejaVuSans-74" transform="translate(645.714844 0)"/>
     <use xlink:href="#DejaVuSans-6c" transform="translate(684.923828 0)"/>
     <use xlink:href="#DejaVuSans-65" transform="translate(712.707031 0)"/>
     <use xlink:href="#DejaVuSans-6e" transform="translate(774.230469 0)"/>
     <use xlink:href="#DejaVuSans-65" transform="translate(837.609375 0)"/>
     <use xlink:href="#DejaVuSans-63" transform="translate(899.132812 0)"/>
     <use xlink:href="#DejaVuSans-6b" transform="translate(954.113281 0)"/>
     <use xlink:href="#DejaVuSans-73" transform="translate(1012.023438 0)"/>
    </g>
   </g>
   <g id="text_11">
    <!-- GPU -->
    <g style="fill: #1a1a1a" transform="translate(420.023648 101.844422) scale(0.09 -0.09)">
     <use xlink:href="#DejaVuSans-47"/>
     <use xlink:href="#DejaVuSans-50" transform="translate(77.490234 0)"/>
     <use xlink:href="#DejaVuSans-55" transform="translate(137.792969 0)"/>
    </g>
    <!-- utilization -->
    <g style="fill: #1a1a1a" transform="translate(407.411695 111.922453) scale(0.09 -0.09)">
     <use xlink:href="#DejaVuSans-75"/>
     <use xlink:href="#DejaVuSans-74" transform="translate(63.378906 0)"/>
     <use xlink:href="#DejaVuSans-69" transform="translate(102.587891 0)"/>
     <use xlink:href="#DejaVuSans-6c" transform="translate(130.371094 0)"/>
     <use xlink:href="#DejaVuSans-69" transform="translate(158.154297 0)"/>
     <use xlink:href="#DejaVuSans-7a" transform="translate(185.9375 0)"/>
     <use xlink:href="#DejaVuSans-61" transform="translate(238.427734 0)"/>
     <use xlink:href="#DejaVuSans-74" transform="translate(299.707031 0)"/>
     <use xlink:href="#DejaVuSans-69" transform="translate(338.916016 0)"/>
     <use xlink:href="#DejaVuSans-6f" transform="translate(366.699219 0)"/>
     <use xlink:href="#DejaVuSans-6e" transform="translate(427.880859 0)"/>
    </g>
   </g>
   <g id="text_12">
    <!-- Energy -->
    <g style="fill: #1a1a1a" transform="translate(514.313341 106.883437) scale(0.09 -0.09)">
     <defs>
      <path id="DejaVuSans-45" d="M 628 4666 
L 3578 4666 
L 3578 4134 
L 1259 4134 
L 1259 2753 
L 3481 2753 
L 3481 2222 
L 1259 2222 
L 1259 531 
L 3634 531 
L 3634 0 
L 628 0 
L 628 4666 
z
" transform="scale(0.015625)"/>
     </defs>
     <use xlink:href="#DejaVuSans-45"/>
     <use xlink:href="#DejaVuSans-6e" transform="translate(63.183594 0)"/>
     <use xlink:href="#DejaVuSans-65" transform="translate(126.5625 0)"/>
     <use xlink:href="#DejaVuSans-72" transform="translate(188.085938 0)"/>
     <use xlink:href="#DejaVuSans-67" transform="translate(227.449219 0)"/>
     <use xlink:href="#DejaVuSans-79" transform="translate(290.925781 0)"/>
    </g>
   </g>
   <g id="text_13">
    <!-- Throughput/Watt -->
    <g style="fill: #1a1a1a" transform="translate(491.968731 167.214472) scale(0.09 -0.09)">
     <defs>
      <path id="DejaVuSans-54" d="M -19 4666 
L 3928 4666 
L 3928 4134 
L 2272 4134 
L 2272 0 
L 1638 0 
L 1638 4134 
L -19 4134 
L -19 4666 
z
" transform="scale(0.015625)"/>
      <path id="DejaVuSans-2f" d="M 1625 4666 
L 2156 4666 
L 531 -594 
L 0 -594 
L 1625 4666 
z
" transform="scale(0.015625)"/>
      <path id="DejaVuSans-57" d="M 213 4666 
L 850 4666 
L 1831 722 
L 2809 4666 
L 3519 4666 
L 4500 722 
L 5478 4666 
L 6119 4666 
L 4947 0 
L 4153 0 
L 3169 4050 
L 2175 0 
L 1381 0 
L 213 4666 
z
" transform="scale(0.015625)"/>
     </defs>
     <use xlink:href="#DejaVuSans-54"/>
     <use xlink:href="#DejaVuSans-68" transform="translate(61.083984 0)"/>
     <use xlink:href="#DejaVuSans-72" transform="translate(124.462891 0)"/>
     <use xlink:href="#DejaVuSans-6f" transform="translate(163.326172 0)"/>
     <use xlink:href="#DejaVuSans-75" transform="translate(224.507812 0)"/>
     <use xlink:href="#DejaVuSans-67" transform="translate(287.886719 0)"/>
     <use xlink:href="#DejaVuSans-68" transform="translate(351.363281 0)"/>
     <use xlink:href="#DejaVuSans-70" transform="translate(414.742188 0)"/>
     <use xlink:href="#DejaVuSans-75" transform="translate(478.21875 0)"/>
     <use xlink:href="#DejaVuSans-74" transform="translate(541.597656 0)"/>
     <use xlink:href="#DejaVuSans-2f" transform="translate(580.806641 0)"/>
     <use xlink:href="#DejaVuSans-57" transform="translate(614.498047 0)"/>
     <use xlink:href="#DejaVuSans-61" transform="translate(707 0)"/>
     <use xlink:href="#DejaVuSans-74" transform="translate(768.279297 0)"/>
     <use xlink:href="#DejaVuSans-74" transform="translate(807.488281 0)"/>
    </g>
   </g>
  </g>
 </g>
 <defs>
  <clipPath id="pb8e111856a">
   <rect x="7.2" y="7.2" width="583.2" height="194.4"/>
  </clipPath>
 </defs>
</svg>
