<?xml version="1.0" encoding="utf-8" standalone="no"?>
<!DOCTYPE svg PUBLIC "-//W3C//DTD SVG 1.1//EN"
  "http://www.w3.org/Graphics/SVG/1.1/DTD/svg11.dtd">
<svg xmlns:xlink="http://www.w3.org/1999/xlink" width="588.6pt" height="172.8pt" viewBox="0 0 588.6 172.8" xmlns="http://www.w3.org/2000/svg" version="1.1">
 <metadata>
  <rdf:RDF xmlns:dc="http://purl.org/dc/elements/1.1/" xmlns:cc="http://creativecommons.org/ns#" xmlns:rdf="http://www.w3.org/1999/02/22-rdf-syntax-ns#">
   <cc:Work>
    <dc:type rdf:resource="http://purl.org/dc/dcmitype/StillImage"/>
    <dc:format>image/svg+xml</dc:format>
    <dc:creator>
     <cc:Agent>
      <dc:title>Matplotlib v3.9.4, https://matplotlib.org/</dc:title>
     </cc:Agent>
    </dc:creator>
   </cc:Work>
  </rdf:RDF>
 </metadata>
 <defs>
  <style type="text/css">*{stroke-linejoin: round; stroke-linecap: butt}</style>
 </defs>
 <g id="figure_1">
  <g id="patch_1">
   <path d="M -0 172.8 
L 588.6 172.8 
L 588.6 0 
L -0 0 
L -0 172.8 
z
" style="fill: none"/>
  </g>
  <g id="axes_1">
   <g id="patch_2">
    <path d="M 24.36 46.47 
L 135.24 46.47 
Q 140.52 46.47 140.52 41.19 
L 140.52 26.01 
Q 140.52 20.73 135.24 20.73 
L 24.36 20.73 
Q 19.08 20.73 19.08 26.01 
L 19.08 41.19 
Q 19.08 46.47 24.36 46.47 
z
" clip-path="url(#pd07f49ac54)" style="fill: #d4d4d4; stroke: #000000; stroke-linejoin: miter"/>
   </g>
   <g id="patch_3">
    <path d="M 96.96 82.77 
L 135.24 82.77 
Q 140.52 82.77 140.52 77.49 
L 140.52 62.31 
Q 140.52 57.03 135.24 57.03 
L 96.96 57.03 
Q 91.68 57.03 91.68 62.31 
L 91.68 77.49 
Q 91.68 82.77 96.96 82.77 
z
" clip-path="url(#pd07f49ac54)" style="fill: #d4d4d4; stroke: #000000; stroke-linejoin: miter"/>
   </g>
   <g id="patch_4">
    <path d="M 77.16 119.07 
L 135.24 119.07 
Q 140.52 119.07 140.52 113.79 
L 140.52 98.61 
Q 140.52 93.33 135.24 93.33 
L 77.16 93.33 
Q 71.88 93.33 71.88 98.61 
L 71.88 113.79 
Q 71.88 119.07 77.16 119.07 
z
" clip-path="url(#pd07f49ac54)" style="fill: #d4d4d4; stroke: #000000; stroke-linejoin: miter"/>
   </g>
   <g id="patch_5">
    <path d="M 40.86 155.37 
L 135.24 155.37 
Q 140.52 155.37 140.52 150.09 
L 140.52 134.91 
Q 140.52 129.63 135.24 129.63 
L 40.86 129.63 
Q 35.58 129.63 35.58 134.91 
L 35.58 150.09 
Q 35.58 155.37 40.86 155.37 
z
" clip-path="url(#pd07f49ac54)" style="fill: #d4d4d4; stroke: #000000; stroke-linejoin: miter"/>
   </g>
   <g id="patch_6">
    <path d="M 182.76 47.79 
L 247.44 47.79 
Q 252.72 47.79 252.72 42.51 
L 252.72 27.33 
Q 252.72 22.05 247.44 22.05 
L 182.76 22.05 
Q 177.48 22.05 177.48 27.33 
L 177.48 42.51 
Q 177.48 47.79 182.76 47.79 
z
" clip-path="url(#pd07f49ac54)" style="fill: #a8c8e8; stroke: #000000; stroke-linejoin: miter"/>
   </g>
   <g id="patch_7">
    <path d="M 182.76 100.92 
L 247.44 100.92 
Q 252.72 100.92 252.72 95.64 
L 252.72 80.46 
Q 252.72 75.18 247.44 75.18 
L 182.76 75.18 
Q 177.48 75.18 177.48 80.46 
L 177.48 95.64 
Q 177.48 100.92 182.76 100.92 
z
" clip-path="url(#pd07f49ac54)" style="fill: #a8c8e8; stroke: #000000; stroke-linejoin: miter"/>
   </g>
   <g id="patch_8">
    <path d="M 182.76 154.05 
L 247.44 154.05 
Q 252.72 154.05 252.72 148.77 
L 252.72 133.59 
Q 252.72 128.31 247.44 128.31 
L 182.76 128.31 
Q 177.48 128.31 177.48 133.59 
L 177.48 148.77 
Q 177.48 154.05 182.76 154.05 
z
" clip-path="url(#pd07f49ac54)" style="fill: #a8c8e8; stroke: #000000; stroke-linejoin: miter"/>
   </g>
   <g id="patch_9">
    <path d="M 288.36 46.47 
L 359.64 46.47 
Q 364.92 46.47 364.92 41.19 
L 364.92 26.01 
Q 364.92 20.73 359.64 20.73 
L 288.36 20.73 
Q 283.08 20.73 283.08 26.01 
L 283.08 41.19 
Q 283.08 46.47 288.36 46.47 
z
" clip-path="url(#pd07f49ac54)" style="fill: #d4d4d4; stroke: #000000; stroke-linejoin: miter"/>
   </g>
   <g id="patch_10">
    <path d="M 288.36 82.77 
L 346.44 82.77 
Q 351.72 82.77 351.72 77.49 
L 351.72 62.31 
Q 351.72 57.03 346.44 57.03 
L 288.36 57.03 
Q 283.08 57.03 283.08 62.31 
L 283.08 77.49 
Q 283.08 82.77 288.36 82.77 
z
" clip-path="url(#pd07f49ac54)" style="fill: #a8c8e8; stroke: #000000; stroke-linejoin: miter"/>
   </g>
   <g id="patch_11">
    <path d="M 304.86 155.37 
L 402.54 155.37 
Q 407.82 155.37 407.82 150.09 
L 407.82 134.91 
Q 407.82 129.63 402.54 129.63 
L 304.86 129.63 
Q 299.58 129.63 299.58 134.91 
L 299.58 150.09 
Q 299.58 155.37 304.86 155.37 
z
" clip-path="url(#pd07f49ac54)" style="fill: #d4d4d4; stroke: #000000; stroke-linejoin: miter"/>
   </g>
   <g id="patch_12">
    <path d="M 393.96 82.77 
L 452.04 82.77 
Q 457.32 82.77 457.32 77.49 
L 457.32 62.31 
Q 457.32 57.03 452.04 57.03 
L 393.96 57.03 
Q 388.68 57.03 388.68 62.31 
L 388.68 77.49 
Q 388.68 82.77 393.96 82.77 
z
" clip-path="url(#pd07f49ac54)" style="fill: #a8c8e8; stroke: #000000; stroke-linejoin: miter"/>
   </g>
   <g id="patch_13">
    <path d="M 486.36 82.77 
L 557.64 82.77 
Q 562.92 82.77 562.92 77.49 
L 562.92 62.31 
Q 562.92 57.03 557.64 57.03 
L 486.36 57.03 
Q 481.08 57.03 481.08 62.31 
L 481.08 77.49 
Q 481.08 82.77 486.36 82.77 
z
" clip-path="url(#pd07f49ac54)" style="fill: #f5c49c; stroke: #000000; stroke-linejoin: miter"/>
   </g>
   <g id="patch_14">
    <path d="M 486.36 142.17 
L 557.64 142.17 
Q 562.92 142.17 562.92 136.89 
L 562.92 121.71 
Q 562.92 116.43 557.64 116.43 
L 486.36 116.43 
Q 481.08 116.43 481.08 121.71 
L 481.08 136.89 
Q 481.08 142.17 486.36 142.17 
z
" clip-path="url(#pd07f49ac54)" style="fill: #f5c49c; stroke: #000000; stroke-linejoin: miter"/>
   </g>
   <g id="patch_15">
    <path d="M 141.18 33.6 
Q 159.33 33.6 176.138359 33.6 
" clip-path="url(#pd07f49ac54)" style="fill: none; stroke: #000000; stroke-width: 1.2; stroke-linecap: round"/>
    <path d="M 171.338359 31.2 
L 176.138359 33.6 
L 171.338359 36 
z
" clip-path="url(#pd07f49ac54)" style="stroke: #000000; stroke-width: 1.2; stroke-linecap: round"/>
   </g>
   <g id="patch_16">
    <path d="M 141.18 69.9 
Q 159.33 53.07 176.496218 37.152235 
" clip-path="url(#pd07f49ac54)" style="fill: none; stroke: #000000; stroke-width: 1.2; stroke-linecap: round"/>
    <path d="M 171.344675 38.656101 
L 176.496218 37.152235 
L 174.608385 42.175788 
z
" clip-path="url(#pd07f49ac54)" style="stroke: #000000; stroke-width: 1.2; stroke-linecap: round"/>
   </g>
   <g id="patch_17">
    <path d="M 141.18 69.9 
Q 159.33 77.985 176.254453 85.524075 
" clip-path="url(#pd07f49ac54)" style="fill: none; stroke: #000000; stroke-width: 1.2; stroke-linecap: round"/>
    <path d="M 172.846384 81.378587 
L 176.254453 85.524075 
L 170.893222 85.763237 
z
" clip-path="url(#pd07f49ac54)" style="stroke: #000000; stroke-width: 1.2; stroke-linecap: round"/>
   </g>
   <g id="patch_18">
    <path d="M 141.18 106.2 
Q 159.33 98.115 176.254453 90.575925 
" clip-path="url(#pd07f49ac54)" style="fill: none; stroke: #000000; stroke-width: 1.2; stroke-linecap: round"/>
    <path d="M 170.893222 90.336763 
L 176.254453 90.575925 
L 172.846384 94.721413 
z
" clip-path="url(#pd07f49ac54)" style="stroke: #000000; stroke-width: 1.2; stroke-linecap: round"/>
   </g>
   <g id="patch_19">
    <path d="M 141.18 69.9 
Q 159.33 103.89 176.848043 136.696518 
" clip-path="url(#pd07f49ac54)" style="fill: none; stroke: #000000; stroke-width: 1.2; stroke-linecap: round"/>
    <path d="M 176.704164 131.331883 
L 176.848043 136.696518 
L 172.470009 133.59284 
z
" clip-path="url(#pd07f49ac54)" style="stroke: #000000; stroke-width: 1.2; stroke-linecap: round"/>
   </g>
   <g id="patch_20">
    <path d="M 141.18 106.2 
Q 159.33 123.69 176.513914 140.249045 
" clip-path="url(#pd07f49ac54)" style="fill: none; stroke: #000000; stroke-width: 1.2; stroke-linecap: round"/>
    <path d="M 174.722884 135.19017 
L 176.513914 140.249045 
L 171.392196 138.646544 
z
" clip-path="url(#pd07f49ac54)" style="stroke: #000000; stroke-width: 1.2; stroke-linecap: round"/>
   </g>
   <g id="patch_21">
    <path d="M 141.18 142.5 
Q 159.33 142.5 176.138359 142.5 
" clip-path="url(#pd07f49ac54)" style="fill: none; stroke: #000000; stroke-width: 1.2; stroke-linecap: round"/>
    <path d="M 171.338359 140.1 
L 176.138359 142.5 
L 171.338359 144.9 
z
" clip-path="url(#pd07f49ac54)" style="stroke: #000000; stroke-width: 1.2; stroke-linecap: round"/>
   </g>
   <g id="patch_22">
    <path d="M 253.38 34.92 
Q 268.23 51.42 282.18249 66.922766 
" clip-path="url(#pd07f49ac54)" style="fill: none; stroke: #000000; stroke-width: 1.2; stroke-linecap: round"/>
    <path d="M 280.755365 61.749439 
L 282.18249 66.922766 
L 277.187553 64.96047 
z
" clip-path="url(#pd07f49ac54)" style="stroke: #000000; stroke-width: 1.2; stroke-linecap: round"/>
   </g>
   <g id="patch_23">
    <path d="M 253.38 88.05 
Q 268.23 79.965 281.90168 72.52153 
" clip-path="url(#pd07f49ac54)" style="fill: none; stroke: #000000; stroke-width: 1.2; stroke-linecap: round"/>
    <path d="M 276.538388 72.708894 
L 281.90168 72.52153 
L 278.833596 76.924582 
z
" clip-path="url(#pd07f49ac54)" style="stroke: #000000; stroke-width: 1.2; stroke-linecap: round"/>
   </g>
   <g id="patch_24">
    <path d="M 317.4 47.13 
Q 317.4 51.75 317.4 55.028359 
" clip-path="url(#pd07f49ac54)" style="fill: none; stroke: #000000; stroke-width: 1.2; stroke-linecap: round"/>
    <path d="M 319.8 50.228359 
L 317.4 55.028359 
L 315 50.228359 
z
" clip-path="url(#pd07f49ac54)" style="stroke: #000000; stroke-width: 1.2; stroke-linecap: round"/>
   </g>
   <g id="patch_25">
    <path d="M 318.06 128.97 
Q 317.73 106.2 317.419442 84.7715 
" clip-path="url(#pd07f49ac54)" style="fill: none; stroke: #000000; stroke-width: 1.2; stroke-linecap: round"/>
    <path d="M 315.089252 89.605775 
L 317.419442 84.7715 
L 319.888748 89.536217 
z
" clip-path="url(#pd07f49ac54)" style="stroke: #000000; stroke-width: 1.2; stroke-linecap: round"/>
   </g>
   <g id="patch_26">
    <path d="M 352.38 69.9 
Q 370.53 69.9 387.338359 69.9 
" clip-path="url(#pd07f49ac54)" style="fill: none; stroke: #000000; stroke-width: 1.2; stroke-linecap: round"/>
    <path d="M 382.538359 67.5 
L 387.338359 69.9 
L 382.538359 72.3 
z
" clip-path="url(#pd07f49ac54)" style="stroke: #000000; stroke-width: 1.2; stroke-linecap: round"/>
   </g>
   <g id="patch_27">
    <path d="M 253.38 141.18 
Q 321.03 107.52 387.47883 74.457655 
" clip-path="url(#pd07f49ac54)" style="fill: none; stroke: #000000; stroke-width: 1.2; stroke-linecap: round"/>
    <path d="M 382.112278 74.447174 
L 387.47883 74.457655 
L 384.250513 78.744609 
z
" clip-path="url(#pd07f49ac54)" style="stroke: #000000; stroke-width: 1.2; stroke-linecap: round"/>
   </g>
   <g id="patch_28">
    <path d="M 457.98 69.9 
Q 469.53 69.9 479.738359 69.9 
" clip-path="url(#pd07f49ac54)" style="fill: none; stroke: #000000; stroke-width: 1.2; stroke-linecap: round"/>
    <path d="M 474.938359 67.5 
L 479.738359 69.9 
L 474.938359 72.3 
z
" clip-path="url(#pd07f49ac54)" style="stroke: #000000; stroke-width: 1.2; stroke-linecap: round"/>
   </g>
   <g id="patch_29">
    <path d="M 253.38 141.18 
Q 367.23 108.84 479.789417 76.8666 
" clip-path="url(#pd07f49ac54)" style="fill: none; stroke: #000000; stroke-width: 1.2; stroke-linecap: round"/>
    <path d="M 474.516293 75.869525 
L 479.789417 76.8666 
L 475.827882 80.486855 
z
" clip-path="url(#pd07f49ac54)" style="stroke: #000000; stroke-width: 1.2; stroke-linecap: round"/>
   </g>
   <g id="patch_30">
    <path d="M 522 84.771641 
Q 522 99.6 522 114.428359 
" clip-path="url(#pd07f49ac54)" style="fill: none; stroke-dasharray: 4.44,1.92; stroke-dashoffset: 0; stroke: #000000; stroke-width: 1.2; stroke-linecap: round"/>
    <path d="M 519.6 89.571641 
L 522 84.771641 
L 524.4 89.571641 
" clip-path="url(#pd07f49ac54)" style="fill: none; stroke-dasharray: 4.44,1.92; stroke-dashoffset: 0; stroke: #000000; stroke-width: 1.2; stroke-linecap: round"/>
    <path d="M 524.4 109.628359 
L 522 114.428359 
L 519.6 109.628359 
" clip-path="url(#pd07f49ac54)" style="fill: none; stroke-dasharray: 4.44,1.92; stroke-dashoffset: 0; stroke: #000000; stroke-width: 1.2; stroke-linecap: round"/>
   </g>
   <g id="text_1">
    <!-- GPU count &amp; generation -->
    <g transform="translate(25.337344 36.083437) scale(0.09 -0.09)">
     <defs>
      <path id="DejaVuSans-47" d="M 3809 666 
L 3809 1919 
L 2778 1919 
L 2778 2438 
L 4434 2438 
L 4434 434 
Q 4069 175 3628 42 
Q 3188 -91 2688 -91 
Q 1594 -91 976 548 
Q 359 1188 359 2328 
Q 359 3472 976 4111 
Q 1594 4750 2688 4750 
Q 3144 4750 3555 4637 
Q 3966 4525 4313 4306 
L 4313 3634 
Q 3963 3931 3569 4081 
Q 3175 4231 2741 4231 
Q 1884 4231 1454 3753 
Q 1025 3275 1025 2328 
Q 1025 1384 1454 906 
Q 1884 428 2741 428 
Q 3075 428 3337 486 
Q 3600 544 3809 666 
z
" transform="scale(0.015625)"/>
      <path id="DejaVuSans-50" d="M 1259 4147 
L 1259 2394 
L 2053 2394 
Q 2494 2394 2734 2622 
Q 2975 2850 2975 3272 
Q 2975 3691 2734 3919 
Q 2494 4147 2053 4147 
L 1259 4147 
z
M 628 4666 
L 2053 4666 
Q 2838 4666 3239 4311 
Q 3641 3956 3641 3272 
Q 3641 2581 3239 2228 
Q 2838 1875 2053 1875 
L 1259 1875 
L 1259 0 
L 628 0 
L 628 4666 
z
" transform="scale(0.015625)"/>
      <path id="DejaVuSans-55" d="M 556 4666 
L 1191 4666 
L 1191 1831 
Q 1191 1081 1462 751 
Q 1734 422 2344 422 
Q 2950 422 3222 751 
Q 3494 1081 3494 1831 
L 3494 4666 
L 4128 4666 
L 4128 1753 
Q 4128 841 3676 375 
Q 3225 -91 2344 -91 
Q 1459 -91 1007 375 
Q 556 841 556 1753 
L 556 4666 
z
" transform="scale(0.015625)"/>
      <path id="DejaVuSans-20" transform="scale(0.015625)"/>
      <path id="DejaVuSans-63" d="M 3122 3366 
L 3122 2828 
Q 2878 2963 2633 3030 
Q 2388 3097 2138 3097 
Q 1578 3097 1268 2742 
Q 959 2388 959 1747 
Q 959 1106 1268 751 
Q 1578 397 2138 397 
Q 2388 397 2633 464 
Q 2878 531 3122 666 
L 3122 134 
Q 2881 22 2623 -34 
Q 2366 -91 2075 -91 
Q 1284 -91 818 406 
Q 353 903 353 1747 
Q 353 2603 823 3093 
Q 1294 3584 2113 3584 
Q 2378 3584 2631 3529 
Q 2884 3475 3122 3366 
z
" transform="scale(0.015625)"/>
      <path id="DejaVuSans-6f" d="M 1959 3097 
Q 1497 3097 1228 2736 
Q 959 2375 959 1747 
Q 959 1119 1226 758 
Q 1494 397 1959 397 
Q 2419 397 2687 759 
Q 2956 1122 2956 1747 
Q 2956 2369 2687 2733 
Q 2419 3097 1959 3097 
z
M 1959 3584 
Q 2709 3584 3137 3096 
Q 3566 2609 3566 1747 
Q 3566 888 3137 398 
Q 2709 -91 1959 -91 
Q 1206 -91 779 398 
Q 353 888 353 1747 
Q 353 2609 779 3096 
Q 1206 3584 1959 3584 
z
" transform="scale(0.015625)"/>
      <path id="DejaVuSans-75" d="M 544 1381 
L 544 3500 
L 1119 3500 
L 1119 1403 
Q 1119 906 1312 657 
Q 1506 409 1894 409 
Q 2359 409 2629 706 
Q 2900 1003 2900 1516 
L 2900 3500 
L 3475 3500 
L 3475 0 
L 2900 0 
L 2900 538 
Q 2691 219 2414 64 
Q 2138 -91 1772 -91 
Q 1169 -91 856 284 
Q 544 659 544 1381 
z
M 1991 3584 
L 1991 3584 
z
" transform="scale(0.015625)"/>
      <path id="DejaVuSans-6e" d="M 3513 2113 
L 3513 0 
L 2938 0 
L 2938 2094 
Q 2938 2591 2744 2837 
Q 2550 3084 2163 3084 
Q 1697 3084 1428 2787 
Q 1159 2491 1159 1978 
L 1159 0 
L 581 0 
L 581 3500 
L 1159 3500 
L 1159 2956 
Q 1366 3272 1645 3428 
Q 1925 3584 2291 3584 
Q 2894 3584 3203 3211 
Q 3513 2838 3513 2113 
z
" transform="scale(0.015625)"/>
      <path id="DejaVuSans-74" d="M 1172 4494 
L 1172 3500 
L 2356 3500 
L 2356 3053 
L 1172 3053 
L 1172 1153 
Q 1172 725 1289 603 
Q 1406 481 1766 481 
L 2356 481 
L 2356 0 
L 1766 0 
Q 1100 0 847 248 
Q 594 497 594 1153 
L 594 3053 
L 172 3053 
L 172 3500 
L 594 3500 
L 594 4494 
L 1172 4494 
z
" transform="scale(0.015625)"/>
      <path id="DejaVuSans-26" d="M 1556 2509 
Q 1272 2256 1139 2004 
Q 1006 1753 1006 1478 
Q 1006 1022 1337 719 
Q 1669 416 2169 416 
Q 2466 416 2725 514 
Q 2984 613 3213 813 
L 1556 2509 
z
M 1997 2859 
L 3584 1234 
Q 3769 1513 3872 1830 
Q 3975 2147 3994 2503 
L 4575 2503 
Q 4538 2091 4375 1687 
Q 4213 1284 3922 891 
L 4794 0 
L 4006 0 
L 3559 459 
Q 3234 181 2878 45 
Q 2522 -91 2113 -91 
Q 1359 -91 881 339 
Q 403 769 403 1441 
Q 403 1841 612 2192 
Q 822 2544 1241 2853 
Q 1091 3050 1012 3245 
Q 934 3441 934 3628 
Q 934 4134 1281 4442 
Q 1628 4750 2203 4750 
Q 2463 4750 2720 4694 
Q 2978 4638 3244 4525 
L 3244 3956 
Q 2972 4103 2725 4179 
Q 2478 4256 2266 4256 
Q 1938 4256 1733 4082 
Q 1528 3909 1528 3634 
Q 1528 3475 1620 3314 
Q 1713 3153 1997 2859 
z
" transform="scale(0.015625)"/>
      <path id="DejaVuSans-67" d="M 2906 1791 
Q 2906 2416 2648 2759 
Q 2391 3103 1925 3103 
Q 1463 3103 1205 2759 
Q 947 2416 947 1791 
Q 947 1169 1205 825 
Q 1463 481 1925 481 
Q 2391 481 2648 825 
Q 2906 1169 2906 1791 
z
M 3481 434 
Q 3481 -459 3084 -895 
Q 2688 -1331 1869 -1331 
Q 1566 -1331 1297 -1286 
Q 1028 -1241 775 -1147 
L 775 -588 
Q 1028 -725 1275 -790 
Q 1522 -856 1778 -856 
Q 2344 -856 2625 -561 
Q 2906 -266 2906 331 
L 2906 616 
Q 2728 306 2450 153 
Q 2172 0 1784 0 
Q 1141 0 747 490 
Q 353 981 353 1791 
Q 353 2603 747 3093 
Q 1141 3584 1784 3584 
Q 2172 3584 2450 3431 
Q 2728 3278 2906 2969 
L 2906 3500 
L 3481 3500 
L 3481 434 
z
" transform="scale(0.015625)"/>
      <path id="DejaVuSans-65" d="M 3597 1894 
L 3597 1613 
L 953 1613 
Q 991 1019 1311 708 
Q 1631 397 2203 397 
Q 2534 397 2845 478 
Q 3156 559 3463 722 
L 3463 178 
Q 3153 47 2828 -22 
Q 2503 -91 2169 -91 
Q 1331 -91 842 396 
Q 353 884 353 1716 
Q 353 2575 817 3079 
Q 1281 3584 2069 3584 
Q 2775 3584 3186 3129 
Q 3597 2675 3597 1894 
z
M 3022 2063 
Q 3016 2534 2758 2815 
Q 2500 3097 2075 3097 
Q 1594 3097 1305 2825 
Q 1016 2553 972 2059 
L 3022 2063 
z
" transform="scale(0.015625)"/>
      <path id="DejaVuSans-72" d="M 2631 2963 
Q 2534 3019 2420 3045 
Q 2306 3072 2169 3072 
Q 1681 3072 1420 2755 
Q 1159 2438 1159 1844 
L 1159 0 
L 581 0 
L 581 3500 
L 1159 3500 
L 1159 2956 
Q 1341 3275 1631 3429 
Q 1922 3584 2338 3584 
Q 2397 3584 2469 3576 
Q 2541 3569 2628 3553 
L 2631 2963 
z
" transform="scale(0.015625)"/>
      <path id="DejaVuSans-61" d="M 2194 1759 
Q 1497 1759 1228 1600 
Q 959 1441 959 1056 
Q 959 750 1161 570 
Q 1363 391 1709 391 
Q 2188 391 2477 730 
Q 2766 1069 2766 1631 
L 2766 1759 
L 2194 1759 
z
M 3341 1997 
L 3341 0 
L 2766 0 
L 2766 531 
Q 2569 213 2275 61 
Q 1981 -91 1556 -91 
Q 1019 -91 701 211 
Q 384 513 384 1019 
Q 384 1609 779 1909 
Q 1175 2209 1959 2209 
L 2766 2209 
L 2766 2266 
Q 2766 2663 2505 2880 
Q 2244 3097 1772 3097 
Q 1472 3097 1187 3025 
Q 903 2953 641 2809 
L 641 3341 
Q 956 3463 1253 3523 
Q 1550 3584 1831 3584 
Q 2591 3584 2966 3190 
Q 3341 2797 3341 1997 
z
" transform="scale(0.015625)"/>
      <path id="DejaVuSans-69" d="M 603 3500 
L 1178 3500 
L 1178 0 
L 603 0 
L 603 3500 
z
M 603 4863 
L 1178 4863 
L 1178 4134 
L 603 4134 
L 603 4863 
z
" transform="scale(0.015625)"/>
     </defs>
     <use xlink:href="#DejaVuSans-47"/>
     <use xlink:href="#DejaVuSans-50" x="77.490234"/>
     <use xlink:href="#DejaVuSans-55" x="137.792969"/>
     <use xlink:href="#DejaVuSans-20" x="210.986328"/>
     <use xlink:href="#DejaVuSans-63" x="242.773438"/>
     <use xlink:href="#DejaVuSans-6f" x="297.753906"/>
     <use xlink:href="#DejaVuSans-75" x="358.935547"/>
     <use xlink:href="#DejaVuSans-6e" x="422.314453"/>
     <use xlink:href="#DejaVuSans-74" x="485.693359"/>
     <use xlink:href="#DejaVuSans-20" x="524.902344"/>
     <use xlink:href="#DejaVuSans-26" x="556.689453"/>
     <use xlink:href="#DejaVuSans-20" x="634.667969"/>
     <use xlink:href="#DejaVuSans-67" x="666.455078"/>
     <use xlink:href="#DejaVuSans-65" x="729.931641"/>
     <use xlink:href="#DejaVuSans-6e" x="791.455078"/>
     <use xlink:href="#DejaVuSans-65" x="854.833984"/>
     <use xlink:href="#DejaVuSans-72" x="916.357422"/>
     <use xlink:href="#DejaVuSans-61" x="957.470703"/>
     <use xlink:href="#DejaVuSans-74" x="1018.75"/>
     <use xlink:href="#DejaVuSans-69" x="1057.958984"/>
     <use xlink:href="#DejaVuSans-6f" x="1085.742188"/>
     <use xlink:href="#DejaVuSans-6e" x="1146.923828"/>
    </g>
   </g>
   <g id="text_2">
    <!-- Model -->
    <g transform="translate(102.588047 72.383437) scale(0.09 -0.09)">
     <defs>
      <path id="DejaVuSans-4d" d="M 628 4666 
L 1569 4666 
L 2759 1491 
L 3956 4666 
L 4897 4666 
L 4897 0 
L 4281 0 
L 4281 4097 
L 3078 897 
L 2444 897 
L 1241 4097 
L 1241 0 
L 628 0 
L 628 4666 
z
" transform="scale(0.015625)"/>
      <path id="DejaVuSans-64" d="M 2906 2969 
L 2906 4863 
L 3481 4863 
L 3481 0 
L 2906 0 
L 2906 525 
Q 2725 213 2448 61 
Q 2172 -91 1784 -91 
Q 1150 -91 751 415 
Q 353 922 353 1747 
Q 353 2572 751 3078 
Q 1150 3584 1784 3584 
Q 2172 3584 2448 3432 
Q 2725 3281 2906 2969 
z
M 947 1747 
Q 947 1113 1208 752 
Q 1469 391 1925 391 
Q 2381 391 2643 752 
Q 2906 1113 2906 1747 
Q 2906 2381 2643 2742 
Q 2381 3103 1925 3103 
Q 1469 3103 1208 2742 
Q 947 2381 947 1747 
z
" transform="scale(0.015625)"/>
      <path id="DejaVuSans-6c" d="M 603 4863 
L 1178 4863 
L 1178 0 
L 603 0 
L 603 4863 
z
" transform="scale(0.015625)"/>
     </defs>
     <use xlink:href="#DejaVuSans-4d"/>
     <use xlink:href="#DejaVuSans-6f" x="86.279297"/>
     <use xlink:href="#DejaVuSans-64" x="147.460938"/>
     <use xlink:href="#DejaVuSans-65" x="210.9375"/>
     <use xlink:href="#DejaVuSans-6c" x="272.460938"/>
    </g>
   </g>
   <g id="text_3">
    <!-- Quantization -->
    <g transform="translate(77.442891 108.683437) scale(0.09 -0.09)">
     <defs>
      <path id="DejaVuSans-51" d="M 2522 4238 
Q 1834 4238 1429 3725 
Q 1025 3213 1025 2328 
Q 1025 1447 1429 934 
Q 1834 422 2522 422 
Q 3209 422 3611 934 
Q 4013 1447 4013 2328 
Q 4013 3213 3611 3725 
Q 3209 4238 2522 4238 
z
M 3406 84 
L 4238 -825 
L 3475 -825 
L 2784 -78 
Q 2681 -84 2626 -87 
Q 2572 -91 2522 -91 
Q 1538 -91 948 567 
Q 359 1225 359 2328 
Q 359 3434 948 4092 
Q 1538 4750 2522 4750 
Q 3503 4750 4090 4092 
Q 4678 3434 4678 2328 
Q 4678 1516 4351 937 
Q 4025 359 3406 84 
z
" transform="scale(0.015625)"/>
      <path id="DejaVuSans-7a" d="M 353 3500 
L 3084 3500 
L 3084 2975 
L 922 459 
L 3084 459 
L 3084 0 
L 275 0 
L 275 525 
L 2438 3041 
L 353 3041 
L 353 3500 
z
" transform="scale(0.015625)"/>
     </defs>
     <use xlink:href="#DejaVuSans-51"/>
     <use xlink:href="#DejaVuSans-75" x="78.710938"/>
     <use xlink:href="#DejaVuSans-61" x="142.089844"/>
     <use xlink:href="#DejaVuSans-6e" x="203.369141"/>
     <use xlink:href="#DejaVuSans-74" x="266.748047"/>
     <use xlink:href="#DejaVuSans-69" x="305.957031"/>
     <use xlink:href="#DejaVuSans-7a" x="333.740234"/>
     <use xlink:href="#DejaVuSans-61" x="386.230469"/>
     <use xlink:href="#DejaVuSans-74" x="447.509766"/>
     <use xlink:href="#DejaVuSans-69" x="486.71875"/>
     <use xlink:href="#DejaVuSans-6f" x="514.501953"/>
     <use xlink:href="#DejaVuSans-6e" x="575.683594"/>
    </g>
   </g>
   <g id="text_4">
    <!-- Runtime parameters -->
    <g transform="translate(41.723906 144.983437) scale(0.09 -0.09)">
     <defs>
      <path id="DejaVuSans-52" d="M 2841 2188 
Q 3044 2119 3236 1894 
Q 3428 1669 3622 1275 
L 4263 0 
L 3584 0 
L 2988 1197 
Q 2756 1666 2539 1819 
Q 2322 1972 1947 1972 
L 1259 1972 
L 1259 0 
L 628 0 
L 628 4666 
L 2053 4666 
Q 2853 4666 3247 4331 
Q 3641 3997 3641 3322 
Q 3641 2881 3436 2590 
Q 3231 2300 2841 2188 
z
M 1259 4147 
L 1259 2491 
L 2053 2491 
Q 2509 2491 2742 2702 
Q 2975 2913 2975 3322 
Q 2975 3731 2742 3939 
Q 2509 4147 2053 4147 
L 1259 4147 
z
" transform="scale(0.015625)"/>
      <path id="DejaVuSans-6d" d="M 3328 2828 
Q 3544 3216 3844 3400 
Q 4144 3584 4550 3584 
Q 5097 3584 5394 3201 
Q 5691 2819 5691 2113 
L 5691 0 
L 5113 0 
L 5113 2094 
Q 5113 2597 4934 2840 
Q 4756 3084 4391 3084 
Q 3944 3084 3684 2787 
Q 3425 2491 3425 1978 
L 3425 0 
L 2847 0 
L 2847 2094 
Q 2847 2600 2669 2842 
Q 2491 3084 2119 3084 
Q 1678 3084 1418 2786 
Q 1159 2488 1159 1978 
L 1159 0 
L 581 0 
L 581 3500 
L 1159 3500 
L 1159 2956 
Q 1356 3278 1631 3431 
Q 1906 3584 2284 3584 
Q 2666 3584 2933 3390 
Q 3200 3197 3328 2828 
z
" transform="scale(0.015625)"/>
      <path id="DejaVuSans-70" d="M 1159 525 
L 1159 -1331 
L 581 -1331 
L 581 3500 
L 1159 3500 
L 1159 2969 
Q 1341 3281 1617 3432 
Q 1894 3584 2278 3584 
Q 2916 3584 3314 3078 
Q 3713 2572 3713 1747 
Q 3713 922 3314 415 
Q 2916 -91 2278 -91 
Q 1894 -91 1617 61 
Q 1341 213 1159 525 
z
M 3116 1747 
Q 3116 2381 2855 2742 
Q 2594 3103 2138 3103 
Q 1681 3103 1420 2742 
Q 1159 2381 1159 1747 
Q 1159 1113 1420 752 
Q 1681 391 2138 391 
Q 2594 391 2855 752 
Q 3116 1113 3116 1747 
z
" transform="scale(0.015625)"/>
      <path id="DejaVuSans-73" d="M 2834 3397 
L 2834 2853 
Q 2591 2978 2328 3040 
Q 2066 3103 1784 3103 
Q 1356 3103 1142 2972 
Q 928 2841 928 2578 
Q 928 2378 1081 2264 
Q 1234 2150 1697 2047 
L 1894 2003 
Q 2506 1872 2764 1633 
Q 3022 1394 3022 966 
Q 3022 478 2636 193 
Q 2250 -91 1575 -91 
Q 1294 -91 989 -36 
Q 684 19 347 128 
L 347 722 
Q 666 556 975 473 
Q 1284 391 1588 391 
Q 1994 391 2212 530 
Q 2431 669 2431 922 
Q 2431 1156 2273 1281 
Q 2116 1406 1581 1522 
L 1381 1569 
Q 847 1681 609 1914 
Q 372 2147 372 2553 
Q 372 3047 722 3315 
Q 1072 3584 1716 3584 
Q 2034 3584 2315 3537 
Q 2597 3491 2834 3397 
z
" transform="scale(0.015625)"/>
     </defs>
     <use xlink:href="#DejaVuSans-52"/>
     <use xlink:href="#DejaVuSans-75" x="64.982422"/>
     <use xlink:href="#DejaVuSans-6e" x="128.361328"/>
     <use xlink:href="#DejaVuSans-74" x="191.740234"/>
     <use xlink:href="#DejaVuSans-69" x="230.949219"/>
     <use xlink:href="#DejaVuSans-6d" x="258.732422"/>
     <use xlink:href="#DejaVuSans-65" x="356.144531"/>
     <use xlink:href="#DejaVuSans-20" x="417.667969"/>
     <use xlink:href="#DejaVuSans-70" x="449.455078"/>
     <use xlink:href="#DejaVuSans-61" x="512.931641"/>
     <use xlink:href="#DejaVuSans-72" x="574.210938"/>
     <use xlink:href="#DejaVuSans-61" x="615.324219"/>
     <use xlink:href="#DejaVuSans-6d" x="676.603516"/>
     <use xlink:href="#DejaVuSans-65" x="774.015625"/>
     <use xlink:href="#DejaVuSans-74" x="835.539062"/>
     <use xlink:href="#DejaVuSans-65" x="874.748047"/>
     <use xlink:href="#DejaVuSans-72" x="936.271484"/>
     <use xlink:href="#DejaVuSans-73" x="977.384766"/>
    </g>
   </g>
   <g id="text_5">
    <!-- Memory -->
    <g transform="translate(196.798359 32.364422) scale(0.09 -0.09)">
     <defs>
      <path id="DejaVuSans-79" d="M 2059 -325 
Q 1816 -950 1584 -1140 
Q 1353 -1331 966 -1331 
L 506 -1331 
L 506 -850 
L 844 -850 
Q 1081 -850 1212 -737 
Q 1344 -625 1503 -206 
L 1606 56 
L 191 3500 
L 800 3500 
L 1894 763 
L 2988 3500 
L 3597 3500 
L 2059 -325 
z
" transform="scale(0.015625)"/>
     </defs>
     <use xlink:href="#DejaVuSans-4d"/>
     <use xlink:href="#DejaVuSans-65" x="86.279297"/>
     <use xlink:href="#DejaVuSans-6d" x="147.802734"/>
     <use xlink:href="#DejaVuSans-6f" x="245.214844"/>
     <use xlink:href="#DejaVuSans-72" x="306.396484"/>
     <use xlink:href="#DejaVuSans-79" x="347.509766"/>
    </g>
    <!-- availability -->
    <g transform="translate(190.628437 42.442453) scale(0.09 -0.09)">
     <defs>
      <path id="DejaVuSans-76" d="M 191 3500 
L 800 3500 
L 1894 563 
L 2988 3500 
L 3597 3500 
L 2284 0 
L 1503 0 
L 191 3500 
z
" transform="scale(0.015625)"/>
      <path id="DejaVuSans-62" d="M 3116 1747 
Q 3116 2381 2855 2742 
Q 2594 3103 2138 3103 
Q 1681 3103 1420 2742 
Q 1159 2381 1159 1747 
Q 1159 1113 1420 752 
Q 1681 391 2138 391 
Q 2594 391 2855 752 
Q 3116 1113 3116 1747 
z
M 1159 2969 
Q 1341 3281 1617 3432 
Q 1894 3584 2278 3584 
Q 2916 3584 3314 3078 
Q 3713 2572 3713 1747 
Q 3713 922 3314 415 
Q 2916 -91 2278 -91 
Q 1894 -91 1617 61 
Q 1341 213 1159 525 
L 1159 0 
L 581 0 
L 581 4863 
L 1159 4863 
L 1159 2969 
z
" transform="scale(0.015625)"/>
     </defs>
     <use xlink:href="#DejaVuSans-61"/>
     <use xlink:href="#DejaVuSans-76" x="61.279297"/>
     <use xlink:href="#DejaVuSans-61" x="120.458984"/>
     <use xlink:href="#DejaVuSans-69" x="181.738281"/>
     <use xlink:href="#DejaVuSans-6c" x="209.521484"/>
     <use xlink:href="#DejaVuSans-61" x="237.304688"/>
     <use xlink:href="#DejaVuSans-62" x="298.583984"/>
     <use xlink:href="#DejaVuSans-69" x="362.060547"/>
     <use xlink:href="#DejaVuSans-6c" x="389.84375"/>
     <use xlink:href="#DejaVuSans-69" x="417.626953"/>
     <use xlink:href="#DejaVuSans-74" x="445.410156"/>
     <use xlink:href="#DejaVuSans-79" x="484.619141"/>
    </g>
   </g>
   <g id="text_6">
    <!-- Memory -->
    <g transform="translate(196.798359 85.494422) scale(0.09 -0.09)">
     <use xlink:href="#DejaVuSans-4d"/>
     <use xlink:href="#DejaVuSans-65" x="86.279297"/>
     <use xlink:href="#DejaVuSans-6d" x="147.802734"/>
     <use xlink:href="#DejaVuSans-6f" x="245.214844"/>
     <use xlink:href="#DejaVuSans-72" x="306.396484"/>
     <use xlink:href="#DejaVuSans-79" x="347.509766"/>
    </g>
    <!-- footprint -->
    <g transform="translate(195.671953 95.572453) scale(0.09 -0.09)">
     <defs>
      <path id="DejaVuSans-66" d="M 2375 4863 
L 2375 4384 
L 1825 4384 
Q 1516 4384 1395 4259 
Q 1275 4134 1275 3809 
L 1275 3500 
L 2222 3500 
L 2222 3053 
L 1275 3053 
L 1275 0 
L 697 0 
L 697 3053 
L 147 3053 
L 147 3500 
L 697 3500 
L 697 3744 
Q 697 4328 969 4595 
Q 1241 4863 1831 4863 
L 2375 4863 
z
" transform="scale(0.015625)"/>
     </defs>
     <use xlink:href="#DejaVuSans-66"/>
     <use xlink:href="#DejaVuSans-6f" x="35.205078"/>
     <use xlink:href="#DejaVuSans-6f" x="96.386719"/>
     <use xlink:href="#DejaVuSans-74" x="157.568359"/>
     <use xlink:href="#DejaVuSans-70" x="196.777344"/>
     <use xlink:href="#DejaVuSans-72" x="260.253906"/>
     <use xlink:href="#DejaVuSans-69" x="301.367188"/>
     <use xlink:href="#DejaVuSans-6e" x="329.150391"/>
     <use xlink:href="#DejaVuSans-74" x="392.529297"/>
    </g>
   </g>
   <g id="text_7">
    <!-- Compute -->
    <g transform="translate(194.579297 138.624422) scale(0.09 -0.09)">
     <defs>
      <path id="DejaVuSans-43" d="M 4122 4306 
L 4122 3641 
Q 3803 3938 3442 4084 
Q 3081 4231 2675 4231 
Q 1875 4231 1450 3742 
Q 1025 3253 1025 2328 
Q 1025 1406 1450 917 
Q 1875 428 2675 428 
Q 3081 428 3442 575 
Q 3803 722 4122 1019 
L 4122 359 
Q 3791 134 3420 21 
Q 3050 -91 2638 -91 
Q 1578 -91 968 557 
Q 359 1206 359 2328 
Q 359 3453 968 4101 
Q 1578 4750 2638 4750 
Q 3056 4750 3426 4639 
Q 3797 4528 4122 4306 
z
" transform="scale(0.015625)"/>
     </defs>
     <use xlink:href="#DejaVuSans-43"/>
     <use xlink:href="#DejaVuSans-6f" x="69.824219"/>
     <use xlink:href="#DejaVuSans-6d" x="131.005859"/>
     <use xlink:href="#DejaVuSans-70" x="228.417969"/>
     <use xlink:href="#DejaVuSans-75" x="291.894531"/>
     <use xlink:href="#DejaVuSans-74" x="355.273438"/>
     <use xlink:href="#DejaVuSans-65" x="394.482422"/>
    </g>
    <!-- volume -->
    <g transform="translate(198.428906 148.702453) scale(0.09 -0.09)">
     <use xlink:href="#DejaVuSans-76"/>
     <use xlink:href="#DejaVuSans-6f" x="59.179688"/>
     <use xlink:href="#DejaVuSans-6c" x="120.361328"/>
     <use xlink:href="#DejaVuSans-75" x="148.144531"/>
     <use xlink:href="#DejaVuSans-6d" x="211.523438"/>
     <use xlink:href="#DejaVuSans-65" x="308.935547"/>
    </g>
   </g>
   <g id="text_8">
    <!-- App constraints -->
    <g transform="translate(288.772031 36.083437) scale(0.09 -0.09)">
     <defs>
      <path id="DejaVuSans-41" d="M 2188 4044 
L 1331 1722 
L 3047 1722 
L 2188 4044 
z
M 1831 4666 
L 2547 4666 
L 4325 0 
L 3669 0 
L 3244 1197 
L 1141 1197 
L 716 0 
L 50 0 
L 1831 4666 
z
" transform="scale(0.015625)"/>
     </defs>
     <use xlink:href="#DejaVuSans-41"/>
     <use xlink:href="#DejaVuSans-70" x="68.408203"/>
     <use xlink:href="#DejaVuSans-70" x="131.884766"/>
     <use xlink:href="#DejaVuSans-20" x="195.361328"/>
     <use xlink:href="#DejaVuSans-63" x="227.148438"/>
     <use xlink:href="#DejaVuSans-6f" x="282.128906"/>
     <use xlink:href="#DejaVuSans-6e" x="343.310547"/>
     <use xlink:href="#DejaVuSans-73" x="406.689453"/>
     <use xlink:href="#DejaVuSans-74" x="458.789062"/>
     <use xlink:href="#DejaVuSans-72" x="497.998047"/>
     <use xlink:href="#DejaVuSans-61" x="539.111328"/>
     <use xlink:href="#DejaVuSans-69" x="600.390625"/>
     <use xlink:href="#DejaVuSans-6e" x="628.173828"/>
     <use xlink:href="#DejaVuSans-74" x="691.552734"/>
     <use xlink:href="#DejaVuSans-73" x="730.761719"/>
    </g>
   </g>
   <g id="text_9">
    <!-- Batch -->
    <g transform="translate(304.464609 67.344422) scale(0.09 -0.09)">
     <defs>
      <path id="DejaVuSans-42" d="M 1259 2228 
L 1259 519 
L 2272 519 
Q 2781 519 3026 730 
Q 3272 941 3272 1375 
Q 3272 1813 3026 2020 
Q 2781 2228 2272 2228 
L 1259 2228 
z
M 1259 4147 
L 1259 2741 
L 2194 2741 
Q 2656 2741 2882 2914 
Q 3109 3088 3109 3444 
Q 3109 3797 2882 3972 
Q 2656 4147 2194 4147 
L 1259 4147 
z
M 628 4666 
L 2241 4666 
Q 2963 4666 3353 4366 
Q 3744 4066 3744 3513 
Q 3744 3084 3544 2831 
Q 3344 2578 2956 2516 
Q 3422 2416 3680 2098 
Q 3938 1781 3938 1306 
Q 3938 681 3513 340 
Q 3088 0 2303 0 
L 628 0 
L 628 4666 
z
" transform="scale(0.015625)"/>
      <path id="DejaVuSans-68" d="M 3513 2113 
L 3513 0 
L 2938 0 
L 2938 2094 
Q 2938 2591 2744 2837 
Q 2550 3084 2163 3084 
Q 1697 3084 1428 2787 
Q 1159 2491 1159 1978 
L 1159 0 
L 581 0 
L 581 4863 
L 1159 4863 
L 1159 2956 
Q 1366 3272 1645 3428 
Q 1925 3584 2291 3584 
Q 2894 3584 3203 3211 
Q 3513 2838 3513 2113 
z
" transform="scale(0.015625)"/>
     </defs>
     <use xlink:href="#DejaVuSans-42"/>
     <use xlink:href="#DejaVuSans-61" x="68.603516"/>
     <use xlink:href="#DejaVuSans-74" x="129.882812"/>
     <use xlink:href="#DejaVuSans-63" x="169.091797"/>
     <use xlink:href="#DejaVuSans-68" x="224.072266"/>
    </g>
    <!-- size -->
    <g transform="translate(308.674922 77.422453) scale(0.09 -0.09)">
     <use xlink:href="#DejaVuSans-73"/>
     <use xlink:href="#DejaVuSans-69" x="52.099609"/>
     <use xlink:href="#DejaVuSans-7a" x="79.882812"/>
     <use xlink:href="#DejaVuSans-65" x="132.373047"/>
    </g>
   </g>
   <g id="text_10">
    <!-- Non-GPU bottlenecks -->
    <g transform="translate(305.815078 144.983437) scale(0.09 -0.09)">
     <defs>
      <path id="DejaVuSans-4e" d="M 628 4666 
L 1478 4666 
L 3547 763 
L 3547 4666 
L 4159 4666 
L 4159 0 
L 3309 0 
L 1241 3903 
L 1241 0 
L 628 0 
L 628 4666 
z
" transform="scale(0.015625)"/>
      <path id="DejaVuSans-2d" d="M 313 2009 
L 1997 2009 
L 1997 1497 
L 313 1497 
L 313 2009 
z
" transform="scale(0.015625)"/>
      <path id="DejaVuSans-6b" d="M 581 4863 
L 1159 4863 
L 1159 1991 
L 2875 3500 
L 3609 3500 
L 1753 1863 
L 3688 0 
L 2938 0 
L 1159 1709 
L 1159 0 
L 581 0 
L 581 4863 
z
" transform="scale(0.015625)"/>
     </defs>
     <use xlink:href="#DejaVuSans-4e"/>
     <use xlink:href="#DejaVuSans-6f" x="74.804688"/>
     <use xlink:href="#DejaVuSans-6e" x="135.986328"/>
     <use xlink:href="#DejaVuSans-2d" x="199.365234"/>
     <use xlink:href="#DejaVuSans-47" x="239.074219"/>
     <use xlink:href="#DejaVuSans-50" x="316.564453"/>
     <use xlink:href="#DejaVuSans-55" x="376.867188"/>
     <use xlink:href="#DejaVuSans-20" x="450.060547"/>
     <use xlink:href="#DejaVuSans-62" x="481.847656"/>
     <use xlink:href="#DejaVuSans-6f" x="545.324219"/>
     <use xlink:href="#DejaVuSans-74" x="606.505859"/>
     <use xlink:href="#DejaVuSans-74" x="645.714844"/>
     <use xlink:href="#DejaVuSans-6c" x="684.923828"/>
     <use xlink:href="#DejaVuSans-65" x="712.707031"/>
     <use xlink:href="#DejaVuSans-6e" x="774.230469"/>
     <use xlink:href="#DejaVuSans-65" x="837.609375"/>
     <use xlink:href="#DejaVuSans-63" x="899.132812"/>
     <use xlink:href="#DejaVuSans-6b" x="954.113281"/>
     <use xlink:href="#DejaVuSans-73" x="1012.023438"/>
    </g>
   </g>
   <g id="text_11">
    <!-- GPU -->
    <g transform="translate(413.506406 67.344422) scale(0.09 -0.09)">
     <use xlink:href="#DejaVuSans-47"/>
     <use xlink:href="#DejaVuSans-50" x="77.490234"/>
     <use xlink:href="#DejaVuSans-55" x="137.792969"/>
    </g>
    <!-- utilization -->
    <g transform="translate(400.894453 77.422453) scale(0.09 -0.09)">
     <use xlink:href="#DejaVuSans-75"/>
     <use xlink:href="#DejaVuSans-74" x="63.378906"/>
     <use xlink:href="#DejaVuSans-69" x="102.587891"/>
     <use xlink:href="#DejaVuSans-6c" x="130.371094"/>
     <use xlink:href="#DejaVuSans-69" x="158.154297"/>
     <use xlink:href="#DejaVuSans-7a" x="185.9375"/>
     <use xlink:href="#DejaVuSans-61" x="238.427734"/>
     <use xlink:href="#DejaVuSans-74" x="299.707031"/>
     <use xlink:href="#DejaVuSans-69" x="338.916016"/>
     <use xlink:href="#DejaVuSans-6f" x="366.699219"/>
     <use xlink:href="#DejaVuSans-6e" x="427.880859"/>
    </g>
   </g>
   <g id="text_12">
    <!-- Energy -->
    <g transform="translate(506.244375 72.383437) scale(0.09 -0.09)">
     <defs>
      <path id="DejaVuSans-45" d="M 628 4666 
L 3578 4666 
L 3578 4134 
L 1259 4134 
L 1259 2753 
L 3481 2753 
L 3481 2222 
L 1259 2222 
L 1259 531 
L 3634 531 
L 3634 0 
L 628 0 
L 628 4666 
z
" transform="scale(0.015625)"/>
     </defs>
     <use xlink:href="#DejaVuSans-45"/>
     <use xlink:href="#DejaVuSans-6e" x="63.183594"/>
     <use xlink:href="#DejaVuSans-65" x="126.5625"/>
     <use xlink:href="#DejaVuSans-72" x="188.085938"/>
     <use xlink:href="#DejaVuSans-67" x="227.449219"/>
     <use xlink:href="#DejaVuSans-79" x="290.925781"/>
    </g>
   </g>
   <g id="text_13">
    <!-- Throughput/Watt -->
    <g transform="translate(483.899766 131.783437) scale(0.09 -0.09)">
     <defs>
      <path id="DejaVuSans-54" d="M -19 4666 
L 3928 4666 
L 3928 4134 
L 2272 4134 
L 2272 0 
L 1638 0 
L 1638 4134 
L -19 4134 
L -19 4666 
z
" transform="scale(0.015625)"/>
      <path id="DejaVuSans-2f" d="M 1625 4666 
L 2156 4666 
L 531 -594 
L 0 -594 
L 1625 4666 
z
" transform="scale(0.015625)"/>
      <path id="DejaVuSans-57" d="M 213 4666 
L 850 4666 
L 1831 722 
L 2809 4666 
L 3519 4666 
L 4500 722 
L 5478 4666 
L 6119 4666 
L 4947 0 
L 4153 0 
L 3169 4050 
L 2175 0 
L 1381 0 
L 213 4666 
z
" transform="scale(0.015625)"/>
     </defs>
     <use xlink:href="#DejaVuSans-54"/>
     <use xlink:href="#DejaVuSans-68" x="61.083984"/>
     <use xlink:href="#DejaVuSans-72" x="124.462891"/>
     <use xlink:href="#DejaVuSans-6f" x="163.326172"/>
     <use xlink:href="#DejaVuSans-75" x="224.507812"/>
     <use xlink:href="#DejaVuSans-67" x="287.886719"/>
     <use xlink:href="#DejaVuSans-68" x="351.363281"/>
     <use xlink:href="#DejaVuSans-70" x="414.742188"/>
     <use xlink:href="#DejaVuSans-75" x="478.21875"/>
     <use xlink:href="#DejaVuSans-74" x="541.597656"/>
     <use xlink:href="#DejaVuSans-2f" x="580.806641"/>
     <use xlink:href="#DejaVuSans-57" x="614.498047"/>
     <use xlink:href="#DejaVuSans-61" x="707"/>
     <use xlink:href="#DejaVuSans-74" x="768.279297"/>
     <use xlink:href="#DejaVuSans-74" x="807.488281"/>
    </g>
   </g>
  </g>
 </g>
 <defs>
  <clipPath id="pd07f49ac54">
   <rect x="7.2" y="7.2" width="574.2" height="158.4"/>
  </clipPath>
 </defs>
</svg>
